<mxfile host="65bd71144e" pages="2">
    <diagram id="8ou6yR4vHyCKFCrKnDbj" name="Page">
        <mxGraphModel dx="2485" dy="398" grid="1" gridSize="10" guides="1" tooltips="1" connect="1" arrows="1" fold="1" page="1" pageScale="1" pageWidth="827" pageHeight="1169" math="0" shadow="0">
            <root>
                <mxCell id="0"/>
                <mxCell id="1" parent="0"/>
                <mxCell id="7xT7HhOt73u-JdGWIpGx-18" value="" style="edgeStyle=orthogonalEdgeStyle;rounded=0;orthogonalLoop=1;jettySize=auto;html=1;" parent="1" source="LZZi7EF7rNqIdGtY6sRh-1" target="LZZi7EF7rNqIdGtY6sRh-2" edge="1">
                    <mxGeometry relative="1" as="geometry"/>
                </mxCell>
                <mxCell id="LZZi7EF7rNqIdGtY6sRh-1" value="" style="sketch=0;outlineConnect=0;fontColor=#232F3E;gradientColor=none;fillColor=#232F3D;strokeColor=none;dashed=0;verticalLabelPosition=bottom;verticalAlign=top;align=center;html=1;fontSize=12;fontStyle=0;aspect=fixed;pointerEvents=1;shape=mxgraph.aws4.user;" parent="1" vertex="1">
                    <mxGeometry x="-1500.0026530612245" y="859.9973913043477" width="60" height="60" as="geometry"/>
                </mxCell>
                <mxCell id="LZZi7EF7rNqIdGtY6sRh-2" value="GitHub" style="shape=image;html=1;verticalAlign=top;verticalLabelPosition=bottom;labelBackgroundColor=#ffffff;imageAspect=0;aspect=fixed;image=https://cdn4.iconfinder.com/data/icons/ionicons/512/icon-social-github-128.png" parent="1" vertex="1">
                    <mxGeometry x="-1420" y="860" width="60" height="60" as="geometry"/>
                </mxCell>
                <mxCell id="LZZi7EF7rNqIdGtY6sRh-3" value="AWS Cloud" style="points=[[0,0],[0.25,0],[0.5,0],[0.75,0],[1,0],[1,0.25],[1,0.5],[1,0.75],[1,1],[0.75,1],[0.5,1],[0.25,1],[0,1],[0,0.75],[0,0.5],[0,0.25]];outlineConnect=0;gradientColor=none;html=1;whiteSpace=wrap;fontSize=12;fontStyle=0;container=0;pointerEvents=0;collapsible=0;recursiveResize=0;shape=mxgraph.aws4.group;grIcon=mxgraph.aws4.group_aws_cloud_alt;strokeColor=#232F3E;fillColor=none;verticalAlign=top;align=left;spacingLeft=30;fontColor=#232F3E;dashed=0;" parent="1" vertex="1">
                    <mxGeometry x="-1400" y="160" width="540" height="590" as="geometry"/>
                </mxCell>
                <mxCell id="cf0YllhuiW2A9nM_EUo--1" value="Web Page" style="sketch=0;pointerEvents=1;shadow=0;dashed=0;html=1;strokeColor=none;fillColor=#505050;labelPosition=center;verticalLabelPosition=bottom;verticalAlign=top;outlineConnect=0;align=center;shape=mxgraph.office.concepts.web_page;" parent="1" vertex="1">
                    <mxGeometry x="-820" y="317.4" width="50" height="54" as="geometry"/>
                </mxCell>
                <mxCell id="aFB0EKd-YDEnXD3zQQBE-2" value="" style="edgeStyle=orthogonalEdgeStyle;rounded=0;orthogonalLoop=1;jettySize=auto;html=1;" parent="1" source="LZZi7EF7rNqIdGtY6sRh-6" target="cf0YllhuiW2A9nM_EUo--1" edge="1">
                    <mxGeometry relative="1" as="geometry">
                        <mxPoint x="-1170" y="377" as="sourcePoint"/>
                        <mxPoint x="-810" y="340" as="targetPoint"/>
                        <Array as="points">
                            <mxPoint x="-1130" y="342"/>
                            <mxPoint x="-1130" y="342"/>
                        </Array>
                    </mxGeometry>
                </mxCell>
                <mxCell id="13" value="確定拠出年金サイト スクレイピング" style="edgeLabel;html=1;align=center;verticalAlign=middle;resizable=0;points=[];labelBackgroundColor=#FFE6CC;" vertex="1" connectable="0" parent="aFB0EKd-YDEnXD3zQQBE-2">
                    <mxGeometry x="0.1529" y="2" relative="1" as="geometry">
                        <mxPoint x="-30" as="offset"/>
                    </mxGeometry>
                </mxCell>
                <mxCell id="o-DbXhCWVmbR5wKVS1WT-12" value="" style="edgeStyle=orthogonalEdgeStyle;rounded=0;orthogonalLoop=1;jettySize=auto;html=1;" parent="1" source="oUADGsadlh63WO3jL9tl-1" target="o-DbXhCWVmbR5wKVS1WT-5" edge="1">
                    <mxGeometry relative="1" as="geometry"/>
                </mxCell>
                <mxCell id="oUADGsadlh63WO3jL9tl-1" value="LINE Message API" style="shape=image;verticalLabelPosition=bottom;labelBackgroundColor=default;verticalAlign=top;imageAspect=0;image=data:image/png,iVBORw0KGgoAAAANSUhEUgAABDgAAAM5CAYAAADi64GkAAAACXBIWXMAAC4jAAAuIwF4pT92AABtzklEQVR4nOzdebzdZWHv++/z/H5r3HPmOQQCJGQggRAmgziA0qLirFilWrU9p/XlPee0tYNUrba31qPn3NNrtYMdtLd1FgsqKBCmgJKEEAJJICEkZB72vNf4G577xx4IEEKGtdfav70/b19bQshe69nTyvp91jMY55wAAAAAAACSzDZ6AAAAAAAAAGeLwAEAAAAAABKPwAEAAAAAABKPwAEAAAAAABKPwAEAAAAAABKPwAEAAAAAABKPwAEAAAAAABKPwAEAAAAAABKPwAEAAAAAABKPwAEAAAAAABKPwAEAAAAAABKPwAEAAAAAABKPwAEAAAAAABKPwAEAAAAAABKPwAEAAAAAABKPwAEAAAAAABKPwAEAAAAAABKPwAEAAAAAABKPwAEAAAAAABKPwAEAAAAAABKPwAEAAAAAABKPwAEAAAAAABKPwAEAAAAAABKPwAEAAAAAABKPwAEAAAAAABKPwAEAAAAAABKPwAEAAAAAABKPwAEAAAAAABKPwAEAAAAAABKPwAEAAAAAABKPwAEAAAAAABKPwAEAAAAAABKPwAEAAAAAABKPwAEAAAAAABKPwAEAAAAAABKPwAEAAAAAABKPwAEAAAAAABKPwAEAAAAAABKPwAEAAAAAABKPwAEAAAAAABKPwAEAAAAAABKPwAEAAAAAABKPwAEAAAAAABKPwAEAAAAAABKPwAEAAAAAABKPwAEAAAAAABKPwAEAAAAAABKPwAEAAAAAABKPwAEAAAAAABKPwAEAAAAAABKPwAEAAAAAABKPwAEAAAAAABKPwAEAAAAAABKPwAEAAAAAABKPwAEAAAAAABKPwAEAAAAAABKPwAEAAAAAABKPwAEAAAAAABKPwAEAAAAAABKPwAEAAAAAABKPwAEAAAAAABKPwAEAAAAAABKPwAEAAAAAABKPwAEAAAAAABKPwAEAAAAAABKPwAEAAAAAABKPwAEAAAAAABKPwAEAAAAAABKPwAEAAAAAABKPwAEAAAAAABKPwAEAAAAAABKPwAEAAAAAABKPwAEAAAAAABKPwAEAAAAAABKPwAEAAAAAABKPwAEAAAAAABKPwAEAAAAAABKPwAEAAAAAABKPwAEAAAAAABKPwAEAAAAAABKPwAEAAAAAABKPwAEAAAAAABKPwAEAAAAAABKPwAEAAAAAABKPwAEAAAAAABKPwAEAAAAAABKPwAEAAAAAABKPwAEAAAAAABKPwAEAAAAAABKPwAEAAAAAABKPwAEAAAAAABKPwAEAAAAAABKPwAEAAAAAABKPwAEAAAAAABKPwAEAAAAAABKPwAEAAAAAABKPwAEAAAAAABKPwAEAAAAAABKPwAEAAAAAABKPwAEAAAAAABKPwAEAAAAAABKPwAEAAAAAABKPwAEAAAAAABKPwAEAAAAAABKPwAEAAAAAABKPwAEAAAAAABKPwAEAAAAAABKPwAEAAAAAABKPwAEAAAAAABKPwAEAAAAAABKPwAEAAAAAABKPwAEAAAAAABKPwAEAAAAAABKPwAEAAAAAABKPwAEAAAAAABKPwAEAAAAAABKPwAEAAAAAABKPwAEAAAAAABKPwAEAAAAAABKPwAEAAAAAABKPwAEAAAAAABKPwAEAAAAAABKPwAEAAAAAABKPwAEAAAAAABKPwAEAAAAAABKPwAEAAAAAABKPwAEAAAAAABKPwAEAAAAAABKPwAEAAAAAABKPwAEAAAAAABKPwAEAAAAAABKPwAEAAAAAABKPwAEAAAAAABKPwAEAAAAAABKPwAEAAAAAABKPwAEAAAAAABKPwAEAAAAAABKPwAEAAAAAABKPwAEAAAAAABKPwAEAAAAAABKPwAEAAAAAABKPwAEAAAAAABKPwAEAAAAAABKPwAEAAAAAABKPwAEAAAAAABKPwAEAAAAAABKPwAEAAAAAABKPwAEAAAAAABKPwAEAAAAAABKPwAEAAAAAABKPwAEAAAAAABKPwAEAAAAAABKPwAEAAAAAABKPwAEAAAAAABKPwAEAAAAAABKPwAEAAAAAABKPwAEAAAAAABKPwAEAAAAAABKPwAEAAAAAABKPwAEAAAAAABKPwAEAAAAAABKPwAEAAAAAABKPwAEAAAAAABKPwAEAAAAAABKPwAEAAAAAABKPwAEAAAAAABKPwAEAAAAAABKPwAEAAAAAABKPwAEAAAAAABKPwAEAAAAAABKPwAEAAAAAABKPwAEAAAAAABKPwAEAAAAAABKPwAEAAAAAABKPwAEAAAAAABKPwAEAAAAAABKPwAEAAAAAABKPwAEAAAAAABKPwAEAAAAAABKPwAEAAAAAABKPwAEAAAAAABKPwAEAAAAAABKPwAEAAAAAABKPwAEAAAAAABKPwAEAAAAAABKPwAEAAAAAABKPwAEAAAAAABKPwAEAAAAAABKPwAEAAAAAABKPwAEAAAAAABKPwAEAAAAAABKPwAEAAAAAABKPwAEAAAAAABKPwAEAAAAAABKPwAEAAAAAABKPwAEAAAAAABKPwAEAAAAAABKPwAEAAAAAABKPwAEAAAAAABKPwAEAAAAAABKPwAEAAAAAABKPwAEAAAAAABKPwAEAAAAAABKPwAEAAAAAABKPwAEAAAAAABKPwAEAAAAAABKPwAEAAAAAABKPwAEAAAAAABKPwAEAAAAAABKPwAEAAAAAABKPwAEAAAAAABKPwAEAAAAAABKPwAEAAAAAABKPwAEAAAAAABKPwAEAAAAAABKPwAEAAAAAABKPwAEAAAAAABKPwAEAAAAAABKPwAEAAAAAABKPwAEAAAAAABLPb/QAAEws7373u0/5z8ZxLN/39c53vlPz5s3TX//1X+vhhx/WkiVLNHfuXM2ePVsLFy7UwYMHtXv3buXzeZ177rkyxujpp5/WrFmz1Nvbq7lz56qrq0tPPvmkjDGqVqu68MIL048++mj+qquuau7u7p6+ZcuWBStWrLhw3759S3bu3Dm7VCo1tbS0zPB9f3q1WvWdc4rjeOQNAOrJGCNrray1I79OpVJFSQe7u7u7J0+e3LlkyZL9mUxmc7lc3hrH8f4oijozmUxxxYoVhc2bNztrrbLZrHp7ezV58mRdfvnl+vnPf643velN2rZtm+I41vTp07V+/Xp1dHRo/fr1uummmzRlyhTt3LlTe/bskTFGF110kdrb2zV58mRNmzZN2WyWx0W8ossvv7zRQwAwgRA4AEwIZpCV5EdR1FKtVi9J+f6lv/zlL1eXSqVL9u7dO2/btm1KpVJKpVKSpEOHDsk5J2vt8G286J8AUE/OuZF/Dr3lJZ2XTqe1f/9+7d69W2EYatKkScUFCxZsnTJlyvowDDeXy+VHnHPPGWPKkiJJ1AgAwLhE4AAw7nmeJ8/z8r7vXx6G4Zr9+/e/fufOneeWy+VJlUolZYzxfN9XPp9/UbxIp9NyzhE0AIxJw8HDGCPP8zQ8Q6NcLueffPLJlZKWNTU1hRs2bNi/cOHCzeeee+4vjDFrrbU7GztyAABGB4EDwLiVTqfV0dExfcuWLW/ZuXPnWw8cOLCsWCy2xnHcGkWRPzzN+2QzM4gbAMaqlz4+Hf9YZq31nHNeuVzOlEqlC5544om5Tz/99JpMJrN3+vTpD8ybN++nzc3N9xpjRkIJAABJR+AAMG445+R5nrLZrDKZzJKtW7e+bu/evdft27fv4kKhMH94/wzf918UNgBgPDHGyPcHn+INL2epVCq5YrGYs9bOGBgYuGBgYOD1O3bseDSfz98zadKkn6VSqYFSqdTgkQMAcHYIHADGBeeccrmcgiCYt3Pnzjc/8cQTbzt48OAlXV1dM+I4ViqVku/7SqVSvFoJYNw7/nHOGDOy5M45p2Kx2PbMM8+sfO6551bOmTPnmnw+f00cxz8899xzH0yn0yGPkQCApCJwAEi04Vkb+Xy+vbe399LnnnvuPU8++eS7jxw50mGMUTabled5I3+WJ+4AJqLj9+vIZDJKp9MKgkA7duxYvHv37sXnnHPOZZ7n/fuUKVPuzGQyzzR4uAAAnBECB4BE833fDgwMzOjv73/fk08++bGnn356UTqdVlNTk4bXlhM1AOAFw4+JqVRK7e3tCoJAu3btuvzo0aOXn3POOd8/99xzv2qt3SSpt7EjBQDg9BA4ACRZJgiCix577LH/vnHjxnc557IdHR2EDQA4Rc45+b6v5uZmVSoVPfXUU+/q7++/7DWvec3/kfTPknqNMRwrCwBIBAIHgETyPM+X9LZ//ud//tTevXuX+L6fOX5TPQDA6Umn0/J9X4cPH557xx133DplypQFmUzmfxljdjV6bAAAnArb6AEAwOlwzimdTudKpdIn7rjjji/u2bNnRRzHI3EDAHDmhk6YsuVyuf3AgQMf+tGPfvSNAwcOXNfa2ko8BgCMeVwRAEiUVCo1tVAo/NeDBw9+7NChQ7PT6fTIJqIAgLNnrZW1VmEYtj755JPXViqV5mXLlk1ubW39bn9/P8tVAABjFoEDwJjnnFM2m1UqlVpYqVT+y5EjRz7U19c3JZvNyhjT6OEBwLiUSqUUx7G2b9++amBg4M8WLlzYPGnSpP+QVGj02AAAOBECB4AxyzknY4yampr03HPPXdjd3f371Wr1g4VCIZNKpWStZco0AIyS4bhsrdWBAwcWl0qlP165cqXS6fS3jDGVRo8PAICXInAAqKsoik7pzw3PzHDOad++fVPvueeeP3vmmWdubmpqku/7nJICAHUQx7GGg3J3d/e5W7du/dTChQs7m5ub77LWFnkcBgCMJQQOAHWVy+Ve9c/Ecaw4jmWMMUEQtHz5y1/+456enrdkMhllMhnCBgDUkXNOnucpnU7r6NGj5/3kJz/5wgc+8IHC5MmT72cmBwBgLDFcKACop7vvvvuk/z2dTuv555/Xs88+q2Kx2Lx169ZPbN269ZPVanWa53lsuAEADRTHsYIgCKdPn/70Jz7xid9Zvnz5Q8yow8lcfvnljR4CgAmEGRwA6iqfz5/0v6fTaWUyGeVyuVylUnn71q1bPxEEwXROSgGAxrPWKpVK+Xv37l38/e9//zNTpkz5b0uXLn2yt7eXyAEAaDgCB4C6erU9OMIwVCaTUU9Pz6r777//TwcGBmZms9k6jQ4A8Go8z1Mmk7GbNm269vvf//7HDx069Jetra2H0uk0kQMvc+mllzZ6CAAmEAIHgLo62ZNfz/PU1NSk3t7e+Y8++ujHt23bdmFzc/OYOQp2rIwDwMTW6IjgnFMmk1GhUPDvvvvu9zvn9l577bVf6+/vH2j02AAAExuBA0BdWWtP+PvGGBUKBVWr1daNGzf+5uOPP/72TCYjz/Ma8mTeGCPnnOI4Hrn/l/4TAOrJGDMSWod/PfyYWu/HJeecmpqa1NXVNWXnzp2/vWTJkufnz5//nVKpxGMkAKBhCBwA6uqV9tKw1mpgYMA89thjNzz00EO/EQRBU0tLS0OeKDvnFIah4jiu+30DwCt5pcdDz/NkrW3ILLO2tjbt2LHjvF/84hcff//73/+IpOdTqdRIJAYAoJ4IHADq6mRPeH3fn7thw4bf2LFjx8L29vaGvCI5/BYEgTKZjNrb29XU1CTf95VKpZRKpeT7PstVANTV0OklqlarCsNQ1WpV/f396unpkfTiJXT1enw6/vjYXbt2XXzXXXd95Nprr/385MmTI2stgQMAUHcEDgB19UpPvLPZrNauXfs7O3bseE06nVa9nhwPv8pYqVRUqVTk+76mTp2q5cuX68orr9SSJUs0ZcoUZTIZNTU1qampSel0msABoK6ccyoUCioUCioWiyoWi9q3b582btyoxx57TNu2bVNfX5+stcpms0qlUnV5DHXOKZ1Oq1QqTdq1a9dbrrvuurucc+udc+Go3zkAAC9B4ABQV8OvNg4zxiiOY23YsOG1Dz744Fv7+/vb8/n8qD8xHw4b/f39KhQKmjlzpm644QZdffXVWrp0qWbNmqXW1lblcrmRGRtEDQCN1NzcLEkj+wMtW7ZM11xzjXp6evTss89q06ZNuvvuu/XYY4+pUqmora1N6XR61MdlrZXneaazs/PCe++997ff/e53P2mt7Q+CYNTvGwCA4xE4ANRVuVx+0b8PxYPc/fff/8FDhw6dN7yWfLQCx3CkKJfL6unp0dSpU3XjjTfqxhtv1MqVKzVjxgw1NTWNyn0DQC0YY+R5nnK5nHK5nKZMmaKFCxdq1apVuv7663X//ffrJz/5iTZt2qT+/n61t7fL9/1Re1x1zimVSikMw6ZNmzbdsHr16iuXLVt2X3t7e/XVjgYHAKCWCBwA6qqjo2Pk18YYRVHkP/fccyu3bdt2XRRF2XQ6PapxI45jDQwMyPM8XX/99brxxhu1Zs0aLVq0aFTuEwDqZfLkyZo8ebIWLVqkVatWae3atbr33nu1ZcsWpdNpZbNZSaNz4oq1VtZa9fX1TXv00UdvXrp06ebJkycfrlQqNb8vAABeCYEDQF1Nnjx55NfpdFpHjx5tXbdu3ft6enpmDT9BHo0n38YYVatVVSoVdXR06Prrr9dv/dZv6dJLL635fQFAI+Xzea1Zs0ZXXHGFVq9era9//et65JFHNDAwoKamplE54cQ5N7xUxT322GM3vOlNb/pWOp0+OjAwELO8DwBQLwQOAHV19OhRSYNPhnO5nD148OB5v/rVr24yxljP80YtbgRBoDAMNW/ePL33ve/Vxz72MU2aNKnm9wUAY0UqldKb3/xmTZkyRV/60pf0wAMPqFQqKZfLjcr9GWOUSqXMsWPHpj366KNvLhaLW4wxRzhyGwBQLwQOAHW1fv36kV97nte2f//+Nx47dmxuNpsdtU08oyhSuVzWokWL9IlPfELvfe97R+V+AGAsWrVqlf7qr/5KX/rSl3TbbbepVCppNDdzzmazWrdu3fWzZ8++bdmyZUeKxeKo3A8AAC9F4ABQV6tWrZIk5XI57dixY9qdd9559WiemGKMUWdnpxYtWqRPfvKTuummm0btvgBgrJo/f76+8IUvqLm5WX/7t387cpzsaO3H0d3dfVGlUllqrV1Xj+NqAQCQJNvoAQCYWJqbm9Xc3Kz29nZVq9VFO3bsuDaVSo3KfVlrdezYMc2cOVO//du/rV//9V/XaN0XAIxl1lpNmjRJH//4x3XzzTfr2LFjGq1jXFOplHp7e/3nn3/+ip6envme543K/QAA8FLM4ABQVw888ICcc5o0adK0bdu2renp6Wk6/mSVWhoYGFA2m9XHPvYxvfvd71Y+nx+V+wGApFi4cKF+53d+R52dnVq7dq1aWlpqvjzQGKNMJqMtW7asWbBgwcWXXHLJnlKpVNP7AADgRAgcAOpq+InvM888c8EjjzxyTSqVGpUd/eM4VhiG+tCHPqQPfehDGq2IAgBJs3LlSn3yk5/UgQMHtHv3bvm+L9/3a/Y4PLSJtA4ePLhg//79l1100UV3Hjt2rMppKgCA0UbgAFBXS5YsUWtrqw4ePLhgz549F2YymZrGDWOMoihStVrVokWL9JGPfEQzZ86s2e0DQNIZY3TVVVfp/e9/v7785S+rUqmo1stIho78ts8///yy3bt3z540adJzURTV9D4AAHgpAgeAutq7d6+am5v9vr6+8zzPa6318YHOOUVRJN/39a53vUsLFiyo6e0DwHjgeZ5uuukm/fSnP9XmzZsVhqFSqVTNgrMxRsYYPf/883OOHj268Oqrr36O01QAAKONwAGgru6++26lUqnZe/fuvSiOY/l+7R6GjDEKgkDGGF144YW66aab1NLSUrPbB4DxwhijOXPm6K1vfat2796tY8eO1XQT5uHHY8/zpnuet7Cvr+8X7MMBABhtBA4AdXXhhRcqiqJZ+/fvnzYwMKBJkybVdIlKtVpVe3u7brrpJpamAMBJGGP0tre9TXfddZc6OzsVBEHNZnE455TNZlWpVGZv3Ljx0oMHD4olKhPTO9/5zkYPAcAEQuAAUFf5fD53+PDhxYVCYX6tj2wNw1DOOc2ePVvXX3+9MplMTW8fAMYTY4xmzZqlVatWacuWLerr66vpLI5UKqXu7m4zf/78addff312YGCgXLMbBwDgBAgcAOrq/vvvb69Wq+cVi8XptdxgdHg6dCaT0eLFi3XeeefJWluT2waA8coYoyuuuEJ33nmnjh49WtNlfcYYhWEoY0xHR0fHTM/znqvZjQMAcAIEDgD1lu/p6ZnU39+fq/X+G+VyWfPmzdNVV11V0709AGA8W7VqlRYuXKgtW7YojmPV8jjXVCqlcrnctm3btgWlUonAkTClUkmVSmXk38/ke+P9739/LYcEACfFFQCAurr22mvb165d27537141NTXV7HbjOFYcx5o3b56uvPLKmt0uAIx3HR0dWrFihR544AEVCgU1NTXVbB+OdDqt/v7+lo0bN55TrVZrMFrU2vBMmyAI5Pu+4jiWtVbGGC1YsEBz5szR8Iln7KMCYKwjcACoq8mTJy/I5XLTpMEnv7V6pbBarSqXy2nhwoUcDQsAp2n58uWaP3++1q9fX9P47Pu+isVi09NPPz0zCIKa3S5qw1qrOI7V2tqqjo4O9fT0KJPJqFgsqlAo6PWvf71uvvlmVSoVGWPESTgAxjoCB4C62r59+6ze3t4pnufV7DaH999oaWnRrFmz2HsDAE7TtGnTNHXq1FF5hT4Mw1QQBK3pdLrmt42zE4ah+vv7tXr1ar31rW/Vvffeq/POO0+bN2/W9u3bVa1WNTAwoOHZN5VKpaYnnwFArRE4ANRVuVxOh2Foa7nGWxpcouJ5nrLZbE1vFwAmgnw+r5aWlpElCrV4jDbGqFKpKJvNmssuu8x+7GMfUxiGNRgtaiGTyei+++7TM888o8WLF6u/v19RFI2cSAYASUTgAFBX5XI5E0WRNxqBw/d9AgcAnIGmpia1tLTI87yRYFwLxhg553KSpre3tysIAi6eG8wYo3Q6rebmZjU1NSmVSsn3/ZGvi3OOrxGAxCJwAKirYrGYDcNwVAJHKpVSLper6e0CwETQ3NystrY2eZ5X04vbocf6VLFYbDtw4IAXhiG7VDaIc24kZKxfv149PT2KokiZTKbmp+cAQKMQOADUValUykRR5BtjavpkihkcAHDm8vm8WltbR5ao1MrQ47wplUrZ/fv3Z6MoKtTsxvGqhqOG7/syxmhgYEB79uzRrl27tG/fPp133nmaPHlyo4cJADVD4ABQV2EY+nEc1/RloqEp0LLW1mxaNQBMJNZaZTKZmr+KPxyzwzD0C4VCOoqioiTWP9RBHMfKZDI6duyYjh07pvb2dmUyGW3btk2tra0je66wHAXAeELgAAAAwGhf6DpjjGMZRH0YY5RKpVQqlbRnzx5t3rxZCxYs0NVXX81MRwDjGoEDQF0ZY3ipCAAmoFovTcSJDYeqyZMn66c//anK5bJaWlqUTqeZrQFg3LONHgAAAACAMzccLjzPUxiGOnLkyMhpONbydB/AxMEMDgAAACChnHPKZDI6cuSI9uzZI+ec5syZ0+hhAUBDEDgAAACAhPI8T8eOHVNnZ6cKhYKccywFAjBhMWcNAAAASJDhJSnZbFae56lQKKhSqSiVSnGaGIAJjcABAAAAJEQcx5Ik3/f1zDPPjIQNZm0AAIEDAAAAGPOcc3LOKZvNKpvNavfu3brvvvtUKBSYtQEAQwgcAAAAwBg2vK9GEASaPn26Jk+erO9973ssSQGAlyBwAAAAAGOc7/sqFovq6emRMUapVKrRQwKAMYfAAQAAAIxBw8tSOjo6tGnTJm3btk3pdLrRwwKAMYvAAQAAAIwxzjlZa9XR0aEf//jHeuyxxxTHMUtSAOAkCBwAAADAGOKck+/7cs7p9ttv14MPPqhisahMJjNyRCwA4OUIHAAAAMAYYq1VGIbau3ev7rjjDgVBoGw2S9wAgFfhN3oAAAAAAF44LcXzPBWLRe3cuVPNzc0j/w0AcHLM4AAAAAAabDhuxHEsY4zS6bRSqZSMMY0eGgAkBjM4AAAAgDHAGKMgCJitAQBniBkcAAAAQIMMHwVrrVWlUlG1WmXWBgCcIWZwAAAAAA0wvCzFGDMSN5i9AQBnjhkcAAAAQJ0Nxw1JL4obzN4AgDNH4AAAAADq6PiQEQSBKpWKJBE3AOAsETgAAACAOnlp3CiXy4QNAKgRAgcAAABQB8QNABhdBA4AAACgTowxqlarxA0AGAWcogIAAACMouGTUTgKFgBGFzM4AAAAgFEyvCzl+LjBUbAAMDoIHAAAAMAo4ChYAKgvAgcAAABQYxwFCwD1R+AAAAAAaojTUgCgMQgcAAAAQI0QNwCgcQgcAAAAQA1xFCwANAbHxAIAAABniaNgAaDxmMEBAAAAnAWOggWAsYHAAQAAAJwhjoIFgLGDwAEAAACcAY6CBYCxhcABAAAAnCZOSwGAsYfAAQAAAJyGl8aNUqlE3ACAMYDAAQAAAJym44+CtZan1AAwFvBoDAAAAJwi5xxHwQLAGEXgAAAAAF7F8LGvHAULAGMXgQMAAAA4CY6CBYBkIHAAAAAAr4CjYAEgOQgcAAAAwAlwFCwAJIvf6AEAAGrPOcfacOAUcQIGTuRER8HyvQIAYxuBAwDGGeecyuWyCoWC4jjm1UbgBIYDoO/7am9v58IVJ2SMUaVSUaVS4XsEABKAwAEA41Acx6pWq4qiiCflwAkMBw5mOuFEOAoWAJKJwAEAEwAXccALjr9Y5WcDxxtelvLSo2AJHACQDAQOABjHhp+U8+QceDFjDBeueBGOggWA5GPeMgAAACY0joIFgPGBwAEAAIAJi6NgAWD8IHAAAABgQjrRUbDEDQBILgIHAAAAJixjjKrVqsrlMqdOAUDC8SgOAACACYejYAFg/CFwAAAAYMIYPhr4pUfBAgCSj8ABAACACYGjYAFgfCNwAAAAYNzjKFgAGP8IHAAAABjXOAoWACYGAgcAAADGLY6CBYCJg8ABAACAcY2jYAFgYuARHgAAAOMSR8ECwMRC4AAAAMC4wlGwADAxETgAAAAwbnAULABMXAQOAAAAjAvHh4xqtcpRsAAwwRA4AAAAkHgvPS2lUqkQNgBggiFwAAAAINE4ChYAIBE4AADABMSGk+MPR8ECAPxGDwAAUHvOOcVxrCiKZK3lYg54BXEc8/ORcBwFCwAYRuAAgHHGGKNUKqXW1lbFccyTfeAkrLW82p9Qw8tSXnoULI95ADBxETgAYBxKp9NKpVKNHgaQCFwQJw9HwQIAToTAAQDjkDGGJ/oAxqUTHQXLYx4AQGKTUQAAACQER8ECAE6GwAEAAIAxj6NgAQCvhsABAACAROAoWADAyfA3AwAAAMY0joIFAJwKAgcAAADGJOecJL3sKFgAAE6EwAEAAIAxh6NgAQCni8ABAACAMeVER8FKIm4AAE6KwAEAAIAxg6NgAQBnisABAACAMYGjYAEAZ4PAAQAAgDGDo2ABAGeKvzUAAADQcBwFCwA4WwQOAAAANAxHwQIAaoXAAQAAgIbgKFgAQC0ROAAAAFB3HAULAKg1AgcAAADqiqNgAQCjgcABAACAuuEoWADAaCFwAAAAoK44ChYAMBr4GwUAAAB1w1GwAIDR4jd6AAAAABjfnHOqVCrGWqsgCBQEQaOHBAAYh5jBAQAAAOVyOTnn5Jyr6e3Gcax0Oh3Mnj27O45jFwRBze8DAACJGRwAAGACi+NY5XJZ5XJZQRAoiqIXvU2EC3FrrZxzOnTokKy1NdsTY3gz0aHPcYukC9PpdNmwLuWk4jg2+Xw+ds5VU6lUeeh70BhjAt/3S9lsNkyn040eJgCMSQQOAAAwIVQqFfX396u3t1eFQkE9PT06evSojh07pmPHjqlQKKharSoMw5F/xnH8olM/xqPhoLFz506lUqmafqye5ymOYx04cGDh7bff/pm2trYB55xxzo3fT+hZcs6ZbDYbSSocPXq0d+jrY4IgKPX09BzdtWvXgXQ6fdjzvIIxpuL7fl8URX2e54Xj+fsUAE4FgQMAAIxLQRCoUqmoVCrpyJEj2rVrlzZt2qRNmzZp7969KpVKKhQKKhQKKhaLCsNQxpiXvY13w7NUmpqa1NTU9KLfO1vGGPm+r66uruk/+tGP3h9F0YT4nJ6tOI4lvfA1cc6pr69PW7Zs0Y4dO/p93+/0PG9fGIaHenp6Hq9Wq4+XSqW9URR1GmN6jTEVY0wg1e5rCQBJQOAAAADjzsDAgJ544gmtW7dOGzdu1O7du3XgwAFVKhVJGokX1lpls1nl83kuvDU6F8POOfm+r46Ojprf9kQw/DWJokiFQkH9/f0tcRw3+74/v7u72/3jP/7j2yVVp0yZ0jl79uytM2bMeEDSA8aYxyQVGjl2AKg3AgcAABgXoijShg0b9OCDD2r9+vXasWOHent7VS6XJQ1GjeElGMMxY6LM0kDyDQe5oT1ThrcyMUPfw7murq45XV1d07Zv37768ccf/3hHR8e2KVOm3NvW1nZXT0/P5kaPHwDqgcABAAAS7dChQ3rwwQe1bt06bdq0SQcOHFChUBhZcuJ5nnzfl7V2JGYwbR9JdHyYG+Z5nqTBZS1RFKXDMExXKpX2I0eOzHn++edXtLa2vj2VSj10/vnn/6Spqek+vvcBjGcEDgAAkEg7duzQfffdp4cfflhbtmzR/v37VSwW5fv+y5adDF/UcXGH8cpaK8/zRo76jePY9vX1TR8YGJiezWaXbdiw4Zpjx4490tLS8gtjzAPGmP5GjxkAao3AAQAAEmXfvn169NFHdfvtt+v+++/X4cOH5Xme8vm8Ojo6Ro49HX4DJorh7/fjZy7Fcaxqtdq0bdu21bt27Vq9ZMmSa33fv90Y84tMJvO453l9DR42ANQMgQMAxqEoikaOt0QyDJ82wX4Qr6y3t1dbtmzRj3/8Y91+++3as2ePcrmcpkyZ8tJXrhs9VGBMGD7iOJVKKZVKKQgCbdiw4eJ8Pn/x7Nmz39TS0vKDadOm/SyTyTzjeV650eMFgLNF4ACAccY5p0qlor6+PsVxzAVzAkRRpEwmo7a2NqXT6UYPZ8yJokhHjx7VD3/4Q/3DP/yDnn32WaXTaU2bNm1ktgZRA3hlw7Hb9321tbXJOac9e/Zctnfv3suWL1/+5nPOOef/pNPpXxhjBho8VAA4KwQOABiH4jge3nCOwJEAURQpiiJm3LyCp556Sn/zN3+jO++8U9VqVe3t7bLWSmJPDeBMGGOUy+UUx7E2bdr02n379l2wYsWKr0+fPv1vjDE9jR4fAJwpAgcAjEPHRw0Cx9g3fFQpX6uXu/322/W///f/1pNPPinf95XJZEbiBoCzY61VNps1PT09sx555JFPLFy4cNF55533Nc/zHiIeAkgiAgcAjGNcMCOp+vr69M1vflPf+ta39Oyzz8r3faVSKRljmLUB1NDwMbOVSmXqjh073v6d73xn8dy5c/9PLpf7ljEmavDwAOC0EDgAAMCYsmvXLn3jG9/Q9773PR06dEgtLS3KZDJsnAuMAuecPM+TtVbVajW3bdu2lb29vX8qaWYmk/nHpqamo+VymZlTABKBwAEAAMaM9evX6xvf+IZuu+02FQoFdXR0jBx1CWB0DIfDdDotz/N06NChhc65P9y4ceOkFStWfG3hwoW7ent7GzxKAHh1BA4AANBwURRp48aN+sxnPqN169Ypk8loypQpkkTcAOrEOSdrrXK5nMrlcvsdd9zx+8655k9+8pN/MWnSpH3VarXRQwSAkyJwAACAhoqiSFu2bNFf/MVf6KGHHlJbW5tSqRTLUYAGampqUm9vr37yk5982BijP/zDP/yUMabv+D/jnGOvJwBjCovpAABAQ+3YsUNf+cpXtHbt2pElKcQNoLGiKFJLS4uMMZl77rnnvV/96lf/NAzD7PCmpAAwFjGDAwAANMzevXv19a9/XXfccYeam5vZyBAYQ5xzyuVyCsOw46677vrNQqFw4Pzzz/+6MaYyb948zZ07V0EQNHqYADCCwAEAABrCOafvf//7+tGPfiRJymQyzNwAxhhrrXzf18DAwLT777//k9OmTdubTqdvLxaLQRRFBA4AYwovkwAAgIa47bbb9O1vf1udnZ1qbW0lbgBj0PA+G+l0WgMDAwvWr19/a7FYXNXc1CRpMICc7A0A6okZHAAAoO4ef/xxfe1rX9P27dvV1tYmY8zYCRzsmYixZKz8WBijTCajzZs3rzDGfHzx4sV7c7ncviiKFEVRo4cHAJIIHAAAoM56enr0t3/7t9q8ebPS6bSy2WxjL5CcJOeG/nnc742VK0tMTMOnkwwHNzP0ew0McL7vK51Oa/Pmze9eunTpzrlz5/6fSqXSn8/nx06gBDChETgAAEDdDAwM6Lvf/a7Wrl0rafAoyobEjeOjhiTjNHQBqRcuJJnKgUYajmzD3SCWnNyLv0fr/C3qnFM2m1WpVGp69NFHP5jJZJ5euHDhDxcvXhyHYVjfwQDACRA4AABAXTjntHXrVv393/+9CoWC0ul0Y5amOElhLIVOnmek1pTCVl8u78vmPGnozWQ9yWceB+rJDLa1IJYrRlI5kivFcuVIKoXye0OZ3kBR5KS0lbzGRI62tjY988wzFzY3N//G8uXLNzjndtd3FABwYgQOAABQF/v379c3vvEN7dmzR9lsVp7n1SduGA1WimosU47keVZmakbRuU0qnd+s6IJmFebkFGTt4LWiNUNvYhIHGsNJioZmb8ROsSS/Giu3r6zs1j6ln+6X/3xJ8dGK4tjJZe1g8Bh+31FmrZXnedq5c+frHn744f9y4YUXfqpQKLBMBUDDETgAAMCoc85p48aNuvPOO+V5Xn1OVzCSYknFSF45kmlJKVo9SYVLO1Q5t0nh1LSqHWnFGas4ZeWGQ8gLo2b6BhrDjPzfyL/HTgqmZ1VY3KxUd6DU4YqyuwrK/qpL3rZ+xZ1VxcMzkF72vVxbzjnlcjn19/e3bty48c1XXXXVf0ybNu1xay2RA0BDETgAAMCoe/7553X77bfr6NGjmjZt2uje2fB1YSWWrcSyHWkFqzpUvrRdpYvbVZ2bU5jz5MzgNhwKYtlqLDt0YcblGcaa4V4Rpayi9rSCSWmZc/IqLW1VZkWb8o/3KrOhW/7T/Yr7AkVNvoxvRvWb2Vor3/d16NCh8+69995bPvCBDzwVRVEQhqGMYeoTgMYgcAAAgFEVx7HWrVune+65R01NTaO778bQrA1TimTTVtHKdhVeM1nl5W0qLWhSkPOkaiRbjmRiJ+uOe7+X/xIYM4wkrxpL1XgwznlG5SZPlZXtKl/QrNwl7co92qXMI13ydw4oiszgspVRms3hnFMmk1EQBE0bNmx467XXXvv/LViwYJPv+1Ecx7W/QwA4BQQOAAAwqvbv36+1a9fq4MGDmjFjxujGjcjJVGKZZl/B6kkqvG2mele0KTKSKUbyeqovnJgiUTOQLMedHGsiJ1uM5EqRKhlPlZVtKi5uUcuFLWr59j7Zp/vlKrFc2g7uJzMKP3bWWhlj1NnZOe/+++9//+LFi5+dNm1ad7Varf2dAcApIHAAwDjmnGvMKRU4ZRNhKvcvf/lLrV+/XplMZnS/H50Gl6W0+Kq8eYa63zVbxRkZ2b5QfjR8HqyIGhg/hg5R8cuDJ64EWU/dl09S1JFWy3/slbexW2Y4cozC971zTp7nKY5ju379+pve9a53/Utzc3NPqVTiLx0ADUHgAIBxaPgCcvjieSJcRCfVRPjabN68Wfv27VNzc/PoxrZiJL/FV/F9c9X9lpkq5z15PcHL9msExp2h72+vHMl5Rn3nNan0389X27f3qumnh2T6Q8VN3mjO4rBHjx49d8OGDVfv379/V7VaLQz/90suuaT2dwoAr4DAAQDjjDFG6XRa7e3tIzM4MLY550Y27BtvnnjiCW3ZskXlclnNzc21v4Ph/QUqsVK+GYwbN8xQJefJK0Z0DUwsRjKxk4JYQd5T14fmyeQ8Nf1gv0xXVXF7anCJ1igIw1CbN29+red5P29tbd0VhuHo3BEAnMT4eyYFAFAqlVIqlWr0MHCaxmOMevjhh/XMM88olUrVfnnK8IailUieMSq9Y7a6Xz9VlVZfpjS4iSiFAxPRcOSIcp663z5LJpaafrBf6g3k2vxRmcnh+7527NjxxoULF/7rpEmTCBwAGoLAAQDj0Hi8UEbylEolbdy4UceOHVMul6v9HTjJBLFM3lf5+unqummWKlPSgyeoRMQNTGwmcrKFUNX2lHrfNlN+GCv7wwMKyrGUsbW9r6GZg/v27ZtSqVQuttbeX61WS9bW9n4A4NXwqAMAAEbFjh07tGPHDlWrVaXT6drP3qjEMr5ReMUkdd48V+XpGZlqTNwApMHlKk7yegOVp2fUe+NMBWsmywbxqO3FEQSBnn/++ctKpdL8yZMnq6WlpfZ3BAAnQeAAAACj4tFHH9Xhw4dlrVXNX8mNJRvEcrPzKtw4U+XpGdlSJBMSN4ARQ5FD/aGK0zPqv3667IysFNY+cjjn1NTUpK1bty7r7u4+Z/78+Zo+fXpt7wQAXgWBAwAA1FwURdqwYYMKhYIymcwozN6IZJp9BZe2a2BJi2xfILHnBvByRrLVWM45Fc/JK7h68uAyxrj20zistRoYGJjR09Mzq1gsmkKh8OrvBAA1ROAAAAA15ZzTvn37tHPnTlWrVaVSqdoGjliyVafo/GYV10xR4BuZyNE2gFdgJKkSK2zyNfC6qTIzs4O/V+PIYYyR53mtBw4cWL5hw4bmzZs31/T2AeDVEDgAAEBNBUGgXbt2qaenZ+QI3FpylUi2LaXqJR0qXNgsU4qJG8DJmMFNR52RCvPzCldPkjwjBbWd9eT7vgqFgo4dOza3s7Nz+rFjx2p34wBwCggcAACgpqIo0uHDh9XX1yfnXG1P9TGSLUWK5uRUXtyiIOfJhHHtbh8Yp4yTnJPCjFVpZZtMW0o2dnI1/PExxqhUKimVSnXMnj170rx582p34wBwCggcAACgpuI41pEjR1QulyXV9thiFzl5xig8v1mVc/JyQTy4iSKAkxuexRE7FS9oUTQrK9nB5V21nMXheZ6KxeLMOI7nT58+3avdLQPAq/MbPQAAADC+hGGoAwcOKI7jmi9PMYGTOlKqXNis6uS0TDlmY1HgVDknExlVOlIKFrfK21mQ6QvkUrXpEM455fN5dXd3z9q0adOFkyZNapfUWZMbB4BTQOAAAAA1FQSBjhw5ImPMKASOWNH5zarMyytKW9mBkMABnCKjwdNhY0nlle1KPdIpr7Mip9pNtEilUioWi63PPPPM7HQ63S4CB4A6YokKAACoqSAINDAwIKm2y1MkDZ76MDunuD0lF3JyCnAmTOg0MC+nsCM9+DNUw2Ve1loVi0W1trbmL7/88nTtbhkAXh2BAwAA1FQcxwrDcNRu32Xs4AkQtTx6FphInJO1RrbJl0lZuah2P0vOOVUqFS1YsCD9jne8I1uzGwaAU0DgAAAANRVFkYIgkFT7GRzGSS7nyfmmpq86AxOGG3pLWZlmT0rZwZlRNWStVblcnnr48OGpNb1hAHgVBA4AAFBTcRyrWq2O/Lur5UwLJwU5T3HayjCDAzgDbjBopIxcsy+ljFTjk1SstSqVSvkjR4501O5WAeDVETgAAEBNRVE0EjhqvgeHk6o5qzBlOR4WOFNOcimruNmXS1mZqLY3b61VtVpN9fT0tNT2lgHg5AgcAACgppxziuN4VG7bSAo9q9iKJSrAWXCeUZyycrb2+9kYYxRFkVepVNhkFEBdETgAAEDCOOIGcLace+Gt1hOthoKJMcyzAlBfBA4AAJAoHA0LjH01X54GAKeAwAEAAAAAABKPwAEAAAAAABKPwAEAAAAAABKPwAEAAAAAABKPwAEAAAAAABKPwAEAAAAAABKPwAEAAAAAABKPwAEAAAAAABKPwAEAAAAAABKPwAEAAAAAABKPwAEAAAAAABLPb/QAAAC1V61WFQRBo4eBU+Sck+d5SqfT8jyv0cMBAABIJAIHAIwzzjlVq1X19fUpjmMZYxo9JLyKKIqUyWTU0dFB4AAAADhDBA4AGIeMMXLOKY5jWctqxLHOOTfyBgAAgDND4ACAccoYI2stMzgSwBgz8gYAAIAzw8t6AAAAAAAg8QgcAAAAAAAg8QgcAAAAAAAg8QgcAAAAAAAg8dhkFAAAAGfo1TbG5WQgAED9EDgAAADO0qlexjfynJxajtGd4Fdnc3tn6nTySVJSDGcpAcCZI3AAAACcBScplpNzJ7tENrLGyMioUZfSrz5GyYyM8+ScJOdiuZN+LE5WVsZ4Go2P2UmKnDul27bGvurn3kmKXVyr4Z2RwXECAM4UgQMAAOCMGIUukqKC5Jxk0zrZBXQsKbYZ+cYb+p36hA4noygqDY7AeLKycnIjF9JOGrn4j12kSJLn5Yf++/FjHPydwY+5KM9mlbGpoT/14o/FyMjJqRSHil0s36YH778mjGLFiqOK5EJp5PN54j8rYxQ7I2dS8ozVSz/vTlZRXJHiqmQauD2dc4qNVWzT8o0vp5jYAQCnicABAABwBiIXypP0xo7VekPrRWq1GVVd9OI1Bk5KGU9lV9WvBp7Vt7vXK3KnNkvi7A1Ghigq67zsDL1r0mVakpurUPHLZipYGfnG0/OVo/pRz0ZtLOyWtWnZ42Y9DM6YiGQkvWPya3RD+8WakmpV5GLFLwkmVkZNXlb/2b1B/3RkrSpxSZ7N6uyjjlHkIjnFWpyfp49Ofa0yxpOTkxssNS8MQlLa+vJNSn9/dK0e7X9akc28JHIYRVFRk1Ntekv7Sl3VvFAVF9R9jo2RlDVpfa97ve7t26oorsh7lWAGAHg5AgcAAMBpGL7kdHFVN7Rfov8x++1a1Xy+0sYqOsEFqSej0MVaU9qnvqike/q2qupiecbX6F3ADsaN2MVq8tL65Ixf03umvkbT/DZFgzngZTM4PBn1REVdkJ+rTzz3DR2NSoqNkR06dC92odKyuqL5PP3J3HdrWX6eUjYjKX75h2EkyerC3FwVo4r+5dBPFKVS8s5y9oqT5OKyzsvN0admvVXvnny1rHn5XJNhnqyssSq5qg5Ujmpf9ZjkNY0MMooD+cbTB6as0Sdm3qhzMpMVuOiMxnY2jCTfeJqZnabusF/r+7bJ2TQzOADgNBE4AAAATlM8eKmt17Yu0tUti5Tysif982lJFzcv1HVty/Rg/3ZV4mDUd5N0zkku0qT0FL254xJNT0+RdPInfx22Tde2LtW56SnqLD2v0EnWDN9erLT1tCw3W5c0L9QLH4B9xY/lnNws/c6MG7SpuFub+3coTjWPBJMz/KikONL8zFS9pWOV8n7Tq7+LpMubF+q8zBTtKx+UjlvR4lyglJfXFS0XaGFulqTGPjl+Y9vF+mn3Bq3v26bYRUOzTQAAp4pHTQAAgDNi5Rl/cFnKKajEgVr85hct+xh9TmmTUvU07q8YV5XzTjx7wEmqulADUemUb++SlvN165z3aGZmsuI4VKxYZ1p3nAbf1co7rR0qrKx8c6J0MbjxayGqnNF4ai1jfbV7ecmm5dyZf54AYKIicAAAAJyhwA1fsJ+qel+wGoUuVDWunvJ7RIoVuvgVk4g77v9PRcr4+rVJl+n/mnmjWm1KcRwObUp6pp8LMzTG8JTfI3CRwlc8IcW9ymkw9RPGoSou0OCGsMQNADhdBA4AAIAzdnoXoY27kD71cZ7anzy9jztnM/r4zBt1ZetSpYb2vjgbp3vpP3xAbzIYMXMDAM4MgQMAAACjrtVv0pfn/4ZW5udJcTB43CwX8gCAGiJwAAAAYNRZGS1pWqBPzXmn5mWnSkEvyzAAADVF4AAAAECdGP3apNW6Zerr1Oo3Kwz6JU4KGWGMGdqEVqrfRrQAMH7wNwoAjGPO8QQZwNiStRl9ZPqbdNOU10guUhxVxFKVQUZOkYsklu8AwBlp5FHfAIBR4pwbiRtEjrFv+OvF1woTxTnZ6frdmb+uHeWDeqR3i4xNcTkv6VC1W/sqxyQXyxgrZnEAwOkhcADAOGStVSqVUhzHMqxxH/OstfJ9X9YysRITx+qWRfofs96u3ykf0rGwX57NDJ11MrYv6mMXqzfsV+BCmVpOhjZWP+5ar43F3ZJNyYrAAQCni8ABAOOMMUbpdFodHR1yzhE4EmD46+T7/LWMieWN7cv1x7Pept/f803FLpY1dszP5AhdoK8f+LE2FnbJGStPns4uRBhZM3iU7f0DO3Ww2i3Py435zwMAjEU8kwKAcYgLZQBJ0Oo36+1T1mht/3bd0fkrRV5avklpLM9csDJ6vLhXP+15XLGcZFI1uV0jKZDk2VQiZrIAwFjEM2AAAAA0hJHR/Ox0/fnc92lf+bAeL+1VJCPP+BrbF/hOZefk5CTjVKuxWuMNnaIylj92ABi7WOwLAACAhrEyWtl8vv583s2akeqQi0qDMyPG8CKNlPHkW1+yKfnGl29SNXlj3w0AODsEDgAAADTcWyZfpd+a9ga1+s2KwwGN5cDhXvYrV8M3AMCZInAAAABgTPjEzF/X2yddrpzxFMVljd3I8UKMGFqoQtoAgDGAPTgAAAAwJkxPT9Lvzfx17asc1T09j8nZ9JjccDNysUIXDf66hstKjMzQSTJj72MGgCQgcAAAAGDMWNWySB+c/iY9Vtyr7rBXvtfU6CG9TMr4ypi0Ajn5thanvhjFLlbkQo73BoCzQOAAAADAmPLuyVfoQOWQ/mTPtxS6UJ7xxsysBs+m9Jn5H9TvzX7H4FaoNYgRRkZhXNG/HblP3+5cp+5wQL6X01j4eAEgSQgcAAAAGBWVuCrnYmW97Gm9X97L6b1TXqutpf36t0M/U5yaJG+MzGowMlqYm62FNb9lpyab1nOVQ7qz61eKvSyb5QHAaeJxEwAAAKMidKEe7t2i7xz+xWm/77m5WfrEzLdoZctiubisyEVjZhbH6DBamp+nRbnZkvEVu0hjd5NVABibCBwAAAAYFSnjaUtxj/7qwG16rP/p037/Vc3n60/nvkez0x1ycXXkon+8Jg5PRhmTkoyn8RtyAGD0EDgAAAAwKtI2LWN9PV7Yo/+5/0faXzl6Wu9vjdU7J79GH53+JnX4ebm4Imn8zmsIXaxQ8dC/jdePEgBGD4EDAAAAo8PFarIZyVj9oOuX+pdDd+pY0HN6t2Gsfn/2O3RD+6XKGF+Kq6MyVABA8hE4AAAAMGqMJM94qrpIXzhwm9b2bB5aanLqmr2c/nT2O3R58/lSVFLsWL4BAHg5AgcAAABGlzGSSakclfT3h36mrYXnTvsmLmw6R++f9nplM9PUF/TI8DQWAPAS/M0AAACAUTQ028IYGS+nh3q36CsHfqxdpQOndSue8fTeKWv0kelvVIuX1UBcGoWxNpY1Rt7I03NmqQDA6SJwAAAAYBQNb5bpZI2vsjH6wbEH9J1jD0guPK1b6vCb9F9m3KCPTr9OYXx675sEVlaxYokjYgHgjPiNHgAAAAAmCifrNakv6NE/HVmrxdlZumnqNad1C0ubztXC7EyVxuFmo7srR7SzdFBykSxHxQLAaSNwAAAAoG6sJJdq087iHn3xwI80NztNl7YsOq3byHo5Zb3c6AzwVTg5PVc+pK6woFiSlTnrDGEkhXFV/9n1Sz1a2CVjUrIyInAAwOkhcAAAAKCOnDxZhV5GvxrYqS/s+77+9fz/pla/qdEDOyVxHOj/2f9D/bTnCVUlpawvdxYhwgz9fyEs6mjYq0iS5zeJuAEAp4/AAQAAgDqL5dmsorisB/u26u8O/Kd+d847lLeZRg/sVTk57a0c1c7S3sHfMDV6Om2sZHx5xrL7BgCcIQIHAAAA6s5Isjatrqikrxz6mc7NzdaNk69QxqYbPbRXYZQ1afk2o1CSZ1Oq3WyLFzZkBQCcPk5RAQAAQAM4WVnJeDoU9OrLB36sPeWDjR7UKbHGyBgrGSsjIyNbozfOTgGAs0HgAAAAqDtz3D9r8ZY8w3MUrLGyNqVfDjytv9z3Pe1OSOQAAIw9LFEBAACok8jFilwouVChq9UxoEae8YYyR3KWNgyP18jIGE+h8fRvR+7RwuwMfXL2O9Ti5Rs8wlfiFLho8OsoKazZaSdmaP8NTk8BgDNF4AAAAKgnF0suGnyr0YVs5AIZk5ZnbM1us34Gx+vbnMKopH87slbnZ2frnVPXyK/VBp41ZeSck3PR0L/X6nPuFDkra/3BpTuJ+zoCQOONxb81AAAAxh3PWM3LTNEVLReqPw6UsamzuoQdXphSjqt6rnJEnVFZseKhi+MkimVS7Xq6tE9fO/RTzctM0ZVtyxo9qJexxmpZ03wdDvtUkVPG+GedIjxjVIgq2lU5oq6oJGdMQhceAUBjETgAAADqIGvTemP7JVqRP0duKES4s7g0NmZwW8qBqKQ7ujfpfx68XXurx2RsRkm9PPZkFPpNur/vKf3Pg7frX5vOUbPf0uhhvYg1vj45++362PQ3jQSls/o6Di1NCV2orx66U39/5F4dDXrlezkxiwMATg+BAwAAoE5SNqUZ2Wk1vc0pzumj2Rl6unxA/3JkrYpxVb7N1PQ+6sfJNymFpqpH+rbpHw79TP9tznsaPaiXafWb1eI31/x2f3fGDdpbOaZvHr1XoUvLN0mdjQMAjcGjJgAAQB2ZGv/PGqu8zWhmerKyNiW5UEk9WWWY5+V0OOjV3x3+ub539L5GD+cEav1VHPzfzPQkTU93SGZ4A9pkfx0BoN4IHAAAAOPA4OXweLggdjLyFFtfT5cP66/236YdxT2NHlRdxCNLUjhJBQDOBIEDAABgHIjlzmoviLEllmdSkk3pscJz+qt939fe8qFGD2rUxc69JHIAAE4HgQMAAGAcGE+Xw8OLMzzjS9bXPx25W/90+BfqDwcaPTQAwBhG4AAAAMAoOv1ZJWbo/QZPGPEk4+n/OXiH7up5TIELaz1AAMA4QeAAAAAY9xq5dOVs5pa4wZkcXl7dQZ++duAObezfPo6W4gAAaonAAQAAcIaGT78YC6zsCcbi5BlPvvFP45bMCW/phfs5nY93+PNzdp8jIyP5eT3Ut0VfP3SXDlSOntb7n3x3krHzNTTm+I1iiTgAcLoIHAAAAGfEKWt9pU8rHowmp0ixXhoTjKS8TZ/yrTR7WVmd+PLaSPIkZW3m1G7MWOVtSrGLT/n+T8zJM76qsvrP7g36ztH7T+u927y88jYlvWwcg+kjZ1NnOb4acU7VuCrFofSKXwUAwCshcAAAAJym4VfZH+zbrr2VIw0ejbSntF+P9G1VISrJ2LQkJ2OMZDwdrnbrsf5nTnBxf2JbC3v0TOWIYhlZ80IsMcZT2cXaWNyjbYXdp3Rbh6vH9HD/drm4KiPvDD6yFxhJ1m9Sd9Cnfzx8t7595J5Tft/His9pV7VTeknoMTatalTUxoGd6hsDG5huL+3TttI+SU7W8DQdAE7XWHnJAQAAIBGGL/mtTennfU9q0oHbdF3bcjV5WVnjybn6vOpuJMkYFaKS/rNrvR7sf1qBhk4eGXrl3xhPA3FZ//vQT7U/6NL52VmKXXzcUaTDt2XkG6sD1U79sGuD9gW9sjY1stmnJFljFTmnx0v79Wd7/0NrWhdrut8qySly7kULK1LGqqRYD/c/rbu6N8nYlKyxMmcxI8HJycrKeRltKx/UZ/Z9XzsqRzU/1S5rjE74aTfSnmq3bu/eoGcrx2S93Itu0RpfkQL9sOtR+cbTa9uWKG08xXX6Gg6zxqocB/p+58PaWNgj4+WGIhozOADgdBA4AAAATpORZExKvVFJf3f4Hv2w8xF1+M3yjFeD5RinOAYzeAlcjCraU+2UbEqezYxcFg/ufGEkm9bDfVv1WOE5zfRbZIx52QW8kZGV1BkV1BMOSF7+ZdN8zdCMjqqLdNuxB/Xj7vVqt1lZmZcFk5Sx6orKCuOKZHz5Xl7S2X1eBgNKLM+kFXmenint05/t+aba/WZ5Mi+69eNjS3fYP/g7Xm5oL5L4RX/OejntqRzWlw78p37Q+ZCyNqPYnXzXjloa/rwORCU9X+2RjJFvszrbzxcATEQEDgAAgDPi5NuMQhfpaFTS0XBAcu5s99M8A1bGZuUNLWlwcscNwQ1uGOo3qxwHeq7aqRfyx0s5yfiyftPQRqIvvcAfvF3feHKpdkUuVHdcfYXbc5KxMn6TPFnV9mI9licr5+UUOaeeODjJxyTJy8sz3kggefEoBz8/1ssrdJF2VY415mvoNPj5sunBY3GJGwBwRggcAAAAZ8zJN1YyaTWgbIyM4fh/vnwUQ2HC+jr1p34nm73wQuiQOZV9NUZjJsTwGIxkTmWD0BOP4fglOL6xkpfTWPk6AgBOH4EDAACgJrgwHR/4OgJAUrE9MwAAAAAASDwCBwAAAAAASDwCBwAAAAAASDwCBwAAAAAASDwCBwAAAAAASDwCBwAAAAAASDwCBwAAAAAASDwCBwAAAAAASDwCBwAAAAAASDwCBwAAAAAASDwCBwAAqKl8Pi9rrZxzjR4KAACYQPxGDwAAxoMoilQulxUEgaIo4sIOE1pXV5eiKJIxptFDAQAAEwiBAwDOkHNOcRyrXC7r2Wef1WOPPaa9e/eqp6dHlUpFzjku8DDhWGvV29urzs5OWctEUQAAUD8EDgA4Q8ViUT/72c/04x//WE899ZS6u7tHZm8wgwMTmTFG1loCHwAAqCsCBwCcge3bt+trX/ua7rrrLvX3949Mxx++oOPCDhPRcNgbDhwAAAD1ROAAgNN0//336+/+7u907733qlgsqqmpSZlMhgs64DjMYgIAAPVG4ACA07B27Vp96Utf0rp16+T7viZPnixJLEsBAAAAGozAAQCnIAxD3X///frsZz+rJ554QrlcTvl8XnEcN3poAAAAAETgAIBXVa1W9eCDD+rWW2/Vtm3b1NLSonQ6TdwAAAAAxhACBwCcRBzHWrdunT796U9r27ZtamtrkzGGuAEAAACMMeyIBwAn8Ytf/EK33nqrtm/frtbWVk5HAQAAAMYoAgcAvIK77rpLX/ziF7VlyxY1NTXJ87xGDwkAAADAKyBwAMAJ3HPPPfrKV76ijRs3Kp/PK51Oc0oKAAAAMIaxBwcAvMS9996rL37xi3r00UeVzWaVy+XYcwMAAAAY4wgcADAkDEPdd999+uxnP6snn3xSuVyOuAEAAAAkBIEDAPTCUbCf/vSntX37djU3N3MULDBGsVgMAACcCIEDwIQXRZEefvhh/dmf/Zm2b9+utrY2WWuJG8AYZZ1kROgAAAAvRuAAMOHdd999+sIXvqCtW7eOHAXLhqLA2OSMlK7E8kKnKNPo0QAAgLGEU1QATGh33323vvjFL2rTpk3K5/McBQuMdUZKFSN5QSwZ0+jRAACAMYTAAWDCWrt2rb7yla+MnJaSyWSYuQEkgFeOZAMnR98AAADHYYkKgAnp/vvv11//9V/rl7/8pTKZjPL5PHtuAElgJFOOpTCWLIUDAAC8gMABYEKJokgPPPCAPv/5z2vTpk3EDSBhnDUyRysyA6EMK8oAAMBxWKICYMIYPgr21ltvHdlzg7gBJIvzjcyugtJ7S/IiKfaYxQEAAAYROABMCFEU6Ve/+pU+85nP6Mknn1Rra6vS6TRxA0gYl7Ky3VVldhbk9wSKsx7nxQIAAEkEDgATxLp16/S5z31OTzzxREOOgi2Xy4qiqG73BzSKGTrZpFwuKwzDF/1eTW7fM4qqsVI7B5TeX5LSPJUBAACD2IMDwLh333336Utf+pI2btw4chRsPeKGMUZRFKlYLOqcc87ZXCqV1heLxUIcx34tL/iAsSQMQ1lr3QUXXJDp7e29oa+vb3YURcbaGoUII8VZT/6ugnLb+1Vc2qrYM7Ix0zgAAJjoCBwAxrUHHnhAX/7yl/Xwww8rk8kok8nUZVmKtVblclmVSkUXXHDBxve85z2f/vGPf7x9586dVc/zeMkZ49LxM6Py+bwXx/Gc/v7+6XEcp2oWOJyknCfXWVVmY7fyqzrUNz8v0x+IbAgAwMRG4AAwbjjnXhQv1q1bpy996Ut66KGHlEql6rahqLVWpVJJQRBo0aJFD998881/vnTp0rvuvPNORVEkz+PoB4xfURSpWq2qpaVFbW1tj3V2dl5eKpUmpVKp2s2cslJkJX9bv5oe6lRxfl7OGrnYETkAAJjAeBURwLjgnJO1Vvl8XpL04IMP6nOf+5weeughpdNpNTc31yVuGGOG9x6ILrroogduvvnmL1xxxRV3VSqVkf0IgPGqWq0qn8/r8ssv16JFi7RixYpfZbPZriAIantHTnJ5T+qqKvNIp5qeHVCc9yRj2HAUAIAJjMABYNwYfoV4x44d+vSnP61HH31U+XxeTU1NdTstJQxDVSqVcNGiRQ+///3v//OrrrrqZ729vXLO1XSjRWCsCcNQzjktWrRI73znOzVlyhRNnjz58Ww22ymp5vveGN8qskZmT1HN9xyVV4nlfCNn+TkDAGCiYokKgMRzzimVSslaq4cfflg/+MEP9Pjjj6utrU2e59X1KNiBgYH4wgsvfPx973vf5y+77LJ7uru7CRsY95xzcs5p5cqVuuKKK7Rt2zZJUiqVOtLe3r6vubl5dRAEJp1O1y50xG5wL45ypNR9R9UxN6fua6YoThmZKtM4AACYiAgcABLPOafW1lYdOnRIP/zhD1Uul9Xa2iprbd1OS3HOqaenR+eff/4TH/zgB/9k5cqV9w0MDIz6fQNjQVdXl/7gD/5AH/zgB9Xf3z8SFfP5fMU5t2Hnzp3XDAwMTE2n07W9YyM538h0VtXyr8/LeEZdr5miKOvJK0ViQw4AACYWlqgAGBc8z1MQBOrv71cQBHXbyNMYozAM1dfXp0WLFm348Ic//Knly5c/EEVRUM+ZI0CjGGM0MDCgXC6nmTNnqq2tTR0dHero6FBra6suu+yyX8yePXt7zffhGGaNnJHiYxU1f/N5tT/WIy9lFTb5Ej+CAABMKMzgADAuDO9x4Xle3ZaEDJ+WUq1WtXjx4kc++MEP3rp06dK1xpi4Wq3WZQxAo5XLZb3rXe/S1KlT9dBDD6lSqYz8N2utUqnUk3PmzNm4bdu2NWEYjk589AYjh3u+qJZ/e16KnXqumaJwUkpeTyDjxGwOAAAmAAIHgHGl3nEjCAItWbLkgQ984AOfW7ly5b1BEIi4gYmkq6tLy5cvV0tLi3bs2CFrX5gc6pxTS0tLZcGCBQ/PmTPn7bt27Zrf3t4+OkvHPKMo58l/qlfN33IyPYH6r5miakdKcTmSrToZ5wgdAACMYwQOADhNxx8Fu2zZsgduvvnmv1y9evW9/f39iqJoZE8OYDwbnjV17bXXaurUqcpkMpo2bdrL/py1VqtWrXpk//7992zfvv0jo/az4SSTMgrzvrytfWo5VlF6X0l9109TeXZOUc7KRU4mcDIxoQMAgPGIwAEAp2lolkawdOnShz/wgQ98/sorr1zb1dVF1MCEEsex4jjWH/3RH2natGnq7+9/xRlUHR0d+/bs2fOL++67753FYrEtm82OzqCGIkfcnpI5VlHme/s0eU9RxTdNU+GCZlU70op9IxcP/tnBN0frAABgnGCTUQA4Dc45FQqFaPHixet/4zd+47OXX3752u7u7kYPC6g7a62amprU39+vcrmsKIoUhuEJ3/r7+zVv3rz1V1xxxX8Wi8XRHdhQZ3RtKUUZK63vUvP/2qlpf7tLkx7qVKYvlFJWzjdyVpIxcjIjvQMAACQXMzgA4BQNHwV70UUXbbrllls+vXLlynX9/f2NHhZQd9VqVTNmzNDnP/95tba26tWiRbFY1Jw5c3ZfffXVP73vvvtuDoLA831/dPfMcRrcfDTrKQpiaX238k/1Kbe0TeWrJquwpEXVyRlFLb5COanqZCMnOfdC6aB4oBGYVQQAZ4zAAQCvYvgo2EKhoKVLl/7ywx/+8J8uX758HUfBYiIyxqharWpgYECTJ0+Wc05RFJ3K+0WzZ89+9Iorrvjefffd977m5mZZa0d/aZeRZI3kJFeIZB7rVvbpfmWmZOTm5VU+N69wYbOiOTlV21KqZjw5c9z71mnjYkDS0PecFMdOKseyQcwpQABwGggcAHASxx8Fu3Tp0od+8zd/89Zly5bdb4xxlUqFDUUx4ZTLZZ177rl673vfq97e3lP+GSiVSsrlcs+//vWv/+ozzzyzuqur61xJ8jyvPpEjZeQ8IxfGMp1V2c6qzO6C8ht9aWpG8ZS0giZfUdZKTb5sky/lPSk1dGXJjzlGmzFSyihoS6kyM6tgRlZBe1pRGMsWo8EZRoQOADgpAgcAvAJrrYrFosIw1MUXX3z3hz70oc+vWLHigTAMVa1WiRuYkIIg0NSpU3Xttddq//79p/W+qVQqnD9//qM33HDD17773e/+UaVSmZzL5UZppC8x/Cp42sqlJRdLLohlj1VkjlXkSfLM4P+ZtCeTsVLGDs7+MCJwYPQNzTaKcp5yM7OKFjarsrBJ1QVNKk7LKIqcbCViRgcAnASBAwBOYPgo2CiKwhUrVqz90Ic+9BerV69+oK+vj6NgMWEZYxRFkQYGBtTf3y9rT2+v8qGlLNXly5f/05YtWy558skn312pVPxMJlO/n6fhuzGSyVi5jJVzkmL3wskqYSxVohd+D6iX2MmETumn+mR+2aXcrKzCpa3y3jBNxQtbFGU9qRzLOGZzAMCJEDgA4ASGjoKtrlix4sFbbrnlz6+88sqHOjs7JYm4gQkrDEO1t7dr7ty5OpP9Z4wxiuNYURR13XDDDX/f3d19wa5du1amUik7qhuOvpLjf4zt8fdvuHhEwzhJUSwpiGV2FeRv79ekZwvKvHu2+i7rUCXjyVaHIgcA4EUIHADwEs45DQwMRCtWrPjlLbfc8pnLL798XVdXF2EDE15/f79uuukm/e7v/q6OHDly2jM4JMn3fU2fPl3nnHPOfTt37vxGZ2fnp/r6+uY3NTWNrZ+vMTQUTEAjy6msIifZJ3vV2hPIG4jUdf00VdNWXuXVN/cFgInm9J+ZAMA4NnwU7NKlS9d/+MMfvnXlypW/4ihY4AVxHCsIgrM64tU5N7xx7z8tWbLkh6lUSuVyeXSPjQWSykhxS0rhwbJy/7FXk+44pLSVwqzX6JEBwJhD4AAAvXAUbH9/v1asWPHAxz/+8U9dfPHFj0RRFHIULFB7zjmFYVh57Wtf+4+vec1rflQoFBSGIZEDOBEruaxVfKis7Pf2adK39ykbOkU5T84YZhwBwBACB4AJz1qrcrmsUqmklStX3vexj33sTy6++OIHPc8LzvaVagCvLAgC5fP5rZdccslXLrnkkrXFYlFBEDR6WMDY4yT5Ri5t5Q6Xlf3xAU369l5lByLFeU+xZyRaPAAQOABMbNZaFQoFBUGgSy655Ocf/ehH//TSSy9dZ4xxw0fBAhgdw6cV5fP5dcuXL/+LxYsXPxwEwUjk4OcPOI6TlDJyWU/uaEXZ2w5o0vf2KXusKpf3FKctkQPAhEfgADBhGWNULBZlrQ2uuOKKOz/ykY/8+eWXX/5wtVpVGIaNHh4wYZTLZZdOp++55JJLbl20aNF9koJKpSLnHJEDON7wTI68r6gvVPZ7+zXpB/uVO1AeXMKSYrkKgImNwAFgwqpWq3LOVRYuXHj3W97yls+uWbNmXV9f39g6yQGYAIwxqlarknTv6173uj+8+OKLf5LL5QpBEPDzCLyU0+Az+LynMIiV+94+TfrBAeX2lwdnd3hEQQATF4EDwITknFOhUIiuvPLKB1esWPGZ/v7+X5VKpUYPC5iwjDGK41iVSmX9Rz7ykf+6atWqH0gqVatVCgfwUsM/FU2eAqPBPTm+u0+5IxXFeY9JHAAmLL/RAwCAenPOqbu7WytXrnz4fe97359dfPHFj5VKJRE4gLGhUqkcmjdv3n8/fPjwc3v27PlEsViclMvlWK4CvJSTlPUUVGKlf35YkyOn3g/NU9+MrLz+UIYZUAAmGAIHgAnDGKMgCFQqlXTNNdesveWWWz69ZMmSDdbaKJPJsO8GMEa4wXUpndOnT/+badOmHT548ODvb9++/dxMJqNUKiVjDEtXgOOlreJKJP++o2qvxrIfmKe+eTm5ciQTOtEGAUwULFEBMCFYa1UsFhWGodasWXPXrFmz/mTOnDkPZ7PZoFqtKo7Zeh4YS6IoUiqV6mxqavq3+fPnf+LKK6/8jqRg+ChZYwwzOoBhVnIZT64UyVvXqfZ/2q1JT/XJZjzFWU/0QAATBTM4AIx71loNDAwolUq5FStW/GzhwoWf6+npebRUKimKokYPD8AJDM/SqFQq/ZlM5qdLlizZNWXKlKe3b9/+688999yl5XJZuVxOvj/4VIYZHZjQhjYedTlPrhzJe7hTreVYes9s9a5oU5j3ZIsRMzkAjHsEDgDj2vBRsOl0urps2bJfLFu27PN9fX2PcjEEJMPw0jJr7fbXvva1n69Wq49MmjTpA/v3719z+PDh+VEUyfM8eZ7H0hVMbE6SkZT1FAWxvEeOqbUSSdU56r20Q2HOky1HMuIkWQDjF4EDQF055+r6+lG1WpUxprJy5cp7li5d+tmenp4NTGsHkmX4hJVCoRD29fXdeeONNz547Nixm++8884PHTp0aHG1Wu2IoshKgzO2+BnHhDVcLlJWoTXyHu1SWzmSqcbquXKSorSVqizJBDB+ETgAjFtxHKtUKoXXXnvt2vPPP//W3t7ex7jwAZLNGKPOzs7CokWL/qGpqenOTZs2/cazzz77ngMHDiyqVqu+JM/zPH7QMeEZ3yjqSEtb+tRS3SMTOXVdO1VxLClmDgeA8YnAAaCuPM+LjTGj/swqjmP19PTo+uuvv2/u3Lm3FovFzUxfB8aH4RkdpVJpf1tb2/+68cYbv9Pf33/9U089ddOOHTvWdHV15Y0xSqfTkiTP8/jZx8TjJGOkuM2X2VVQ0789Lzmp843TFFcG95+iBAIYbwgcAOpq+vTpnZ2dneU4juWcq/lU8uH1+sViUddff/3PZ82a9WdxHD/unGM3UWAccc7JORdba8vZbHZXGIb/n7X2znPOOeeipUuXvvHw4cNrnnvuuaXW2uzAwIA8z1M6nZa1LxwgN/z4Q/zAuOYZuawn7Skq/+97ZQKnY9dPU5zxBrft4NsfwDhC4ABQV7Nnz+7ctWtXNQzDkVdXa8Vaq0KhIGOMXv/61/9k7ty5n4vjeD1HwALjl3NOURQpiqL+KIr6c7nc7vb29k25XO7bHR0dF4Rh+Jpjx45dGATBRQcOHJgWBIHy+bwkqVQqyfM8+b4v3/dfFFxZzoZ6qEtcc5JSRs4Z2d0F5f/jeU2uxup9+yzFeV/OGnYdBTBuEDgA1NWMGTP2ZrPZzjAMazqDw1qr/v5+ZTKZ+NJLL73jggsu+FyhUHgsiiIuVIAJwhijKIpULpcP5vP5gy0tLY+Wy+V7rbXzstnshStWrFjQ19d30bPPPntuX19fx+TJk5sLhcKkOI7942eVVatV9fX1yRjD4wdqzjkna61yuZyy2Wz9IkfaKjZO5vmimv5jr2zek98XyGXsq747ACQFgQNAXc2bN+/JhQsXPvTkk09eViqVWvP5/Fk/uTPGqFAoKJvNVlasWPGz5cuXf6Gvr++x0VgCA2DsGw4dcRwrCIIDYRgeaG5u/uV1112n3t7eOb29vRcVi8UZixYtam9paZm/Z8+eqfv27ZtaKBSyURS5trY2LV68OO2cSznnLI8lqBXnnDzPC4MgSB85cmR+V1fX5FwuV6c71+BMDs+X9hfV9O/PK+5IK46dlCJyABgfCBwA6mrmzJl7r7nmmu/v2LFj1QMPPPDr2Wz2rC8cqtWqrLXlSy+99OcXX3zxZ7u7uzdba1lXD2BEFEXq7+/XwMDAvjAM94VhKM/ztGbNGvm+n+7s7Gzp7+9Pl0olt3TpUvN7v/d7TUEQtFQqFY/AgVpxzimfz5cPHTrUtnbt2pt++ctf/lalUulIpVL1+R5zkozkWlMK95ZkDpYl30gZyzIVAOMCgQNAXYVhqEWLFj15+eWX/2zz5s3XVSqVdDabPePbGz4K9g1veMPdixYturWnp+cJLkQAnArnnMrlsoIgqDrnOqXB2R9hGKqvr09BEKharY7KhsiYmJxzCsNQnZ2dmj179vY3v/nNxTvuuOMPoijKep5n6vp9lh56ISAWx6kAGDeYjwag7gqFgpYuXXrbdddd9/fValVhGJ7R7URRpL6+Pl133XX3LFiw4LPFYvEpLkIAAGOdMUaVSqVr0qRJX33/+9//eWNMqVwu1zemGUnWEDcAjCsEDgB1N3S844H58+f/7Zo1a75ZKpVULBYVx/FJN/Ub/m9DszYUBEF8/fXXf3fWrFl/4pzbzFGwAICkcIOOdHR0/ONHP/rRP2hvbz/a19cnNscGgDNH4ADQEFEUOWPMtnnz5v31dddd99WZM2fuC8NQ/f39KpVKI7vMDz/Jc86pVCqpUCioWq2qtbX16Jo1a/5izpw5n7PWPhZF0ZlNAwEAoEGGgv/RWbNmfeuWW275o/PPP//ZQqFA5ACAM8QeHAAaJgxDWWufuuiii/5y0qRJDz/zzDPvOHjw4CXVanVepVLxuru7lU6nlcvlZK1Vc3Nz4HnennPOOWf7JZdc8pMwDL9brVa7jDGyll4LAEieoYDfv2TJkn+VVL399tv/+44dO1Zms1mlUik2zAaA00DgANAww0c5ViqVAwsXLvz3KIoeXbRo0VXHjh1bsWPHjvPnzp3bWi6Xq4cPHzbpdDq84oornorj+LGpU6dufP3rX7/9tttuk+d5vMoFAEi87u7uaOnSpf926NCh3sOHD38qDMOrgyCQ7/N0HQBOFY+YABpqOE5UKhX19vbufMMb3rDzyJEj3wyCoP11r3tdy/bt28vf/e5341QqFa1evbqnq6tLzz33nAYGBggbAIBxwxijgYEBZTKZ288///xif3//Z/fu3bs6juM0sxQB4NQQOACMGUO7yqtSqSgMw56BgYGecrn8oggSBAFhAwAwblWrVTU3N99zzjnnFD3P+7937959JZEDAE4Nj5QAAADAGBKGoXK53MbVq1f/0bnnnvtQGIYRgR8AXh2BAwAAABhDhk5Xqebz+Y3XXnvt7y9ZsuTOKIpULBbZVBsAToJHSAAAAGAMcs4Fra2tm66//vo/WrVq1XeMMXF/f788z2v00ABgTCJwAAAAAGOQc05BEGjatGlP/tqv/dpfXHXVVf9urQ16e3tZrgIAJ0DgAAAAAMawgYEBzZ07d8vb3va2v3zta1/7777vF4rFopxzjR4aAIwpnKICAAAAjGHGGPX09Gj+/Pnbbr755luz2Wz0wAMPvDOKojZrLbM5AGAIMzgAAACAMc4Yo97eXs2cOXPvhz/84U+98Y1v/MdMJtMfRZFjJgcADCJwAAAAAAkRx7Gq1WqnpC9cfPHFf5nL5Y4EQSDnHDM5AEx4BA4AAAAgQYambPR4nvd355133v/d2tq6r1qtKooiIgeACY3AAQAAACSQc647nU5/c9GiRX85Y8aMneVymcgBYEIjcAAAAAAJFQRBd0tLyzeXLFnyV/PmzdteKpUUhiGRA8CExCkqAAAAQEIZY1QulwszZ8785sqVK0NJf/z8889fKEme5zV4dABQX8zgAAAAABKuUCgEkyZN+rdrrrnmM3Pnzt0ex3EURVGjhwUAdUXgAAAAABLOGKNSqRQ1Nzf/8KabbvqDmTNnPhXHccieHAAmEgIHAAAAME6EYRj4vn/3zTff/N9mzZq1rVQqKQgCIgeACYHAAQAAAIwjzrlyKpV66JZbbvnkRRdd9Kv+/n5VKhVZW9en/q6edwYAEoEDAAAAGHfCMKy2t7ff98EPfvB/rFmz5q5CoaBisViXmRzGGMVxbKMo4loDQF3xoAMAAACMQwMDA27evHnrPvCBD9z6a7/2az/yPE+VSmXU79c5J2utfN+PR/3OAOA4BA4AAABgHDLGqKurSxdccMH6d7zjHbcuXLjw29bagTAM5dzorSCJokjNzc09CxYsODRqdwIAJ0DgAAAAAMYpY4z6+/tlrX1q8eLFfzB37tx/z2QyXXEcj1rkcM7J87x92Wx256jcAQC8AgIHAAAAMI4ZYxSGoYwx++bPn//HF1100b9ms9nOKIpcrSNHHMdqbW2Nu7q6un7+85/31vTGAeBVEDgAAACACSCOY1lru88999y/WL58+T9nMpm+crlcs41HjTEqFotqa2vbu3LlyidWrVrVWZMbBoBTROAAAAAAJgjnnLPWdl500UV/vXr16q82Nzf39fb21iRyRFGkMAy1YsWKBy+77LI7fN8v1mDIAHDKCBwAAADABOKck+/7R1euXPn/vva1r/3SlClTjnZ3d59V5LDWamBgQNOmTXtu/vz5P8pkMofDMBy9nUwB4AQIHAAAAMAEEwSBcrncwdWrV3/tzW9+85fnzJlzoKurS1EUyRhzyrFj+M+VSiWl0+nwjW984z8vXrx4rSRNnjx59D4AADgBv9EDAAAAAFBfxhiVSiVNmTKlc9myZV/t7OwMfd//r8eOHTu3UqnI9315nveKJ60Mh40wDBUEgYIg0HXXXfej173udd+aOnVqd6FQUC6Xq+eHBADM4AAAAAAmouHTVXp7eweam5v/11ve8pbPz58//8FUKtUfx7HCMFQcxy97P+ecwjBUtVqVJLW2th5ZtmzZL2666aY/7+jo2N3f3y/nnKIoqveHBGCCYwYHAAAAMIEZYxQEQRyG4b+8/vWvf3DHjh1/sHXr1rd1dna2G2N8a60nSXEcm6GZG3EURZExJpwxY8Zzl1122b9effXV30qn0wdLpVLNTmUBgNNF4AAAAAAg55wqlcpz73vf+37/rrvu+o9du3a9IQiCN+7cuXOJpMg5lw/D0HR0dBxetGjR5gULFqwNw/De3t7erdVqNchms43+EABMcAQOAAAAAJIk51ycyWQGnHMPn3feeVucc7dt3bp17pw5c/Tbv/3bTXv27Ek/9dRThzKZzM50On3UGNMv6eXrWACgAcwrbRwEAAAAAACQFGwyCgAAAAAAEo/AAQAAAAAAEo/AAQAAAAAAEo/AAQAAAAAAEo/AAQAAAAAAEo/AAQAAAAAAEo/AAQAAAAAAEo/AAQAAAAAAEo/AAQAAAAAAEo/AAQAAAAAAEo/AAQAAAAAAEo/AAQAAAAAAEo/AAQAAAAAAEo/AAQAAAAAAEo/AAQAAAAAAEo/AAQAAAAAAEo/AAQAAAAAAEo/AAQAAAAAAEo/AAQAAAAAAEo/AAQAAAAAAEo/AAQAAAAAAEo/AAQAAAAAAEo/AAQAAAAAAEo/AAQAAAAAAEo/AAQAAAAAAEo/AAQAAAAAAEo/AAQAAAAAAEo/AAQAAAAAAEo/AAQAAAAAAEo/AAQAAAAAAEo/AAQAAAAAAEo/AAQAAAAAAEo/AAQAAAAAAEo/AAQAAAAAAEo/AAQAAAAAAEo/AAQAAAAAAEo/AAQAAAAAAEo/AAQAAAAAAEo/AAQAAAAAAEo/AAQAAAAAAEo/AAQAAAAAAEo/AAQAAAAAAEo/AAQAAAAAAEo/AAQAAAAAAEo/AAQAAAAAAEo/AAQAAAAAAEo/AAQAAAAAAEo/AAQAAAAAAEo/AAQAAAAAAEo/AAQAAAAAAEo/AAQAAAAAAEo/AAQAAAAAAEo/AAQAAAAAAEo/AAQAAAAAAEo/AAQAAAAAAEo/AAQAAAAAAEo/AAQAAAAAAEo/AAQAAAAAAEo/AAQAAAAAAEo/AAQAAAAAAEo/AAQAAAAAAEo/AAQAAAAAAEo/AAQAAAAAAEo/AAQAAAAAAEo/AAQAAAAAAEo/AAQAAAAAAEo/AAQAAAAAAEo/AAQAAAAAAEo/AAQAAAAAAEo/AAQAAAAAAEo/AAQAAAAAAEo/AAQAAAAAAEo/AAQAAAAAAEo/AAQAAAAAAEo/AAQAAAAAAEo/AAQAAAAAAEo/AAQAAAAAAEo/AAQAAAAAAEo/AAQAAAAAAEo/AAQAAAAAAEo/AAQAAAAAAEo/AAQAAAAAAEo/AAQAAAAAAEo/AAQAAAAAAEo/AAQAAAAAAEo/AAQAAAAAAEo/AAQAAAAAAEo/AAQAAAAAAEo/AAQAAAAAAEo/AAQAAAAAAEo/AAQAAAAAAEo/AAQAAAAAAEo/AAQAAAAAAEo/AAQAAAAAAEo/AAQAAAAAAEo/AAQAAAAAAEo/AAQAAAAAAEo/AAQAAAAAAEo/AAQAAAAAAEo/AAQAAAAAAEo/AAQAAAAAAEo/AAQAAAAAAEo/AAQAAAAAAEo/AAQAAAAAAEo/AAQAAAAAAEo/AAQAAAAAAEo/AAQAAAAAAEo/AAQAAAAAAEo/AAQAAAAAAEo/AAQAAAAAAEo/AAQAAAAAAEo/AAQAAAAAAEo/AAQAAAAAAEo/AAQAAAAAAEo/AAQAAAAAAEo/AAQAAAAAAEo/AAQAAAAAAEo/AAQAAAAAAEo/AAQAAAAAAEo/AAQAAAAAAEo/AAQAAAAAAEo/AAQAAAAAAEo/AAQAAAAAAEo/AAQAAAAAAEo/AAQAAAAAAEo/AAQAAAAAAEo/AAQAAAAAAEo/AAQAAAAAAEo/AAQAAAAAAEo/AAQAAAAAAEo/AAQAAAAAAEo/AAQAAAAAAEo/AAQAAAAAAEo/AAQAAAAAAEo/AAQAAAAAAEo/AAQAAAAAAEo/AAQAAAAAAEo/AAQAAAAAAEo/AAQAAAAAAEo/AAQAAAAAAEo/AAQAAAAAAEo/AAQAAAAAAEo/AAQAAAAAAEo/AAQAAAAAAEo/AAQAAAAAAEo/AAQAAAAAAEo/AAQAAAAAAEo/AAQAAAAAAEo/AAQAAAAAAEo/AAQAAAAAAEo/AAQAAAAAAEo/AAQAAAAAAEo/AAQAAAAAAEo/AAQAAAAAAEo/AAQAAAAAAEo/AAQAAAAAAEo/AAQAAAAAAEo/AAQAAAAAAEo/AAQAAAAAAEo/AAQAAAAAAEo/AAQAAAAAAEo/AAQAAgP+/HTsgAQAAABD0/3U7Ap0hAOwJDgAAAGBPcAAAAAB7ggMAAADYExwAAADAnuAAAAAA9gQHAAAAsCc4AAAAgD3BAQAAAOwJDgAAAGBPcAAAAAB7ggMAAADYExwAAADAnuAAAAAA9gQHAAAAsCc4AAAAgD3BAQAAAOwJDgAAAGBPcAAAAAB7ggMAAADYExwAAADAnuAAAAAA9gQHAAAAsCc4AAAAgD3BAQAAAOwJDgAAAGBPcAAAAAB7ggMAAADYExwAAADAnuAAAAAA9gQHAAAAsCc4AAAAgD3BAQAAAOwJDgAAAGBPcAAAAAB7ggMAAADYExwAAADAnuAAAAAA9gQHAAAAsCc4AAAAgD3BAQAAAOwJDgAAAGBPcAAAAAB7ggMAAADYExwAAADAnuAAAAAA9gQHAAAAsCc4AAAAgD3BAQAAAOwJDgAAAGBPcAAAAAB7ggMAAADYExwAAADAnuAAAAAA9gQHAAAAsCc4AAAAgD3BAQAAAOwJDgAAAGBPcAAAAAB7ASxH5T7Fqrz/AAAAAElFTkSuQmCC;aspect=fixed;" parent="1" vertex="1">
                    <mxGeometry x="-820" y="438.89" width="80" height="61.11" as="geometry"/>
                </mxCell>
                <mxCell id="oUADGsadlh63WO3jL9tl-6" value="" style="edgeStyle=orthogonalEdgeStyle;rounded=0;orthogonalLoop=1;jettySize=auto;html=1;" parent="1" source="aFB0EKd-YDEnXD3zQQBE-14" target="oUADGsadlh63WO3jL9tl-1" edge="1">
                    <mxGeometry relative="1" as="geometry">
                        <mxPoint x="-920" y="510" as="sourcePoint"/>
                        <mxPoint x="-810" y="469.4117647058822" as="targetPoint"/>
                    </mxGeometry>
                </mxCell>
                <mxCell id="o-DbXhCWVmbR5wKVS1WT-5" value="" style="sketch=0;outlineConnect=0;fontColor=#232F3E;gradientColor=none;fillColor=#232F3D;strokeColor=none;dashed=0;verticalLabelPosition=bottom;verticalAlign=top;align=center;html=1;fontSize=12;fontStyle=0;aspect=fixed;pointerEvents=1;shape=mxgraph.aws4.user;" parent="1" vertex="1">
                    <mxGeometry x="-715.0026530612245" y="439.99739130434773" width="60" height="60" as="geometry"/>
                </mxCell>
                <mxCell id="7xT7HhOt73u-JdGWIpGx-13" value="" style="edgeStyle=orthogonalEdgeStyle;rounded=0;orthogonalLoop=1;jettySize=auto;html=1;" parent="1" source="7xT7HhOt73u-JdGWIpGx-20" target="7xT7HhOt73u-JdGWIpGx-7" edge="1">
                    <mxGeometry relative="1" as="geometry">
                        <Array as="points">
                            <mxPoint x="-1170" y="850"/>
                        </Array>
                    </mxGeometry>
                </mxCell>
                <mxCell id="7xT7HhOt73u-JdGWIpGx-5" value="" style="group" parent="1" connectable="0" vertex="1">
                    <mxGeometry x="-950" y="840" width="130" height="110" as="geometry"/>
                </mxCell>
                <mxCell id="w4eTLS4btezZDecIvXJ8-8" value="" style="rounded=0;whiteSpace=wrap;html=1;fillColor=none;" parent="7xT7HhOt73u-JdGWIpGx-5" vertex="1">
                    <mxGeometry width="130" height="110" as="geometry"/>
                </mxCell>
                <mxCell id="w4eTLS4btezZDecIvXJ8-4" value="" style="shape=image;verticalLabelPosition=bottom;labelBackgroundColor=default;verticalAlign=top;aspect=fixed;imageAspect=0;image=data:image/png,iVBORw0KGgoAAAANSUhEUgAAAzQAAAE4CAMAAAC68UYXAAAA21BMVEX///8AtAD+/v79/v37/vsBsgEGtAbw+vEXuRgFswUArwBazlo3wTcKtQr5/fkauhvl9+VSylIivCJZzFi26bXQ8dA6wzpw03AOtg72/PZlz2XC7MIuvy3r+evz+/PM78wVtxV+130AsQDe9d4euh6D2YMRtxHh9uGH2odOyE6v567J78m867zn+Ofu+e0mvSbZ89kywDLV8tWY4Jim5KdKyEqR3ZEqviqU3pTe9eKr5qtGx0ad4Z2y6LLG7cZr0mtgz2BCxUJ51nmh4qE+xD6M3Ix01XS56rqF2oa1QcdTAAAlc0lEQVR42uzYwQkCQRBE0XF6ZhG8LKhXUVm8mICgYP5ZbRp1eC+HTzXdAAAAAAAAAAAAAAAAAAAAAAAAAAAAAAAAAAAAAAAAAAAAAAAAAAAAAAAAAAAAAAAAAACCjXSt9wZBLtsx3Ec0ZDkdwi3nXg2CpEczl3dZGqLER/MbzjOyhEcz/1WiIUt4NPd1SIYw2dG8rnaGONHRPB/lC0Cc5Gjm92ZnyBMczdxWxxmBgqPZ2TvTtsR1KABPzgJUaQWUHco6VEBAZNEHF0AU/f+/6CJQitii423vLU7emU9DnkkKfXuSkzQ56mvSGYkP8a80yqOcoZH4Ev9KkwvKbLPEl/hVGg4VZKCR+BOfSsPKTCYBJD7Fr9JEg3KGRuJTfCpNTpeBRuJXfCkNKxdyQCPxLb6URjmXMzQS/+JLaeqa7JxJ/IsPpeFiXM7QSHyM/6ThQFbGGYmf8Z805bkms80SP+M7abibdnIGFsgYJPnf8Zs0fBJHcJQG5Y4Bkv8f30lzQ+jsDFV0GWskf8iPlyaTdrQCEHuhTFpm1iR/xg+XhrsGOTgDAFpDFd22lEbyZ/xsaVjNkvOAhgpV5rB8y0byh/xsaZTnPXGG4icsxEKaXxLJn/CjpeFpEB2lIQizkNJIfICPpOGOQc7ORKaKkNJI/ICPpDkaOTuDOBFCSiPxBf6RhudpZ2eC44CURuIT/CPNNE2OztAzs5RG4hP8Ig2nmo5JAKReioWURuIT/CJNoE/2zgAAXtRY/BxpAHCJXEh3qPhEmvIkjU7SYLbD4kdJ014TlNIcJP6QhjsGOSabr65Z/Chp6PZ6SW4sz+A9SPwhTbFJCA7OVLosfpg0MRZLolKag8QX0vA5gZMz7YEQP04aIaU5ZPwgDZ/qCGDvTLquSGkk/sIH0nDsCtHeGYS5wlIaib/4/6VhvifHxNmrKoQH0sACtPhk6wEpjeQ/lYbLnx/epCGA/QTNncouSwMARICIoAXzkYoRyQd1DVbqIBHa6SOlWf8chCSnlryXppasB8R+wnkChzc1z2pCuCkNAAKhpuebd/PJoJu77nSuc93E4Hj8u3dfiLR1jRZ8jDxSmuXDJt3OBzWSmzR4LE0oG2wl98eaapwc4gw9VIWb0gAAIlX68+h1KKUqirXduhJQU7VQJxEdP4+aEQ0R3j9QpTQAqF2Mn7rTeRzkrnReSsPKkJDap/tiTfkOnBJnlRy7KA0sIL2QvE4JdhxdiUCqej0o3Vd0Kc1u2O+dCBasxM5kqPFUmsc0AmK+zs5FJkGnxFkkzMJdaeglGrIEdhRHUVOxOynNzs/RX6+Z5Wr8rw81Xkpz+zZaAUAjoQgHwm2Hzhm2oopwQxpLmcvkyZd1/y2l2QZQ3zzCytG/fttg76Th6hXBUhqKd9ihzBkh2E9qThThnjQABI1ugMVXkdLsSFNJCZNq5G/fEMg7aVKN9WgaQMvGhB3qs+YQZ/SSKtyTBoD08yLvGmshpdkPwIPYkLqS0nhEuZRGMB2gFzsH2OHwJkD6zcI9aQCofboz43NUDsSm0UkmOrh9CndqKpfLRywES2k+lUb9648P8koaJaNbQgBo/aLd8hlySJzNai5KA0CRU+VdhKnWH/tNI5Jvt/OtViRiXBay93elzKB7EmCWY5q93TMOGVIab4i96/gCYE/hHWdSL3ZxBhacqSxckMaKM7e8nQjvPMd1IgQ0AQAkQgoahcbvQTXAUpoPiYAEixUsEwEeSXOS1QDef+vnOybwOI32A5rCNQvXpAEALFkpAObwzWUaEd43bwUSkt66fBlmZlKabQDopboa+vH11d/ujDfSMPd2gwggJZmFhTJt2wSaVa5NCDelodGWrsVSZe/6KUAEQk1Obr4HAC4SKVVVU7cFeVq9N9KMdYQP925+wltFQnH7zhkZCXZRGgCMbBLerAwudET4PDbJZTQflwS0LvqjfrYtnfFEGr4192TesWZg6aD2NHtnWlMhXJVGmytiTSAT8cFPfojSLLWhBXK9pkfSHN2QvRCX1mjS9vAmANQyAXeloYeUWKOMg+SD/vhhSvML5JGnXkpTniPaWoNxc5OM2CXZFYB0KSDclAZQO96IOsj7IM4crDQSb8c0tRtA+0nLwnIjFi42yTbOwHNKuCxN/sSUJmf4whkpzcHjiTScurON5IB48XYP8zPa9816NeG2NDNFrFD6PnnrUEpz6BwLT6jNAOxXYt6rzIMggt1n2ZpwWxowh1Gc030wnpHS/AQ8koZPRgAO0SQRjdgl14CyMXZZGiAjYAaakU8CjZTm4DkW3sChEYHDREzQPkvQ6grhujRnR+ZCN98s/pDSHDrHwiO42kDbWAOEtv9cSSjuS4PPZXNDQt/coFKaQ+dYeMbJmWZjjeNZZ1EWrkuDv8ZmGvzcJ50zKc3hcyy8o5MlgK8uRM4EhBfSnIolfNT3zXp2Kc2hcyw8JHbxpVgDgOmSIjyRpi5WHJ1pHkkDW3gnDWzjbrMPa6of1ny+NSrschjSiE6BAL7gjPaqsjfSDLyVBgCQNiAs8EIaWID21Xz/NDYCNIFD2Tlz2W4EJFx9EUQAX7xCADgMaUTn4dPGAgDOUiwOLtIAICKh1o4YlTeMlk7rx5+L0sC7aoztar54SiGA3X9I+cvC/Wz4+vp6Puw/VHRTxe+ceej8sfNF2RZ3brv1r7oRz/Z7z4+Zcenm7DK4bLf9T6NXCvd3z4srfO6dxQ0NYcEhSCOuL+lTafCsyMIjaaKmNA0C12MMYvChN49OE+Hu4k/i9rg0MkxrXJDGqqadvUnWp4luN7Gs5ncjQp9Xk3+5eOMB4OPtaowe691iQFlT7GZGadz/nlH2YsWVvTQP64/jX5Om8rIur9tLs65Ng52WX/Um4WrKbLh6fTxKwwIbZS4XJUOqsiSgnjzNm/DGIUjD3eb+WANAzWsWXklzbEpzh+B2NyFyNn+K1QKCTYQayk1mFUAAcEMaWGLcJ8OxlLJdzUl30jdo/z2AF9UlYcIdA+N3k24owCwsWAnd3uX3tBsoV10xt5dmWl3xpSMRgYbr4rErW2l+datLKrTVcs0YTa5rvN1w5tBx0zqu1SrZyORq7wsGOuPmUjD/SyM4F6G9YZ8uTWfclwZ+PbJY8QjobpTRe1O7gRiL8HMbEcANaX4hBodPAbtqAoke7ZUTz3hZMKWj1WrA/KxeZRZ2/+OgAI7tBjrh9Y4p9tLk1h+ffk2a83UTAnF7aU7EG+UmWbEj8pyw/SaKQ/PrNktWXhPqx2tkLv4mOghpBIevnGMNAFWmQngmDd0ciRUDQHAxzER6iZqD66w+zXQEgO9LY1UzDKtO1aSeRhoC7JNmSYRMz6n1kszVBDv2pWdpdJQmtK52vzTsqjRH9wSrLyLdnF+r7PBFzPMIYF5k+iHZcSqpDpoIcADSCJ5GnKwBwPwteynNhSlNSEfXcrWoNesBFo6wOjYv+fvSvFXzMg0IZ7iWjJhyOkvDV7QyJm3c3NqLbgWbGwTwkzQ9ggWYjif3rUtU5pqZh04XMlXe1+8xEOAApBFK3SBwyrmMWXgpTcS867jnmjSYHsYUYcKCTaxnuDot0L+SBhbkX2NibzUcqMdhwV5pjrLa6gFcCtd2+yy8+LuzlTAC+EiaEgEixR87+7cUTt0srUGKz9+X5A/WRHU8CGkW1rQIAGwnNVXhvjQWQE9srth05b1NAKD8OLV1balqd3A6ST6OTxMn6tYjzUy2f1cabGcE71YzX1XDW31fWLBXmoaGGMxmYvzhcIRarVisvev9c7eNPpKmPAYi4zy31W5WU8VQNXZSU4UFn1wSIBi/r7cuZnmFiwtMBd4F0xECHII0Qom2EcAmzgxV9lYanLHZhh6iG9Jg8FTZ7KCfmpYaV287dep6sN0q9AbW9eTi+H1pANCob4Ikp25f79+qCa6qGd5uqlHCcfxEmjsKNqJFhbczSbHp5PdN//7lIXt/k+mUxQa+Q/SPNCJK7V5YtXJ8sUFy2MgWri7jLzfRrcCpZBD1fsISidXcaemm8fLwcDE6r2+V5FweD0MaoRy3EAB2dwSYFYXwWBojJNbE4uTGTHqkrmzyNqcNQ0ME3NAaTTd3ZzdC35DGOmqEzWpCkwsD0ZrwQzJmiY1RAx0B9khTno+itS1jAifTUr9p6GiiF0pVsSGhIfhHmvB9VGVTg85xr9nS1t8BUv6sbkV8NVuYpHgz2MslG/Eg4QpqnUVrwqQ8JISDkEYoGQ13Z9norCa8kcYCNevmS1jD5u87A+O1FcyJRpsQAbY+Jao8mr8dPyLCN6WhdnSj5tN98N0qq9VERNL8XJ3tl0akaqbHLMrq0+NFK02ICBtQf0kIE+WMAHwjTaCmmN2y8GuhrVnNXmpznrICSEzZxOX6rKIT4lbJ9rC2KZkI0oFII9SMNXdmTWp6Lg1QNmV1Eiv/MtYAaD2V1w++zKVljFWAtGFtXSJUQYDvSAOAQ2WTT63Qx2oQg+c1qz+/TxoLTnWT9xUNYcdlQLpMbB/l4B9pNqHjtndJH1fVpG9UsYMSm9y38H1RQEw3NtbU4ocSaVazYu+eykaOhffSAM23hs2Ff7d3JtBVynTmWbd9mw6R+maZ2/S3pAGgK3NhkfKsI4JtPvrcfL8uSQifS1NW6zNDI7QdXJJVuFghn0nDymAUJLsnFNApv5OLa8lm+mNRAMQSm4XOPZbG+RQk/vNYkwwCgOXMQBGeSWMBZHQtazrDFn6/jwZAGfNmfkwjgsP0yj/snQlT6kgQx00fQNQEEJFEAbkEUZD7WLkUz+//iXaFDJAQQmBlgX35V71XZRkzQ5hfeqanpzsmhvMXbQUNJsNiTN3pBGB/kX/EhqkJrYOGJe6MSpOAtVXp4SI8m58dlqVh7fUtRAhgP4+QTR7z62FyRUQpZlMs5ru0Y2gELbLsC1RqvVYxEi723jtBn8wbcyOPxboGgET52p1DA1haWAf7WiUVt+QGgG7E5OxMd9iHCQWMBs8AYWNoAPBr1oyYf9uilTOuShOCEzQsd9JRdHIeIj1q4uL2Aa1pJOZKw7+y54D6+cKnDN/oqy4FwE/hJNSedu89Y9bi4XHj8rFeLRRC5XKokK3fDj5ivYq24bjX7vwIMN2EGPmknUMj3qKNxY5exEpJgm2wAfS/smGxHIK3AeBeFlOdbaAh/7vRzHvZKU4GhUVLFcgJGt/5fXR1DLNoU9hjjh0QNJyK1VUH2oGaPJt790MOHxIwK96dXN85NErlulnXkRAAZwIk9N82YzWFNwFH+Z6eakA1zdLOoZm/jhoBXtwJexn4VXIGx9kCyG8E4OTnDgp3LyFsCg1S49R4dV4SOo28W9k4y/2GuBoavssiIqwzoiORtydySNDEVGfYURc26fTL+VKCnrjyZrfQcL7Vz06CdperIE2O+TyM4jJvYmt0/GGmq/2H0ACqlx3mxXDX17ubJ0QkBNjEddZiY29ER3C0bZHMvCCcIzRO5ce5mERw7E9kNlJpNTS+v1zEqgI9CGiKhwTN3ZpvCOco3KprrhyLKwc7hUZrNZ8c3lKAiHr0/lzZwNa0k4j4prC0W2is/Xxs+cxTzlzx42Z+BtJlNTDZ+BADAucx8SXGxBeie2jEGsx4nvk6OjeDNz7DdiYRnKBxM4yz4gEdGjQnziiMZtDQuuCQ091Dwxzvh9Q1c2FA1LPtDZzHWldFSyrN3UMDgIVxwOKdVIK98XNdJXCHDcz3SWtPa6ABXYyhNGwKDapF42/DiGvYTFSMD1P619CAnj/E6dk6aADueD00wpbufnqmRG5NVsbB3EQ/g64xyI/GOZZ2D40Vbhq0rHNC5nztpV9/cpWrAmm2UmnQmosR0mIpv7GlobrP+G7fCF2GO2ReCGE7aIQAK3yU0Ny7huZr99Aod9NQBFcnf/WbsGtvmCyztAdokJ76V8tNs3Jx1q/T+lka4rMxOws+rb+2ZDwOLYGwETRIIimoYvaJOboMckn6t9DAkULz7Rqay11Dw6muOH3o7vRv+SMnbafdQyM6Cdl2L8XSMjfx62ZVX4MNkthZigDC2hVCytiH/6INoTlpidkZwdpm6mKVVf3X0FDuOKdnaelgpmdyfxPPEgAQ3NisbA4HGnGy/yGSt8GG5cr4VkV08iOHFBEmC7h2UCTjkjhGtdH0DFAXo/MBXSyzpuaB5dK/hyboQfOvoGHlLombbmKQTf3/Q4LGSLmXuElfpWyO9Pkqo0ECHTJLPM+eOcHa0UxitRFB2Awaw/HG+fL69SSi0Qw30YNm39BEwDUz8w9Kd4cNzSwjy9PzS8XHVnCYlUhJR4Q1++8cIhfbHmljtXGubgjNmdFMXCcXq/d7FtbPg2a/0HAwuvnRYMDy+cFDM0vyV2+OroLLboHgaNVJNVJ7IoRGRRfQNI1vqOLHTaDBpNjhbtH60YfwbHRq7EGzZ2hszlEDzE8OrqinSZ8ZyarDg2ZmbiB0me4FLbusnOm8JW1fGKRXJMO9i+DmGI+ICUgQuIcGqH5qNBNzlbN2aGxvjjxo9gsNv6pWaAARyV8uFArlpIqEiEtQ4U1KWtJBQmNgQ6iHbj6sqfM4NU7YTU0xkTdGc5fcQFM17porbwbN5alxtL/tphmoK8ZQ9qDZLzSZPlmP85O/3hxHir3X19ZZ7L75WE5aNjaQqrbb/IcJzbwmG/lL6XeRdUJEmNvlMYJbcZZy6OY4BobEpk5oI2iwL77ZB9UFNFjVxFBGD5p9QpMvkzU4cziaZROW2KcFrmIPWVjABhBeJDsdLjQ/H+wEEVEtX76k2GRpC7T84m6Kr7mMbqBJ+AxLsxk0kM6IMeDOoGne9OwQoOERAlgOxld46YzN1bhUJgQwLunbxmAeNDRzv0CydGY6PNBaogZQuAY1FVwIy75tpmcI16IPWYK1mkMT86DZKzQ+S3EGhGfNBi2JlfClDgiTDg3zkp0OHppphhlE/fJ1gRp5BFZo6MX4fRDcCAuSAc1GjgCCiIhiSqCbZqqKB80hQBMsoxma7KoASw5eR3UEAHxqubIzLEk/WQ/zmuKTmA8DGmMCStnP+RyNlTfVsqzDsLA0MVd6mUNzsgk0RfHqGrlrRvagOQRoakkyN/ZtNGYfokYIqMfY1bHpWjH20e43+92PceQq52M+DGimVS3U54t5O7ksWqCZvRbYnbaEpuXbsBkPmkOA5lVFS/y5Ewla5BbxUuN1xGjxs/ZNNaECEhEi+QvRwfg9cDDQACAOa5KQHCPLJHWLRCDbQ+NeHjQHAU2Y0Lyr98rOVZv6wk+wUpzvdbNEuJj2kBDQP3gJygcBzQQbepy7zZU6AlimZ9voYuPp2Vb69KDZJzR8RhZLs+4dqylrkFF6zYKo4Wrelsen0nWQDwKaSY+eZx8lMyZchIbOtoOmk9wMmrC0jfjeg2av0BQJraeiWPoXkjvtJ7sUFqI+4uW7jw8Bmkme0wgvLO1+A5pXFXcPDfObF+W81+lZz/w1Aybe/w00Sji6uho1/IBT+MwfBDSTvJ8zT6FWRdvpmfJ+tYk+CLaanmkbtfJ+652n2Ss07zpaRlK9tf3OZeA76Vy2FYCoHzwIaE4AIc0LpdPsHAG1RGgTJWFDaHxGbvvyRs2o3vRsr9DEk7RU++suLm+HTfBZRwBYs0miDnIHAc0J0lAW0ITtLU38hHADwZbQ1HAjgQfNXqHJJWh5VEc/ejmFNwYn9UwI4OLU50PgIKAB8gt8Obhoceepzzsn2/fAfUQAdxBPNpMHzT7DaOpgd0xYj360Khtykx+oCODK2zvIHwQ0QOLkpCSH0C72LHeCu4NmHnsW1MGD5nigsavfMT2B9hR9uAt3Uq538pWulRmYSBT2Mt3+gw8AmhOghoDmNLq4uJ4V79SSADuDBmDMBrIFAg+a44GmkkRYsWJHhNAgXexosgtw5DSgFQ1SVf9TKKGrqnkeDpR85YOA5kY8BnMCDXwU52miuENosCu+2aEHzRFBI52KXF329oYoER3chSv5ddy8mpPqAaCaHdy9FHtXr+HPZlVHczXBaoUPABqss3gMprRIUNaM7/GDdgjN/JtteNAcEzT8ArjGR4xI1Uako8jsEDrzSCYqkLLtcz7NTF/jHP/OqmZqPjL7h+YEq/bvDtIr80JasDtooqdicCJ60BwPNFL+FgHWHdwiSlabZxcrd/Ple/P8C5PN88WL2Rd/poUrABNxPgBo5pbm0jQ9U1+FoyREO4TGnxJFiFXyoDkiaLhWIAAXR+xRvU2fa/aGxlSaBQCTd8yWS1INHWHhkoGyd2gAh9bp2TzvmYBpJ9CI9iMiWWAIwYPmeKCR+BNdbK9MF/bZds1nd4sP1Wxn0stEsNZdaAbIH+e9Q0NvM2geVbDLsCmNAXcIzYBFRIIHzXFBozX09dQI10AhfbF8h45/kQfAhmwbZDOcmzRAGh8ANC+iD2xy+gKW8yJwWUfYHTRJMTorfoTjg+blj4VGYqVB5JIaIDXa87HV0Cw6E0Qg5JJ4IZceAFZ90t4jAoIsgDaxAYgizpmbCLAzaE5aPHNEHCE0oz8XGonzd6JWrqtCG+kUm03V4m6GCLm30WkDcQHAFu8bmpuF2DM0J3P+EkjHy7QDaEQz7Yw42AQIRwfNH2xpJIm5GFUBwGXuc2imTH9tmsIARTVphd4XHjJCf8/QIHyyNLcn1mJ9xsCQ3xB3BQ1QQWFRdOaIoBEV1Yt/MjQ/k+p2iBDB5aHH/iIXmfGilUJor4RByc5bALrN837P09SDM9feUmoNNZYRvXhCgB1BAzhikbTQj3Ac0CC8iyBwBBfrYDX9P4VG4sz7Q1mEu6x/Em1l4U8fze7alrRKmQYtQFPu7PPkJqJ/nnPm3brcB8oKpHms4g6gEalmZ828EcKRQFMU5jGEsBaZcrMi/U+hkSTW3j+ifkJ08/qgF5aEguZFtJrjVcqcza8EVFu8xxwBSG3fAsxWaADTsljx3SDArqCZLwArdQQ4BmiEeRQvQacXk5rtXmnS/xeanxYuYoNCUqW1BgdECnSxUpkL9UhxpdImj8E4sy9oAEl90FiaOXxtTo/N0ybWsgQAO4DGNEnlq4k35vChQeyKLp/rCKsn8ZSst2ss8f8bGok5dR57qD4BgaPBAcCmLP7oDND0q6fESiVNsc5vp78HDYDoscusGg/B+ZfZh2VoQJ3XemtVXdwbtoIGSFg0SX4JkYtd5r1DA1ASNlpblbkdEDD5OI5Pdif+59BIEksZOf7SuCn4daeK+0B6jUUaLjM0J0grhSZohpnfhCbp140qVOvxUkPf80wI3HtCsLkqecXiiitRatChBI4KsBk0Yh+1MmumFV3XDJGOsG9oMJuXDMVUBLB7f+mJwXUgw5L0J0AzEcupSuSjVPXjqiUOIN6JLYbvbecUBd/vQYPwHfnJ6klEgIjgmAI98VyTF6LiogRgd2FpBhYH7lc6F6c1o56ib9tBA9RUJENysJsghFXNIFHitq3vHRryxyVDyqUKAEv91OsfNU0S4j8CGqOUazxy/1BPqGg31QaKyiIeYFtokvnfhOaaWYsXx/1SNeFXEQkR5ppXRSR/tr+YcIe1vv0wBVTHc6r5tVnQF9d6MBUR6k/Zr49wLkDbQQMQmxPsKz4nzD5Moxn8aebyvhjMlGnf0CCNMrMoj0s/IcxFqPqzzesLXsy4WvtToJlW2JBTxUbUTzY2GLHG/w4awOCvQmP02Bd4jzVK0WxCJyAS7IgBni195mTTnGFMYA8NoHrNC9Y33q1OpqyIgBMAiX4QHHYjOV9GkpQn3BAaYWrK79Jc8lW/qhLBxF6KZvApe9MOB39WCKfVvUMDdOubH/r4zBLNnoeaqD9fB2Xm+Tvp9Vm/5z8HGmMUXkS61eWQTsD0v4QGIc6/Co0QZyQtd956+bzvP38No/VqNRsKhQrV4fP9y7nGi42ybyRm5XbUhF4Wlj7MnZd2qRoqT1So3paa3c9wLW+k8+cqwlpo7KnJhuVFOmvXjRtTM+1JM5n50ei9QSN6XOQ55efpQbSarUaHX82PUW/x0BXLgcizH7F7+kdBYwzCQLtsnfcjfBnQtLeG5nw30Mz7fXqaYfYp+dRFpZJT+J+fLFco1zoBOKx/Yj423TGjVK7e32u1eE6R+J/bSzNlvmhzaESV04hi7jhrnVkzmdPMQr9PB+oeLY3o8Y3CC588I2kBbfK4LXWAI4+IBPT2B0IzeZ1ckrXyUV2xz8cNLoXwvgto3It98TdyzgiKybeOFbSpbEr+bgON8IC3A6ubMWF72kTYOzSoj+S1DzcXG05XgfTwZ0IjSYFHMzVAwvE4tmZoIpdSr6R9QiPnRk+IAGviQKI9jV0heLcVNMKk3bhKDc+c6cL+oQHEliM1rHQ+s4YHCejmT4WGa09khqYQsKvQDVB/dKm+8pv7NN1OwMfMrr3qgeth0pkZkae3UVN43dJPCRZLuBU0opnCR2cdNsxKLjzcPzSTdVjP57BF/tqoq2Q4AYFu/4/QyIq8fpSdDqzQBO0CxBHOZZdi6TehAX/pLnx1oSk+ltaxIyud6yESuotOxcT9+conNCkbX2nd3RKALTQ8kQM0YhhiIR1X2KmZTvE+SvAr0LAzNDyRLKCxdy1qzHZvI6VydqnC/OECVU8ns82V0Mg8kQtoeKoDgIZbb5H1c4PMPdhaGqmDZmgi+6juPK23pperN43R60VA8/Eqq8Os5cL9rKuIbrG7A6FBOKdYWWSWWEldvI4vs34iRFtoOqmpzgDXNUNqodkKKrzUDMv/NNNLf2WTRGgLTeliqkrIHTQ5ZaqzFTuyRqdjq6EBTH71UsxmsuV85+U5q5t6CVROTbUCmorx6/s10CDcpQythWag5SfSdgQNxwuop/Nrofm2XdNYA8QR+rwHaIxhRzgJrb1pfsTOerVKUNOUf+Tz/dg1WfYpSr7Ti73VVXRCxr4eVbRx3eukNOVHmqblgxe1XmTcKBVUBERY6We6nOrRVW54pMfu9Wslv9BMpdY7G/dLBcIfrWhGzxoiV9BgvzvVpS00WDI6HQXH0IrkZax3MetrqvIeST8Xlp8GqF+XE/ltoQHRWnXtXLlqXDnwo/OVGGo+T9RMwK9DI6LuUO0HeE0I9BuBee2iGDQ1zWXE6to+oBHcAAIQEajJRKgQLT28tdPj2PVLuPcePhvd9YeFhIokRt8m1BDqicLjZb/d7r41nwc30WwokaQJp6sBBCAhADfNAIGeyA4HlmaQCNCpGTQErqBZ1HadFomHE9nSW/c7fddtXj5my0kSAYu290NwfES4FhqcX+r6yp1Aw3eIAEilV+flrpa1QPMlixqEqiniXw3znqARAmOU//yPBiJIP/8mP8IJbFkSGgFnAkByChDdvue00MzUfG7RZffQbC0wnioSTZ+xMXk8AMFcO0kWeJ5E+BHpd07GRv5Gs82dpf7nVMGcKjCr7Rca62MTow/xXz1HWJbzUP6tZg5kINroaDr6u9BwpUAAxlvj8Tol8wpmipbyAkgtFr97QDA9yHsnx9hhFKr15GlraDJvCDDPPRs9y/nsK9D6CSwlbRVJKGwpw+9USUPR2IPG09HIBhr5JWnKsEz6bbsXMDtXmZVaIznnYp65VUix1Aygco/Zfkux0h+csweNp2PRMjQcXyorQ0DR+148p/kM5Su9hn/JLYOLtfa5qJsnaBR6V+zmeKmzEKjVAHvQeDoSLUOjDAjAxnujh+qlZvs+nf7uPg+ryWU3IlAiuMCeNkQ0s+e/D5hXL8y+wPVQR0Toyx40no5EZ7ZlZew9iQQzn6eNHxHAkr/83WqxCG9fKoosGvIpwdd0HQABJkseDxpPx6ElaHKr0p8s+GrBPqTqUWFLiC+CBTy93m5VAqlUKlh5HfWjCaKplxawfOFB4+k4tARNsLrVhinYbGCmHpepQaSn+vAmmn1CRKS5mw4bB1Hd2ZOnzaHh86oKAJtDo3blpToaBQKwqXT7I0s40g9zh1Dd2ZOnbbxnlUsdATbO6Drg5Vv1EjZ3gomW71COH0B1Z0+ettmn4dO2TgCbQUP1lG08jt/tnQDg+xCqO3vytFXsmS883MTYAKA6WFHprBhyRw0A+s88S+PpGHQm2UppJ1TXMeVIetMn2YtztyTu4xxRnm15axpPf7N3f71JQ2EAh1faA5ndOp1j2i37R6KLTpAwBMImUTe37/+N1CZKuKDhXJGa5wnX54pfmjTnfdsIa6IJYW98VnOpe3X0Yfht/ZBnOJh1qmzqs+vPDr09oxnyZJ3w74tOrfrxxf7DQa92Q1o+KtcPS1VHDJ6Pe24E0BB53cqd48l12crW/91bWVb07x/bSb1weHVd7SFZM043mN/tu7BJY+RJnd7lydGwLLI0S5c7w3f+XgwoyrPFu+mLDVYk9Q5/dssizVrp6ubxNCs7F7PHkJinoTnypFYI7YMvk9HgvEjTbCnNirJzPT+Zvt1wfiyEy7uHl51i5ZDi/Ozmau/PjJtoaJB8k7XN+9NXb2bjr58WF93uYrE4PRpPnl7vVeu3NxfC++9P9x9PL0bDUffm9Hl+++PD53a1kVg0NEmebCL8/oXdpRCSsJvEqU7pVUuT2tUZvVA9pkRDw9RFEz3TH3+GaGiePGkW0bB1ogHRwArRiIZIohENkUQjGiKJRjREEo1oiCQa0RBJNKIhkmhEQyTRiIZIohENkUQjGiKJRjREEo1oiCQa0bBtt/vtRjkp0h3YqrTTLMV/+Fl6AAAAAAAAAAAAAAAAAAAAAAAAAAAAAAAAAAAAAAAAAAAAAAAAAIBf7cEBCQAAAICg/6/7ESoAAAAAAAAAAAAAAIwFIan+Xl7VUUoAAAAASUVORK5CYII=;" parent="7xT7HhOt73u-JdGWIpGx-5" vertex="1">
                    <mxGeometry x="9.99944444444418" y="63" width="105.13" height="40" as="geometry"/>
                </mxCell>
                <mxCell id="w4eTLS4btezZDecIvXJ8-11" value="" style="shape=image;verticalLabelPosition=bottom;labelBackgroundColor=default;verticalAlign=top;aspect=fixed;imageAspect=0;image=data:image/png,iVBORw0KGgoAAAANSUhEUgAAADAAAAAwCAYAAABXAvmHAAAABGdBTUEAALGPC/xhBQAAACBjSFJNAAB6JgAAgIQAAPoAAACA6AAAdTAAAOpgAAA6mAAAF3CculE8AAAABmJLR0QA/wD/AP+gvaeTAAAAB3RJTUUH6AYWER4HmzCtlwAACbBJREFUaN7NWnt0FNUZ/313ZrNpkk12QyAPAgkgIbybB48YQgo0WkC00CK2Ug+o7QGhReo/ntZjtafWY0+LRXxULYitejS0aB9Kq1QkSAJKEl7WBA4CyfIIwezmASbZmfv1j93Znd1ssrshWO/J7s7cmbn3e/y+54QwBOP0jMkZJFBKoCJJKCYgmwh2gBxEAAAXEVwAnCyUWoKs1RTr/jEffHzxWvemwT7YXDI5tVeTK4jECiIuA0gQAPgo9v5QyK/3gu8OKQhVEvQGa72Vo2o+aftSGGgsyktTFXU9Md8PopQgYmNjwDzXRcA2VaiPj4hRK1EzwMuhnDqTv5GYfgFCUlhiB8+A71l0EYlHM4aPfZJ27NCHjIHTRXn5OsRLIMwmEHx/14MB+NavkSRWj9xzqDESbSLSDSeKJ1booIMAZuPLGyWC+dCFeUWLr4mBE4UTVpOUbwNIxpc/kgj4W8v8ojWDYuBkwYR7CNgGwIL/31CY8eyl+TNWx2QDjQV5C4nwdwKpZjybMHq9bSDoOoE8gFySvqfu3xE18On0/DwivAFAxVdnWEBix6WKWeMHZIABoZC+FQwbvnrDxrp8mZcvV/pl4ERB3kYQ5uCrO0out53dENYGZu5cOmxOrfvVNe84bw7Ceww2IBTVGT9zVkPiotsc8dMLHcLuSCdFBzytLeyuaZctr7nY/WE+pCcL4IDe2XQc+tvnGjpVaGPom/gcZpzLHvrp3imOuUurL51Pd3uyYgrnQnHa1/zkRMrKu8shRHZfX5IzljJyoGTcAbAuuXnLR/pnvxwF9mQGiZH7cTNB82zTWN0IaA/5H5366mJHnIg7A1By5uc9NZu2niyJVgOWnLF7s7a/XiwSEhONLZradNSe9eBypwQApNkEinMsGJVqgq/WfkX7uLwO3afK+kg+SOpmbfjvaVcVTy7Ng1sFgDgl/g5ITmYwzqfGldSNtR0tPN05LZLkvzajZE/GlhfLQSSYgV3He/DU7is4ds4T9v6pIy3YUJGIhVOsgJqSqJbUl+qHl3zArr3fCOvcuR+nz0jx6JbbAc8LAgCklLezwSEDm28ZaZVEckC/Niq3yiC+s5tx11Y3fviyu1/iAeDYOQ/u3e7GXVvd6OxmL/i+/o+5SBi3z0tdyIfCzPnmibACAGhG5fIMXdOcYChsUtWyA6377qi+XBYWQqrizN1d7RCJtsTObsa3n25Dw0UtJneSn6nirXWpsMUToHV0aftz28HaSBNMgiHU19B1ldWRQnq0MmYobFi8TxFvzhw28YpV6Qi3eeraDZ+JRFsiM3DfK+0xEw8ADRc0rH+t3XuiJicpuT8/GUnqIdcUXXhKhWRZaCbcYEQSpW1alFXf16OozfaVq0sB4J1j3Xi/oWfQTn33f3vwr+Pe52n0/WUg1dkPsWFhxSwKBUAFMBEe0BjjSE5CSXNa3Jlgw53VCKEoAPDUf65cc2TavNu3BikKpZQ1RJB6yDwKhATncBDhXuJ9I+5Xt466ZN4weclSOwA0t+k4fk67ZgaOOj1oavMWXyLzTnuU8PHNixxBDIffXDhgNAYjl23KzH0TkmuNDeOnFaQBQO1Zz5DlB/VN3rUoZZYjWvj4Pg7BgN2rAQ7RAPsj+dPzRzh0AQ8AiNRhaQBwsV0OGQMtxlpx6enRw8fHgIGXIMKNc59Z9yo09qU5w6uDYgoNGf2mtVjGEgsgwAKAm02+N6CMgAYYwNtTkqe745U2ra31EgCkJ4shY8C/Vm9LaxRSD3xYcQlmdpmJNQ78ds2GW4X98YUZx3sO17sAoDjXMmRaKBjtrVq5/YArtlgAl4CkJjNc/DmTwQgCjDRkWEtrGvaeB4Bsh4IpWddeLk/LDiR5sqXSHVHq5muEJgGSdcFwCY7ICDZw5eGExmzWdR0ANlQkXjMDG401WNO4/eCkqOEDAkipE5CoC4aL4VID+UfgkNGhaAWv1P+lCgC+NdmKBROtgya+YpIVN032Ps/NW/YBMiuGVALEVCd0kh8CrIfCxQ8qNp37lPHEkT9P6Oy92kUEPHNnCvIzY6//J2aq2PL9FABAj9bZ8cWZzeOiho/3WFcs6n7xyep3LoJRZYZLf4Qb2ZIu9axlO9fVMli3xRPeWpcakyYqJlnxpi8TZbA8WP2DfXGkj44+AhMgsIdKWy4JH7grzYGsjwbQlxFnx4XyVf98sIrB0hZP+NM9dmxdZce0bMuABrtttR3b77b7id+468H3pvPhuUQEij4Cg6VSGSgpn13s0K18Boxkczww8m82V0Y+DRnXRtuyqv76nWcKbXEJScas06Xj0BkPWn0l5YhkgaIcC7IdgZKyo7er87Y31h5ZFn+c7stsKw0t5s2CC1NutquyO5fmud1+Tz7pxYWPgfAzM+EBlzowIwLCub545SdrCr+3QCExoEHoLOUf6yprfndg6xgrPO666U35AlKE60qYM4OQ2vgxS/mFh4LaKnnPL0lThHYa4KRQDQQxYvJMxpdxrAjFOStr2qfLJtxkL86cak9LcGQAwOWrrosfnT/i2tn4XvtBZ/0kTcqRAHj7DS1Hb7RdnT5A1RWiDQDgKyrkGJp7sbVPbzT/xZsfANNvIxIegZHI0APGWz3Vb086f+MAMOkDIWYAxA9Yys5tCtuZazhX8iQD+4JSCdPmbAoK4TyVnxHmEBvi4LWYr/7hhtbcGNJmo9lbrV44t7n/5u4jj0iCuJeBTtNmIYSHEtu/wQcx4st2GcAt9i8+HmXVs2JImwFQhyKxim6HHrG9PuG5m+aDsIuBuCB4DAYuHPQ0FKLzhwsu2ONJT4ii82Ace5joFkvp6XejesHRuPbd98FYa44H/WvALOUwcPET5z1/aLS7KV5wQgxpM4Pwo3DER3zJN/65ilVgvOB9S8P9x4YIGjCEkKLIY4cKW6d4O0xmqffT3GXWCFivzDn1/KDekZ1c+952Ai9icPuAgS0MzgPZuXHO8vm8DpV8eXAUeU8XgFsHIj66t5T37d4tJc8EuLpfuHBfuLBBuo+RaUna/mKbNjHKbPNDhWSBOufUrqF7U1+5XBnX2nY/JD/CQFIkuAR4YRC4o6bA5Rkeh2Hhu83+uS4ieljM/nQzEaLqGsRcFOY/vWBYL/OPwbyBAfuAnsl3vnJEd9Wj476Y27fv6cddFxO2qSR+TbOPt1yXfzUIHaOfneNQPJblzFgB4nIAilnqxnGc4NNHZ3RkWwRbQlylDsZekHxd6bbsoHmH3YPqaAxFUT7m9wvSJWk3AlTEUhYTKBuAg5kdvxnfXf/d4Z5cAruYuJnBtQSqVVivjlXa4cb/AGgPNonmcfvIAAAAJXRFWHRkYXRlOmNyZWF0ZQAyMDI0LTA2LTIyVDE3OjMwOjA3KzAwOjAwIkT05AAAACV0RVh0ZGF0ZTptb2RpZnkAMjAyNC0wNi0yMlQxNzozMDowNyswMDowMFMZTFgAAAAASUVORK5CYII=;" parent="7xT7HhOt73u-JdGWIpGx-5" vertex="1">
                    <mxGeometry x="65.00388888888892" y="20" width="38" height="38" as="geometry"/>
                </mxCell>
                <mxCell id="w4eTLS4btezZDecIvXJ8-12" value="" style="shape=image;verticalLabelPosition=bottom;labelBackgroundColor=default;verticalAlign=top;aspect=fixed;imageAspect=0;image=data:image/png,iVBORw0KGgoAAAANSUhEUgAADFAAAAm4CAYAAADrhLxWAAAACXBIWXMAAC4jAAAuIwF4pT92AAAgAElEQVR4nOzbAQ2DMAAAwTIJCMDKzEzWxEwLArBQVCwlnzsFb+C3OecAAAAAAHiy43P9xhjv1R0ABed331Y3AAAAAADACq/VAQAAAAAAAAAAAAAAAP9moAAAAAAAAAAAAAAAAPIMFAAAAAAAAAAAAAAAQJ6BAgAAAAAAAAAAAAAAyDNQAAAAAAAAAAAAAAAAeQYKAAAAAAAAAAAAAAAgz0ABAAAAAAAAAAAAAADkGSgAAAAAAAAAAAAAAIA8AwUAAAAAAAAAAAAAAJBnoAAAAAAAAAAAAAAAAPIMFAAAAAAAAAAAAAAAQJ6BAgAAAAAAAAAAAAAAyDNQAAAAAAAAAAAAAAAAeQYKAAAAAAAAAAAAAAAgz0ABAAAAAAAAAAAAAADkGSgAAAAAAAAAAAAAAIA8AwUAAAAAAAAAAAAAAJBnoAAAAAAAAAAAAAAAAPIMFAAAAAAAAAAAAAAAQJ6BAgAAAAAAAAAAAAAAyDNQAAAAAAAAAAAAAAAAeQYKAAAAAAAAAAAAAAAgz0ABAAAAAAAAAAAAAADkGSgAAAAAAAAAAAAAAIA8AwUAAAAAAAAAAAAAAJBnoAAAAAAAAAAAAAAAAPIMFAAAAAAAAAAAAAAAQJ6BAgAAAAAAAAAAAAAAyDNQAAAAAAAAAAAAAAAAeQYKAAAAAAAAAAAAAAAgz0ABAAAAAAAAAAAAAADkGSgAAAAAAAAAAAAAAIA8AwUAAAAAAAAAAAAAAJBnoAAAAAAAAAAAAAAAAPIMFAAAAAAAAAAAAAAAQJ6BAgAAAAAAAAAAAAAAyDNQAAAAAAAAAAAAAAAAeQYKAAAAAAAAAAAAAAAgz0ABAAAAAAAAAAAAAADkGSgAAAAAAAAAAAAAAIA8AwUAAAAAAAAAAAAAAJBnoAAAAAAAAAAAAAAAAPIMFAAAAAAAAAAAAAAAQJ6BAgAAAAAAAAAAAAAAyDNQAAAAAAAAAAAAAAAAeQYKAAAAAAAAAAAAAAAgz0ABAAAAAAAAAAAAAADkGSgAAAAAAAAAAAAAAIA8AwUAAAAAAAAAAAAAAJBnoAAAAAAAAAAAAAAAAPIMFAAAAAAAAAAAAAAAQJ6BAgAAAAAAAAAAAAAAyDNQAAAAAAAAAAAAAAAAeQYKAAAAAAAAAAAAAAAgz0ABAAAAAAAAAAAAAADkGSgAAAAAAAAAAAAAAIA8AwUAAAAAAAAAAAAAAJBnoAAAAAAAAAAAAAAAAPIMFAAAAAAAAAAAAAAAQJ6BAgAAAAAAAAAAAAAAyDNQAAAAAAAAAAAAAAAAeQYKAAAAAAAAAAAAAAAgz0ABAAAAAAAAAAAAAADkGSgAAAAAAAAAAAAAAIA8AwUAAAAAAAAAAAAAAJBnoAAAAAAAAAAAAAAAAPIMFAAAAAAAAAAAAAAAQJ6BAgAAAAAAAAAAAAAAyDNQAAAAAAAAAAAAAAAAeQYKAAAAAAAAAAAAAAAgz0ABAAAAAAAAAAAAAADkGSgAAAAAAAAAAAAAAIA8AwUAAAAAAAAAAAAAAJBnoAAAAAAAAAAAAAAAAPIMFAAAAAAAAAAAAAAAQJ6BAgAAAAAAAAAAAAAAyDNQAAAAAAAAAAAAAAAAeQYKAAAAAAAAAAAAAAAgz0ABAAAAAAAAAAAAAADkGSgAAAAAAAAAAAAAAIA8AwUAAAAAAAAAAAAAAJBnoAAAAAAAAAAAAAAAAPIMFAAAAAAAAAAAAAAAQJ6BAgAAAAAAAAAAAAAAyDNQAAAAAAAAAAAAAAAAeQYKAAAAAAAAAAAAAAAgz0ABAAAAAAAAAAAAAADkGSgAAAAAAAAAAAAAAIA8AwUAAAAAAAAAAAAAAJBnoAAAAAAAAAAAAAAAAPIMFAAAAAAAAAAAAAAAQJ6BAgAAAAAAAAAAAAAAyDNQAAAAAAAAAAAAAAAAeQYKAAAAAAAAAAAAAAAgz0ABAAAAAAAAAAAAAADkGSgAAAAAAAAAAAAAAIA8AwUAAAAAAAAAAAAAAJBnoAAAAAAAAAAAAAAAAPIMFAAAAAAAAAAAAAAAQJ6BAgAAAAAAAAAAAAAAyDNQAAAAAAAAAAAAAAAAeQYKAAAAAAAAAAAAAAAgz0ABAAAAAAAAAAAAAADkGSgAAAAAAAAAAAAAAIA8AwUAAAAAAAAAAAAAAJBnoAAAAAAAAAAAAAAAAPIMFAAAAAAAAAAAAAAAQJ6BAgAAAAAAAAAAAAAAyDNQAAAAAAAAAAAAAAAAeQYKAAAAAAAAAAAAAAAgz0ABAAAAAAAAAAAAAADkGSgAAAAAAAAAAAAAAIA8AwUAAAAAAAAAAAAAAJBnoAAAAAAAAAAAAAAAAPIMFAAAAAAAAAAAAAAAQJ6BAgAAAAAAAAAAAAAAyDNQAAAAAAAAAAAAAAAAeQYKAAAAAAAAAAAAAAAgz0ABAAAAAAAAAAAAAADkGSgAAAAAAAAAAAAAAIA8AwUAAAAAAAAAAAAAAJBnoAAAAAAAAAAAAAAAAPIMFAAAAAAAAAAAAAAAQJ6BAgAAAAAAAAAAAAAAyDNQAAAAAAAAAAAAAAAAeQYKAAAAAAAAAAAAAAAgz0ABAAAAAAAAAAAAAADkGSgAAAAAAAAAAAAAAIA8AwUAAAAAAAAAAAAAAJBnoAAAAAAAAAAAAAAAAPIMFAAAAAAAAAAAAAAAQJ6BAgAAAAAAAAAAAAAAyDNQAAAAAAAAAAAAAAAAeQYKAAAAAAAAAAAAAAAgz0ABAAAAAAAAAAAAAADkGSgAAAAAAAAAAAAAAIA8AwUAAAAAAAAAAAAAAJBnoAAAAAAAAAAAAAAAAPIMFAAAAAAAAAAAAAAAQJ6BAgAAAAAAAAAAAAAAyDNQAAAAAAAAAAAAAAAAeQYKAAAAAAAAAAAAAAAgz0ABAAAAAAAAAAAAAADkGSgAAAAAAAAAAAAAAIA8AwUAAAAAAAAAAAAAAJBnoAAAAAAAAAAAAAAAAPIMFAAAAAAAAAAAAAAAQJ6BAgAAAAAAAAAAAAAAyDNQAAAAAAAAAAAAAAAAeQYKAAAAAAAAAAAAAAAgz0ABAAAAAAAAAAAAAADkGSgAAAAAAAAAAAAAAIA8AwUAAAAAAAAAAAAAAJBnoAAAAAAAAAAAAAAAAPIMFAAAAAAAAAAAAAAAQJ6BAgAAAAAAAAAAAAAAyDNQAAAAAAAAAAAAAAAAeQYKAAAAAAAAAAAAAAAgz0ABAAAAAAAAAAAAAADkGSgAAAAAAAAAAAAAAIA8AwUAAAAAAAAAAAAAAJBnoAAAAAAAAAAAAAAAAPIMFAAAAAAAAAAAAAAAQJ6BAgAAAAAAAAAAAAAAyDNQAAAAAAAAAAAAAAAAeQYKAAAAAAAAAAAAAAAgz0ABAAAAAAAAAAAAAADkGSgAAAAAAAAAAAAAAIA8AwUAAAAAAAAAAAAAAJBnoAAAAAAAAAAAAAAAAPIMFAAAAAAAAAAAAAAAQJ6BAgAAAAAAAAAAAAAAyDNQAAAAAAAAAAAAAAAAeQYKAAAAAAAAAAAAAAAgz0ABAAAAAAAAAAAAAADkGSgAAAAAAAAAAAAAAIA8AwUAAAAAAAAAAAAAAJBnoAAAAAAAAAAAAAAAAPIMFAAAAAAAAAAAAAAAQJ6BAgAAAAAAAAAAAAAAyDNQAAAAAAAAAAAAAAAAeQYKAAAAAAAAAAAAAAAgz0ABAAAAAAAAAAAAAADkGSgAAAAAAAAAAAAAAIA8AwUAAAAAAAAAAAAAAJBnoAAAAAAAAAAAAAAAAPIMFAAAAAAAAAAAAAAAQJ6BAgAAAAAAAAAAAAAAyDNQAAAAAAAAAAAAAAAAeQYKAAAAAAAAAAAAAAAgz0ABAAAAAAAAAAAAAADkGSgAAAAAAAAAAAAAAIA8AwUAAAAAAAAAAAAAAJBnoAAAAAAAAAAAAAAAAPIMFAAAAAAAAAAAAAAAQJ6BAgAAAAAAAAAAAAAAyDNQAAAAAAAAAAAAAAAAeQYKAAAAAAAAAAAAAAAgz0ABAAAAAAAAAAAAAADkGSgAAAAAAAAAAAAAAIA8AwUAAAAAAAAAAAAAAJBnoAAAAAAAAAAAAAAAAPIMFAAAAAAAAAAAAAAAQJ6BAgAAAAAAAAAAAAAAyDNQAAAAAAAAAAAAAAAAeQYKAAAAAAAAAAAAAAAgz0ABAAAAAAAAAAAAAADkGSgAAAAAAAAAAAAAAIA8AwUAAAAAAAAAAAAAAJBnoAAAAAAAAAAAAAAAAPIMFAAAAAAAAAAAAAAAQJ6BAgAAAAAAAAAAAAAAyDNQAAAAAAAAAAAAAAAAeQYKAAAAAAAAAAAAAAAgz0ABAAAAAAAAAAAAAADkGSgAAAAAAAAAAAAAAIA8AwUAAAAAAAAAAAAAAJBnoAAAAAAAAAAAAAAAAPIMFAAAAAAAAAAAAAAAQJ6BAgAAAAAAAAAAAAAAyDNQAAAAAAAAAAAAAAAAeQYKAAAAAAAAAAAAAAAgz0ABAAAAAAAAAAAAAADkGSgAAAAAAAAAAAAAAIA8AwUAAAAAAAAAAAAAAJBnoAAAAAAAAAAAAAAAAPIMFAAAAAAAAAAAAAAAQJ6BAgAAAAAAAAAAAAAAyDNQAAAAAAAAAAAAAAAAeQYKAAAAAAAAAAAAAAAgz0ABAAAAAAAAAAAAAADkGSgAAAAAAAAAAAAAAIA8AwUAAAAAAAAAAAAAAJBnoAAAAAAAAAAAAAAAAPIMFAAAAAAAAAAAAAAAQJ6BAgAAAAAAAAAAAAAAyDNQAAAAAAAAAAAAAAAAeQYKAAAAAAAAAAAAAAAgz0ABAAAAAAAAAAAAAADkGSgAAAAAAAAAAAAAAIA8AwUAAAAAAAAAAAAAAJBnoAAAAAAAAAAAAAAAAPIMFAAAAAAAAAAAAAAAQJ6BAgAAAAAAAAAAAAAAyDNQAAAAAAAAAAAAAAAAeQYKAAAAAAAAAAAAAAAgz0ABAAAAAAAAAAAAAADkGSgAAAAAAAAAAAAAAIA8AwUAAAAAAAAAAAAAAJBnoAAAAAAAAAAAAAAAAPIMFAAAAAAAAAAAAAAAQJ6BAgAAAAAAAAAAAAAAyDNQAAAAAAAAAAAAAAAAeQYKAAAAAAAAAAAAAAAgz0ABAAAAAAAAAAAAAADkGSgAAAAAAAAAAAAAAIA8AwUAAAAAAAAAAAAAAJBnoAAAAAAAAAAAAAAAAPIMFAAAAAAAAAAAAAAAQJ6BAgAAAAAAAAAAAAAAyDNQAAAAAAAAAAAAAAAAeQYKAAAAAAAAAAAAAAAgz0ABAAAAAAAAAAAAAADkGSgAAAAAAAAAAAAAAIA8AwUAAAAAAAAAAAAAAJBnoAAAAAAAAAAAAAAAAPIMFAAAAAAAAAAAAAAAQJ6BAgAAAAAAAAAAAAAAyDNQAAAAAAAAAAAAAAAAeQYKAAAAAAAAAAAAAAAgz0ABAAAAAAAAAAAAAADkGSgAAAAAAAAAAAAAAIA8AwUAAAAAAAAAAAAAAJBnoAAAAAAAAAAAAAAAAPIMFAAAAAAAAAAAAAAAQJ6BAgAAAAAAAAAAAAAAyDNQAAAAAAAAAAAAAAAAeQYKAAAAAAAAAAAAAAAgz0ABAAAAAAAAAAAAAADkGSgAAAAAAAAAAAAAAIA8AwUAAAAAAAAAAAAAAJBnoAAAAAAAAAAAAAAAAPIMFAAAAAAAAAAAAAAAQJ6BAgAAAAAAAAAAAAAAyDNQAAAAAAAAAAAAAAAAeQYKAAAAAAAAAAAAAAAgz0ABAAAAAAAAAAAAAADkGSgAAAAAAAAAAAAAAIA8AwUAAAAAAAAAAAAAAJBnoAAAAAAAAAAAAAAAAPIMFAAAAAAAAAAAAAAAQJ6BAgAAAAAAAAAAAAAAyDNQAAAAAAAAAAAAAAAAeQYKAAAAAAAAAAAAAAAgz0ABAAAAAAAAAAAAAADkGSgAAAAAAAAAAAAAAIA8AwUAAAAAAAAAAAAAAJBnoAAAAAAAAAAAAAAAAPIMFAAAAAAAAAAAAAAAQJ6BAgAAAAAAAAAAAAAAyDNQAAAAAAAAAAAAAAAAeQYKAAAAAAAAAAAAAAAgz0ABAAAAAAAAAAAAAADkGSgAAAAAAAAAAAAAAIA8AwUAAAAAAAAAAAAAAJBnoAAAAAAAAAAAAAAAAPIMFAAAAAAAAAAAAAAAQJ6BAgAAAAAAAAAAAAAAyDNQAAAAAAAAAAAAAAAAeQYKAAAAAAAAAAAAAAAgz0ABAAAAAAAAAAAAAADkGSgAAAAAAAAAAAAAAIA8AwUAAAAAAAAAAAAAAJBnoAAAAAAAAAAAAAAAAPIMFAAAAAAAAAAAAAAAQJ6BAgAAAAAAAAAAAAAAyDNQAAAAAAAAAAAAAAAAeQYKAAAAAAAAAAAAAAAgz0ABAAAAAAAAAAAAAADkGSgAAAAAAAAAAAAAAIA8AwUAAAAAAAAAAAAAAJBnoAAAAAAAAAAAAAAAAPIMFAAAAAAAAAAAAAAAQJ6BAgAAAAAAAAAAAAAAyDNQAAAAAAAAAAAAAAAAeQYKAAAAAAAAAAAAAAAgz0ABAAAAAAAAAAAAAADkGSgAAAAAAAAAAAAAAIA8AwUAAAAAAAAAAAAAAJBnoAAAAAAAAAAAAAAAAPIMFAAAAAAAAAAAAAAAQJ6BAgAAAAAAAAAAAAAAyDNQAAAAAAAAAAAAAADc7N3BUVxXGobhzy7vu8sBHMgAMpAmApQBLM4eZaDOwATgKnUG4wxMBiIElwM4NRl4FrQ8mhnLAgk4t//7PDsK6PsVGzb3rR8oT0ABAAAAAAAAAAAAAACUJ6AAAAAAAAAAAAAAAADKE1AAAAAAAAAAAAAAAADlCSgAAAAAAAAAAAAAAIDyBBQAAAAAAAAAAAAAAEB5AgoAAAAAAAAAAAAAAKC8H2YPAAAAAAB4gH2S28kbAAAAAAAAgCP23R9//DF7AwAAAAAAAAAAAAAAwLP6fvYAAAAAAAAAAAAAAACA5yagAAAAAAAAAAAAAAAAyhNQAAAAAAAAAAAAAAAA5QkoAAAAAAAAAAAAAACA8gQUAAAAAAAAAAAAAABAeQIKAAAAAAAAAAAAAACgPAEFAAAAAAAAAAAAAABQnoACAAAAAAAAAAAAAAAoT0ABAAAAAAAAAAAAAACUJ6AAAAAAAAAAAAAAAADKE1AAAAAAAAAAAAAAAADlCSgAAAAAAAAAAAAAAIDyBBQAAAAAAAAAAAAAAEB5AgoAAAAAAAAAAAAAAKA8AQUAAAAAAAAAAAAAAFCegAIAAAAAAAAAAAAAAChPQAEAAAAAAAAAAAAAAJQnoAAAAAAAAAAAAAAAAMoTUAAAAAAAAAAAAAAAAOUJKAAAAAAAAAAAAAAAgPIEFAAAAAAAAAAAAAAAQHkCCgAAAAAAAAAAAAAAoDwBBQAAAAAAAAAAAAAAUJ6AAgAAAAAAAAAAAAAAKE9AAQAAAAAAAAAAAAAAlCegAAAAAAAAAAAAAAAAyhNQAAAAAAAAAAAAAAAA5QkoAAAAAAAAAAAAAACA8gQUAAAAAAAAAAAAAABAeQIKAAAAAAAAAAAAAACgPAEFAAAAAAAAAAAAAABQnoACAAAAAAAAAAAAAAAoT0ABAAAAAAAAAAAAAACUJ6AAAAAAAAAAAAAAAADKE1AAAAAAAAAAAAAAAADlCSgAAAAAAAAAAAAAAIDyBBQAAAAAAAAAAAAAAEB5AgoAAAAAAAAAAAAAAKA8AQUAAAAAAAAAAAAAAFCegAIAAAAAAAAAAAAAAChPQAEAAAAAAAAAAAAAAJQnoAAAAAAAAAAAAAAAAMoTUAAAAAAAAAAAAAAAAOUJKAAAAAAAAAAAAAAAgPIEFAAAAAAAAAAAAAAAQHkCCgAAAAAAAAAAAAAAoDwBBQAAAAAAAAAAAAAAUJ6AAgAAAAAAAAAAAAAAKE9AAQAAAAAAAAAAAAAAlCegAAAAAAAAAAAAAAAAyhNQAAAAAAAAAAAAAAAA5QkoAAAAAAAAAAAAAACA8gQUAAAAAAAAAAAAAABAeQIKAAAAAAAAAAAAAACgPAEFAAAAAAAAAAAAAABQnoACAAAAAAAAAAAAAAAoT0ABAAAAAAAAAAAAAACUJ6AAAAAAAAAAAAAAAADKE1AAAAAAAAAAAAAAAADlCSgAAAAAAAAAAAAAAIDyBBQAAAAAAAAAAAAAAEB5AgoAAAAAAAAAAAAAAKA8AQUAAAAAAAAAAAAAAFCegAIAAAAAAAAAAAAAAChPQAEAAAAAAAAAAAAAAJQnoAAAAAAAAAAAAAAAAMoTUAAAAAAAAAAAAAAAAOUJKAAAAAAAAAAAAAAAgPIEFAAAAAAAAAAAAAAAQHkCCgAAAAAAAAAAAAAAoDwBBQAAAAAAAAAAAAAAUJ6AAgAAAAAAAAAAAAAAKE9AAQAAAAAAAAAAAAAAlCegAAAAAAAAAAAAAAAAyhNQAAAAAAAAAAAAAAAA5QkoAAAAAAAAAAAAAACA8gQUAAAAAAAAAAAAAABAeQIKAAAAAAAAAAAAAACgPAEFAAAAAAAAAAAAAABQnoACAAAAAAAAAAAAAAAoT0ABAAAAAAAAAAAAAACUJ6AAAAAAAAAAAAAAAADKE1AAAAAAAAAAAAAAAADlCSgAAAAAAAAAAAAAAIDyBBQAAAAAAAAAAAAAAEB5AgoAAAAAAAAAAAAAAKA8AQUAAAAAAAAAAAAAAFDeD7MHAMBMrY9tkvPZOwCKuPv95x//NXsESevjNMnp5BkAJfz+84+3szdwr/VxnmQ7ewdABf6/AQAAAACwVgIKANbuPMmvs0cAFPGPJLezR5AkuUrybvYIgCK+mz2AP90keTV7BEAR/r8BAAAAALBK388eAAAAAAAAAAAAAAAA8NwEFAAAAAAAAAAAAAAAQHkCCgAAAAAAAAAAAAAAoDwBBQAAAAAAAAAAAAAAUJ6AAgAAAAAAAAAAAAAAKE9AAQAAAAAAAAAAAAAAlCegAAAAAAAAAAAAAAAAyhNQAAAAAAAAAAAAAAAA5QkoAAAAAAAAAAAAAACA8gQUAAAAAAAAAAAAAABAeQIKAAAAAAAAAAAAAACgPAEFAAAAAAAAAAAAAABQnoACAAAAAAAAAAAAAAAoT0ABAAAAAAAAAAAAAACUJ6AAAAAAAAAAAAAAAADKE1AAAAAAAAAAAAAAAADlCSgAAAAAAAAAAAAAAIDyBBQAAAAAAAAAAAAAAEB5AgoAAAAAAAAAAAAAAKA8AQUAAAAAAAAAAAAAAFCegAIAAAAAAAAAAAAAAChPQAEAAAAAAAAAAAAAAJQnoAAAAAAAAAAAAAAAAMoTUAAAAAAAAAAAAAAAAOUJKAAAAAAAAAAAAAAAgPIEFAAAAAAAAAAAAAAAQHkCCgAAAAAAAAAAAAAAoDwBBQAAAAAAAAAAAAAAUJ6AAgAAAAAAAAAAAAAAKE9AAQAAAAAAAAAAAAAAlCegAAAAAAAAAAAAAAAAyhNQAAAAAAAAAAAAAAAA5QkoAAAAAAAAAAAAAACA8gQUAAAAAAAAAAAAAABAeQIKAAAAAAAAAAAAAACgPAEFAAAAAAAAAAAAAABQnoACAAAAAAAAAAAAAAAoT0ABAAAAAAAAAAAAAACUJ6AAAAAAAAAAAAAAAADKE1AAAAAAAAAAAAAAAADlCSgAAAAAAAAAAAAAAIDyBBQAAAAAAAAAAAAAAEB5AgoAAAAAAAAAAAAAAKA8AQUAAAAAAAAAAAAAAFCegAIAAAAAAAAAAAAAAChPQAEAAAAAAAAAAAAAAJQnoAAAAAAAAAAAAAAAAMoTUAAAAAAAAAAAAAAAAOUJKAAAAAAAAAAAAAAAgPIEFAAAAAAAAAAAAAAAQHkCCgAAAAAAAAAAAAAAoDwBBQAAAAAAAAAAAAAAUJ6AAgAAAAAAAAAAAAAAKE9AAQAAAAAAAAAAAAAAlCegAAAAAAAAAAAAAAAAyhNQAAAAAAAAAAAAAAAA5QkoAAAAAAAAAAAAAACA8gQUAAAAAAAAAAAAAABAeQIKAAAAAAAAAAAAAACgPAEFAAAAAAAAAAAAAABQnoACAAAAAAAAAAAAAAAoT0ABAAAAAAAAAAAAAACUJ6AAAAAAAAAAAAAAAADKE1AAAAAAAAAAAAAAAADlCSgAAAAAAAAAAAAAAIDyBBQAAAAAAAAAAAAAAEB5AgoAAAAAAAAAAAAAAKA8AQUAAAAAAAAAAAAAAFCegAIAAAAAAAAAAAAAAChPQAEAAAAAAAAAAAAAAJQnoAAAAAAAAAAAAAAAAMoTUAAAAAAAAAAAAAAAAOUJKAAAAAAAAAAAAAAAgPIEFAAAAAAAAAAAAAAAQHkCCgAAAAAAAAAAAAAAoDwBBQAAAAAAAAAAAAAAUJ6AAgAAAAAAAAAAAAAAKE9AAQAAAAAAAAAAAAAAlCegAAAAAAAAAAAAAAAAyhNQAAAAAAAAAAAAAAAA5QkoAAAAAAAAAAAAAACA8gQUAAAAAAAAAAAAAABAeQIKAAAAAAAAAAAAAACgPAEFAAAAAAAAAAAAAABQnoACAAAAAAAAAAAAAAAoT0ABAAAAAAAAAAAAAACUJ6AAAAAAAAAAAAAAAADKE1AAAAAAAAAAAAAAAADlCSgAAAAAAAAAAAAAAIDyBBQAAAAAAAAAAAAAAEB5AgoAAAAAAAAAAAAAAKA8AQUAAAAAAAAAAAAAAFCegAIAAAAAAAAAAAAAAChPQAEAAAAAAAAAAAAAAJQnoAAAAAAAAAAAAAAAAMoTUAAAAAAAAAAAAAAAAOUJKAAAAAAAAAAAAAAAgPIEFAAAAAAAAAAAAAAAQHkCCgAAAAAAAAAAAAAAoDwBBQAAAAAAAAAAAAAAUJ6AAgAAAAAAAAAAAAAAKE9AAQAAAAAAAAAAAAAAlCegAAAAAAAAAAAAAAAAyhNQAAAAAAAAAAAAAAAA5QkoAAAAAAAAAAAAAACA8gQUAAAAAAAAAAAAAABAeQIKAAAAAAAAAAAAAACgPAEFAAAAAAAAAAAAAABQnoACAAAAAAAAAAAAAAAoT0ABAAAAAAAAAAAAAACUJ6AAAAldt/cAACAASURBVAAAAAAAAAAAAADKE1AAAAAAAAAAAAAAAADlCSgAAAAAAAAAAAAAAIDyBBQAAAAAAAAAAAAAAEB5AgoAAAAAAAAAAAAAAKA8AQUAAAAAAAAAAAAAAFCegAIAAAAAAAAAAAAAAChPQAEAAAAAAAAAAAAAAJQnoAAAAAAAAAAAAAAAAMoTUAAAAAAAAAAAAAAAAOUJKAAAAAAAAAAAAAAAgPIEFAAAAAAAAAAAAAAAQHkCCgAAAAAAAAAAAAAAoDwBBQAAAAAAAAAAAAAAUJ6AAgAAAAAAAAAAAAAAKE9AAQAAAAAAAAAAAAAAlCegAAAAAAAAAAAAAAAAyhNQAAAAAAAAAAAAAAAA5QkoAAAAAAAAAAAAAACA8gQUAAAAAAAAAAAAAABAeQIKAAAAAAAAAAAAAACgPAEFAAAAAAAAAAAAAABQnoACAAAAAAAAAAAAAAAoT0ABAAAAAAAAAAAAAACUJ6AAAAAAAAAAAAAAAADKE1AAAAAAAAAAAAAAAADlCSgAAAAAAAAAAAAAAIDyBBQAAAAAAAAAAAAAAEB5AgoAAAAAAAAAAAAAAKA8AQUAAAAAAAAAAAAAAFCegAIAAAAAAAAAAAAAAChPQAEAAAAAAAAAAAAAAJQnoAAAAAAAAAAAAAAAAMoTUAAAAAAAAAAAADxS6+Nt6+O31sfr2VsAAICHEVAAAAAAAAAAAAA8QuvjNMkuyUmSX1sfN62P7dRRAADAFwkoAAAAAAAAAAAAHmefZPPJ19dJ7lyjAACAZRNQAAAAAAAAAAAAPFDr422SV3/xLdcoAABg4QQUAAAAAAAAAAAAD9D6OE2y+8KPuUYBAAALJaAAAAAAAAAAAAB4mH2SzQN+zjUKAABYIAEFAAAAAAAAAADAF7Q+rpK8euSvuUYBAAALIqAAAAAAAAAAAAD4G4crEjdf+euuUQAAwEIIKAAAAAAAAAAAAP7ePsnmGz/DNQoAAJhMQAEAAAAAAAAAAPAZrY83SS6e6ONcowAAgIkEFAAAAAAAAAAAAH/hEDnsn+GjXaMAAIAJBBQAAAAAAAAAAAB/bZ9k80yf7RoFAAC8MAEFAAAAAAAAAADA/2h9vEly8QKP+niN4vwFngUAAKsmoAAAAAAAAAAAAPjE4SLE/gUfeZLkQ+tj94LPBACA1RFQAAAAAAAAAAAA/Ld9ks2E575rfbhGAQAAz0RAAQAAAAAAAAAAcND6eJPkYuKEs7hGAQAAz0JAAQAAAAAAAAAAkKT1sc399YklcI0CAACemIACAAAAAAAAAADg3j7JZvaIT7hGAQAAT0hAAQAAAAAAAAAArF7r402Si9k7PsM1CgAAeAICCgAAAAAAAAAAYNVaH9vcX59YMtcoAADgGwkoAAAAAAAAAACAtdsn2cwe8UCuUQAAwFcSUAAAAAAAAAAAAKvV+niT5GL2jkdyjQIAAL6CgAIAAAAAAAAAAFil1sc299cnjpVrFAAA8AgCCgAAAAAAAAAAYK32STazR3wj1ygAAOCBBBQAAAAAAAAAAMDqtD7eJLmYveMJuUYBAABfIKAAAAAAAAAAAABWpfWxzf31iWrOkty2Pt7OHgIAAEskoAAAAAAAAAAAANZml2Qze8Qz2ST5qfVx2/o4nT0GAACWREABAAAAAAAAAACsRuvjdZLr2TtewKskd65RAADAfwgoAAAAAAAAAACAVWh9bJPsZ+94Qa5RAADAJwQUAAAAAAAAAADAWuySnMweMYFrFAAAEAEFAAAAAAAAAACwAq2P10muZ++YyDUKAABWT0ABAAAAAAAAAACU1vrYJtnP3rEQrlEAALBaAgoAAAAAAAAAAKC6XZKT2SMWxDUKAABWSUABAAAAAAAAAACU1fp4neR69o6Fco0CAIBVEVAAAAAAAAAAAAAltT62Sfazdyzcp9cotrPHAADAcxJQAAAAAAAAAAAAVe2SnMwecSQ+XqM4nz0EAACei4ACAAAAAAAAAAAop/XxOsn17B1H5iTJh9bH1ewhAADwHAQUAAAAAAAAAABAKa2PbZL97B1H7H3rYz97BAAAPDUBBQAAAAAAAAAAUM0u99cU+HqXrY+7Q4wCAAAlCCgAAAAAAAAAAIAyWh+vk1zP3lHEWZLfDn9TAAA4egIKAAAAAAAAAACghMO1hP3sHcVskvza+ng7ewgAAHwrAQUAAAAAAAAAAFDFLsnJ7BFF/dT62B8iFQAAOEoCCgAAAAAAAAAA4Oi1Pl4nuZ69o7jLJLetj9PZQwAA4GsIKAAAAAAAAAAAgKN2uIqwn71jJc6S3LU+zmcPAQCAxxJQAAAAAAAAAAAAx26X5GT2iBXZJPnQ+riaPQQAAB5DQAEAAAAAAAAAABytwyWE69k7Vup962M/ewQAADyUgAIAAAAAAAAAADhm+9kDVu6y9XHX+tjOHgIAAF8ioAAAAAAAAAAAAI5S62OX5Gz2DnKW5O5wDQQAABZLQAEAAAAAAAAAABydw8v672bv4E8nSW5bH1ezhwAAwOcIKAAAAAAAAAAAgGO0nz2A/7NJ8v5wGQQAABZHQAEAAAAAAAAAAByVwwv6Z7N38FnvWh+/tD62s4cAAMCnBBQAAAAAAAAAAMDRaH2cJ3k3ewdfdJHktvVxOnsIAAB8JKAAAAAAAAAAAACOyX72AB7sLMndIXoBAIDpBBQAAAAAAAAAAMBRaH3scv9SPsdjk+RD6+Nq9hAAABBQAAAAAAAAAAAAi3e4YvBu9g6+2vtDAAMAANMIKAAAAAAAAAAAgGNwM3sA3+xd62Pf+tjOHgIAwDoJKAAAAAAAAAAAgEVrfbxN8mr2Dp7EZZJbEQUAADMIKAAAAAAAAAAAgMVqfZwm2U2ewdM6S/Jb6+N89hAAANZFQAEAAAAAAAAAACzZTZLN7BE8uU3uL1G8mT0EAID1EFAAAAAAAAAAAACLdHi5/mL2Dp7NJsk/Wx9Xs4cAALAOAgoAAAAAAAAAAGBxWh/bJPvZO3gR71sf+9kjAACoT0ABAAAAAAAAAAAs0S73FwpYh8vWxy+HcAYAAJ6FgAIAAAAAAAAAAFiU1sd5kuvZO3hxF0luRRQAADwXAQUAAAAAAAAAALA0+9kDmOYsyd0hogEAgCcloAAAAAAAAAAAABaj9fE29y/Rs14nub9EIaIAAOBJCSgAAAAAAAAAAIBFaH1sk+xm72ARNkk+tD6uZg8BAKAOAQUAAAAAAAAAALAUN7l/cR4+en+4SgIAAN9MQAEAAAAAAAAAAEzX+nid5HL2Dhbpp9bHfvYIAACOn4ACAAAAAAAAAABYgpvZA1i0y9bHL62P7ewhAAAcLwEFAAAAAAAAAAAwVevjbZKz2TtYvIsktyIKAAC+loACAAAAAAAAAACY5vAy/G72Do7GWe4jitPZQwAAOD4CCgAAAAAAAAAAYKabJJvZIzgqZ0nuWh/ns4cAAHBcBBQAAAAAAAAAAMAUhxfgL2fv4Chtcn+JQkQBAMCDCSgAAAAAAAAAAIBZbmYP4KhtknxofVzNHgIAwHEQUAAAAAAAAAAAAC/u8NL7q9k7+Dd793LcVpalYXSrouZAyIADtAWAB7xlgdgWEIMzT3oglAVFAxQhmqCyoNUWdHpQGTLgVJYF7AGZT4kiSOLefR9rjTX4JgIipPNjz8JHIwoAAE5hQAEAAAAAAAAAAAyq1LaOiGN2B7PysdTmogkAAN9lQAEAAAAAAAAAAAztOiI22RHMzg+lttvsCAAAxsuAAgAAAAAAAAAAGEypbRv3Awrow5URBQAAjzGgAAAAAAAAAAAAhnSMiFV2BLN2VWr7sdS2zg4BAGBcDCgAAAAAAAAAAIBBlNq6iLjK7mARdhHx2YgCAIDfM6AAAAAAAAAAAACGcswOYFGMKAAA+AMDCgAAAAAAAAAAoHeltsuIuMjuYHF2EfFjqW2fHQIAQD4DCgAAAAAAAAAAYAg32QEs1ibuL1EYUQAALJwBBQAAAAAAAAAA0KtS2yHuH7FDllUYUQAALJ4BBQAAAAAAAAAA0JtS2zpcn2AcjCgAABbOgAIAAAAAAAAAAOjTddw/XIcx+GVEccgOAQBgeAYUAAAAAAAAAABALx6uT1xnd8CfrCLioxEFAMDyGFAAAAAAAAAAAAB9uQnXJxgvIwoAgIUxoAAAAAAAAAAAAM6u1LaNiKvsDniCEQUAwIIYUAAAAAAAAAAAAH04ZgfAiYwoAAAWwoACAAAAAAAAAAA4K9cnmCAjCgCABTCgAAAAAAAAAAAAzu02OwBe4GOp7SY7AgCA/hhQAAAAAAAAAAAAZ1Nq6yLiIrsDXuiHUtttdgQAAP0woAAAAAAAAAAAAM7pmB0Ar3RlRAEAME8GFAAAAAAAAAAAwFm4PsGMGFEAAMyQAQUAAAAAAAAAAHAux+wAOCMjCgCAmTGgAAAAAAAAAAAAXs31CWbKiAIAYEYMKAAAAAAAAAAAgHM4ZgdAT4woAABmwoACAAAAAAAAAAB4FdcnWAAjCgCAGTCgAAAAAAAAAAAAXuuYHQADMKIAAJg4AwoAAAAAAAAAAODFXJ9gYYwoAAAmzIACAAAAAAAAAAB4jWN2AAzMiAIAYKIMKAAAAAAAAAAAgBdxfYIFM6IAAJggAwoAAAAAAAAAAOCljtkBkMiIAgBgYgwoAAAAAAAAAACAZ3N9AiLCiAIAYFIMKAAAAAAAAAAAgJc4ZgfASFyV2o7ZEQAAPM2AAgAAAAAAAAAAeBbXJ+Ar70tth+wIAAC+z4ACAAAAAAAAAAB4rmN2AIzQRyMKAIBxM6AAAAAAAAAAAABOVmrbhusT8BgjCgCAETOgAAAAAAAAAAAAnuOYHQAjZ0QBADBSBhQAAAAAAAAAAMBJHq5PXGV3wAQYUQAAjJABBQAAAAAAAAAAcKpjdgBMyMdSW5cdAQDAbwwoAAAAAAAAAACAJ5Xa1uH6BDzXp1LbPjsCAIB7BhQAAAAAAAAAAMAprrMDYIJWEfHZiAIAYBwMKAAAAAAAAAAAgO96uD5hQAEvY0QBADASBhQAAAAAAAAAAMBTDnH/CBx4mV9GFOvsEACAJTOgAAAAAAAAAAAAnuL6BLyeEQUAQDIDCgAAAAAAAAAA4FGltkNEbLI7YCZ2YUQBAJDGgAIAAAAAAAAAAPge1yfgvHYR8Tk7AgBgiQwoAAAAAAAAAACAbyq1dXH/2Bs4r12p7TY7AgBgaQwoAAAAAAAAAACAx7g+Af25MqIAABiWAQUAAAAAAAAAAPCVUts2It5ld8DMXZXajtkRAABLYUABAAAAAAAAAAB8yzE7ABbifantkB0BALAEBhQAAAAAAAAAAMAflNrWEXGZ3QEL8tGIAgCgfwYUAAAAAAAAAADAnx0iYpUdAQvzsdS2z44AAJgzAwoAAAAAAAAAAODPrrMDYKE+G1EAAPTHgAIAAAAAAAAAAPhVqe0yIjbZHbBQq7gfUayzQwAA5siAAgAAAAAAAAAA+D3XJyCXEQUAQE8MKAAAAAAAAAAAgIiIKLVtI+IiuwOIXUR8yo4AAJgbAwoAAAAAAAAAAOAXx+wA4FcXpbbb7AgAgDkxoAAAAAAAAAAAAKLUto6Iy+wO4A+uSm3H7AgAgLkwoAAAAAAAAAAAACLuxxOr7AjgK+9LbYfsCACAOTCgAAAAAAAAAAAAIiKO2QHAoz6W2rrsCACAqTOgAAAAAAAAAACAhXt4mL3J7gC+61OpbZ8dAQAwZQYUAAAAAAAAAADAITsAeNIq7kcU6+wQAICpMqAAAAAAAAAAAIAFe3iMfZXdAZxkExGfjSgAAF7GgAIAAAAAAAAAAJbtOjsAeJZdRNxkRwAATJEBBQAAAAAAAAAALNshOwB4tqtS2zE7AgBgagwoAAAAAAAAAABgoUptlxGxye4AXuR9qe2QHQEAMCUGFAAAAAAAAAAAsFyH7ADgVT6W2vbZEQAAU2FAAQAAAAAAAAAAC1Rq20bEu+wO4NU+P/x9BgDgCQYUAAAAAAAAAACwTJfZAcBZrCLiU6ltnR0CADB2BhQAAAAAAAAAALBM19kBwNnsIuI2OwIAYOwMKAAAAAAAAAAAYGFKbV1EbLI7gLN6V2o7ZkcAAIyZAQUAAAAAAAAAACzPITsA6MX7UtshOwIAYKwMKAAAAAAAAAAAYEFKbeuIuMruAHpzU2rbZ0cAAIyRAQUAAAAAAAAAACzLZXYA0KtVRHx6GEsBAPA7BhQAAAAAAAAAALAs19kBQO82EfE5OwIAYGwMKAAAAAAAAAAAYCFKbfuI2GV3AIPYldpusyMAAMbEgAIAAAAAAAAAAJbjkB0ADOqq1HbIjgAAGAsDCgAAAAAAAAAAWI5DdgAwuI8P12cAABbPgAIAAAAAAAAAABag1HYZEavsDiDF51LbOjsCACCbAQUAAAAAAAAAACzDZXYAkGYVEZ+yIwAAshlQAAAAAAAAAADAzD388vxVdgeQ6qLUdpMdAQCQyYACAAAAAAAAAADmz/UJICLih1LbITsCACCLAQUAAAAAAAAAAMzfdXYAMBo3pbZ9dgQAQAYDCgAAAAAAAAAAmLFS2zYidtkdwGisIuK21LbODgEAGJoBBQAAAAAAAAAAzNtldgAwOruIuM2OAAAYmgEFAAAAAAAAAADM23V2ADBK70ptPh8AgEUxoAAAAAAAAAAAgJkqte0jYpPdAYzWPx4+JwAAFsGAAgAAAAAAAAAA5uuQHQCM3qdS2zo7AgBgCAYUAAAAAAAAAAAwX5fZAcDobSLiNjsCAGAIBhQAAAAAAAAAADBDpbYu7h9GAzzlXantmB0BANA3AwoAAAAAAAAAAJinQ3YAMCnvH4ZXAACzZUABAAAAAAAAAADzdJkdAEzOp1LbOjsCAKAvBhQAAAAAAAAAADAzpbbLiFhldwCTs4qI2+wIAIC+GFAAAAAAAAAAAMD8uD4BvNS7Utt1dgQAQB8MKAAAAAAAAAAAYH4MKIDX+EepbZ8dAQBwbgYUAAAAAAAAAAAwI6W2y4hYZXcAk/ep1LbOjgAAOCcDCgAAAAAAAAAAmBfXJ4Bz2ETEbXYEAMA5GVAAAAAAAAAAAMC8GFAA5/Ku1HbIjgAAOBcDCgAAAAAAAAAAmIlS22VErLI7gFm5KbVtsyMAAM7BgAIAAAAAAAAAAObD9Qng3FYR8Sk7AgDgHAwoAAAAAAAAAABgPgwogD7sSm032REAAK9lQAEAAAAAAAAAADNQaruM+1+KB+jDD6W2LjsCAOA1DCgAAAAAAAAAAGAeXJ8A+nZbaltnRwAAvJQBBQAAAAAAAAAAzEOXHQDM3iYibrMjAABeyoACAAAAAAAAAAAmrtS2j/uHzQB9e1dqc/EGAJgkAwoAAAAAAAAAAJi+Q3YAsCi3pbZtdgQAwHMZUAAAAAAAAAAAwPT5NXhgSKuIuM2OAAB4LgMKAAAAAAAAAACYsFLbPiI22R3A4lyU2q6zIwAAnsOAAgAAAAAAAAAApq3LDgAW6x8PIy4AgEkwoAAAAAAAAAAAgGk7ZAcAi3abHQAAcCoDCgAAAAAAAAAAmKhS2zYidtkdwKLtSm3H7AgAgFMYUAAAAAAAAAAAwHR12QEAEfG+1LbPjgAAeIoBBQAAAAAAAAAATNdldgDAg9vsAACApxhQAAAAAAAAAADAdL3LDgB4sCu1HbMjAAC+x4ACAAAAAAAAAAAmqNTm+gQwNu9LbfvsCACAxxhQAAAAAAAAAADANBlQAGN0mx0AAPAYAwoAAAAAAAAAAJimLjsA4Bt2pbZjdgQAwLcYUAAAAAAAAAAAwMSU2vYRscnuAHjE+4fPKQCAUTGgAAAAAAAAAACA6emyAwCecJsdAADwZwYUAAAAAAAAAAAwPZfZAQBP2JXajtkRAAC/Z0ABAAAAAAAAAAATUmpbR8RFdgfACa5LbdvsCACAXxhQAAAAAAAAAADAtHTZAQAnWkXEbXYEAMAvDCgAAAAAAAAAAGBaLrMDAJ7hotR2nR0BABAR8dfsAABI9lNE/D07AmAmfsoO4FefswMAoAe34TsOAAAAftFlBwA807HUdvvlw9ufs0MAgGV7c3d3l90AAAAAAAAAAACcoNS2j4j/y+4AeIF/fvnw1gUdACDVX7IDAAAAAAAAAACAk3XZAQAv9K7UZkABAKQyoAAAAAAAAAAAgOnosgMAXuGm1LbOjgAAlsuAAgAAAAAAAAAApuNddgDAK2wi4pgdAQAslwEFAAAAAAAAAABMQKmty24AOIMfSm377AgAYJkMKAAAAAAAAAAAYBouswMAzuQmOwAAWCYDCgAAAAAAAAAAmIYuOwDgTC5KbdfZEQDA8ry5u7vLbgAAAAAAAAAAAL6j1LaOiH9ndwCc0X8iYvvlw9ufs0MAgOVwgQIAAAAAAAAAAMavyw4AOLNVRNxkRwAAy2JAAQAAAAAAAAAA43eZHQDQg6tSW5cdAQAshwEFAAAAAAAAAACMX5cdANATVygAgMEYUAAAAAAAAAAAwIiV2rYRscnuAOjJrtR2nR0BACyDAQUAAAAAAAAAAIxblx0A0LNjqW2dHQEAzJ8BBQAAAAAAAAAAjFuXHQDQs1VE3GRHAADzZ0ABAAAAAAAAAADj1mUHAAzgqtS2z44AAObNgAIAAAAAAAAAAEaq1LaNiE12B8BAXKEAAHplQAEAAAAAAAAAAOPVZQcADOii1HbIjgAA5suAAgAAAAAAAAAAxqvLDgAY2LHUts6OAADmyYACAAAAAAAAAADGq8sOABjYJiKusyMAgHl6c3d3l90AAAAAAAAAAAD8SaltGxH/yu4ASPCfiNh/+fD2p+wQAGBeXKAAAAAAAAAAAIBx6rIDAJKsIuKYHQEAzI8BBQAAAAAAAAAAjNM+OwAg0VWprcuOAADmxYACAAAAAAAAAADGqcsOAEh2zA4AAOblzd3dXXYDAAAAAAAAAADwO6W2dUT8O7sDYAT++8uHt5+yIwCAeXCBAgAAAAAAAAAAxqfLDgAYiZvsAABgPgwoAAAAAAAAAABgfPbZAQAjsSm1XWdHAADzYEABAAAAAAAAAADj02UHAIzIsdS2zo4AAKbPgAIAAAAAAAAAAMbnIjsAYERWEeEKBQDwagYUAAAAAAAAAAAwIqW2LrsBYISuS23b7AgAYNoMKAAAAAAAAAAAYFz22QEAI7SKiGN2BAAwbQYUAAAAAAAAAAAwLl12AMBIXblCAQC8hgEFAAAAAAAAAACMiwsUAI+7yQ4AAKbrzd3dXXYDAAAAAAAAAAAQEQ+/rP6v7A6Akfvblw9vP2dHAADT4wIFAAAAAAAAAACMh+sTAE87ZgcAANNkQAEAAAAAAAAAAOPRZQcATMBFqa3LjgAApseAAgAAAAAAAAAAxsMFCoDTHLMDAIDpMaAAAAAAAAAAAIDxuMgOAJgIVygAgGczoAAAAAAAAAAAgBEotbk+AfA8t9kBAMC0GFAAAAAAAAAAAMA4dNkBABOzKbUdsiMAgOkwoAAAAAAAAAAAgHFwgQLg+Y7ZAQDAdBhQAAAAAAAAAADAOBhQADyfKxQAwMkMKAAAAAAAAAAAYBx22QEAE3XMDgAApsGAAgAAAAAAAAAAkpXauuwGgAlzhQIAOIkBBQAAAAAAAAAA5NtnBwBM3DE7AAAYPwMKAAAAAAAAAADIZ0AB8DquUAAATzKgAAAAAAAAAACAfAYUAK93zA4AAMbNgAIAAAAAAAAAAPLtsgMAZmBTarvMjgAAxsuAAgAAAAAAAAAAEpXauuwGgBm5zg4AAMbLgAIAAAAAAAAAAHLtswMAZuTCMA0AeIwBBQAAAAAAAAAA5DKgADivY3YAADBOBhQAAAAAAAAAAJBrmx0AMDOuUAAA32RAAQAAAAAAAAAAuS6yAwBm6JgdAACMjwEFAAAAAAAAAAAkKbXtsxsAZuqi1LbNjgAAxsWAAgAAAAAAAAAA8myzAwBm7JgdAACMiwEFAAAAAAAAAADkcYECoD9XrlAAAL9nQAEAAAAAAAAAAHm67ACAmbvODgAAxsOAAgAAAAAAAAAA8myzAwBm7lBqW2dHAADjYEABAAAAAAAAAAAJHh70brI7AGZuFa5QAAAPDCgAAAAAAAAAACDHPjsAYCEO2QEAwDgYUAAAAAAAAAAAQA4DCoBhbEpth+wIACCfAQUAAAAAAAAAAOTYZgcALMgxOwAAyGdAAQAAAAAAAAAAOVygABjOptTWZUcAALkMKAAAAAAAAAAAIIcBBcCwrrMDAIBcb+7u7rIbAAAAAAAAAABgUUpt64j4d3YHwAL915cPb3/KjgAAcrhAAQAAAAAAAAAAw3N9AiDHMTsAAMhjQAEAAAAAAAAAAMMzoADIcflwBQgAWCADCgAAAAAAAAAAGN42OwBgoVYRcciOAAByGFAAAAAAAAAAAMDwXKAAyHOdHQAA5DCgAAAAAAAAAACA4RlQAOTZlNousyMAgOEZUAAAAAAAAAAAwIBKbeuIWGV3ACzcITsAABieAQUAAAAAAAAAAAzL9QmAfO9KbdvsCABgWAYUAAAAAAAAAAAwrG12AAAREXGdHQAADMuAAgAAAAAAAAAAhrXNDgAgIiIO2QEAwLAMKAAAAAAAAAAAYFhddgAAERGxKrUdsiMAgOEYUAAAAAAAAAAAwLDW2QEA/OqQHQAADMeAAgAAAAAAAAAAhrXLDgDgVxeltm12BAAwDAMKAAAAAAAAAAAYiEe6AKN0nR0AAAzDgAIAAAAAAAAAAIazzQ4A4CuH7AAAYBgGFAAAAAAAAAAAMJx9dgAAX1mV2g7ZEQBA/wwoAAAAAAAAAABgOOvsAAC+6ZAdAAD0z4ACAAAAAAAAAACG02UHAPBNF6W2bXYEANAvAwoAAAAAAAAAABiOCxQA43XIDgAA+mVAAQAAAAAAAAAAw9llBwDwqEN2AADQLwMKAAAAAAAAAAAYQKltm90AwHdtSm2X2REAQH8MKAAAAAAAAAAAYBjb7AAAnmRAAQAzOVUmLAAAIABJREFUZkABAAAAAAAAAADD2GYHAPCkq1LbOjsCAOiHAQUAAAAAAAAAAAxjmx0AwElcoQCAmTKgAAAAAAAAAACAYWyzAwA4yXV2AADQj7+e+gcfTlLte2wBWJKfvnx4+1N2BL7fAM7sxy8f3v6cHUFEqW0b/hMO4Cy+fHj7ObuBe6W2fUSsszsA5sD323iU2rrsBoCZ+PnLh7c/ZkfAibbZAQCcZFdq23rfAwDzc/KAIu4fl/5PXyEAC/P3iDhmRxARvt8AzulvEfE5O4KIiDhExPvsCICZeJMdwK9uIuIiOwJgJny/jYd/mwQ4j/+NiC47Ak60zQ4A4GSH8L4HAGbnL9kBAAAAAAAAAACwEJvsAABOdsgOAADOz4ACAAAAAAAAAAB6VmrbZjcA8CybUts+OwIAOC8DCgAAAAAAAAAA6N82OwCAZztkBwAA52VAAQAAAAAAAAAA/dtmBwDwbIfsAADgvAwoAAAAAAAAAACgf9vsAACebVVqu8yOAADOx4ACAAAAAAAAAAD6t84OAOBFDCgAYEYMKAAAAAAAAAAAoH/77AAAXsSAAgBmxIACAAAAAAAAAAAA4NtWpTYjCgCYCQMKAAAAAAAAAADo30V2AAAvZkABADNhQAEAAAAAAAAAAADwOAMKAJgJAwoAAAAAAAAAAOhRqW2f3QDAq6xKbUYUADADBhQAAAAAAAAAANCvdXYAAK9mQAEAM2BAAQAAAAAAAAAA/dpmBwDwagYUADADBhQAAAAAAAAAANCvbXYAAK+2KrUZUQDAxBlQAAAAAAAAAAAAADzNgAIAJs6AAgAAAAAAAAAA+tVlBwBwFgYUADBxBhQAAAAAAAAAAAAAT1uV2rrsCADg5QwoAAAAAAAAAACgX9vsAADOxhUKAJgwAwoAAAAAAAAAAOjXJjsAgLMxoACACTOgAAAAAAAAAAAAADjNptS2z44AAF7GgAIAAAAAAAAAAHrikS3ALLlCAQATZUABAAAAAAAAAAD9WWcHAHB2BhQAMFEGFAAAAAAAAAAAAACn25XattkRAMDzGVAAAAAAAAAAAEB/9tkBAPSiyw4AAJ7PgAIAAAAAAAAAAPqzzg4AoBeX2QEAwPMZUAAAAAAAAAAAAAA8z7vsAADg+QwoAAAAAAAAAACgP112AAD9KLW5QgEAE2NAAQAAAAAAAAAAAPB8XXYAAPA8BhQAAAAAAAAAAAAAz+cCBQBMjAEFAAAAAAAAAAD0Z58dAEBvNqW2bXYEAHA6AwoAAAAAAAAAAOjPKjsAgF65QgEAE2JAAQAAAAAAAAAAAPAyXXYAAHA6AwoAAAAAAAAAAOhBqW2d3QBA77rsAADgdAYUAAAAAAAAAADQj312AAC9W5XauuwIAOA0BhQAAAAAAAAAAAAAL9dlBwAApzGgAAAAAAAAAAAAAHi5y+wAAOA0BhQAAAAAAAAAANCPfXYAAIPYldrW2REAwNMMKAAAAAAAAAAAoB8e0wIsR5cdAAA8zYACAAAAAAAAAAAA4HW67AAA4GkGFAAAAAAAAAAAAACv02UHAABPM6AAAAAAAAAAAIB+7LMDABjMrtS2zo4AAL7PgAIAAAAAAAAAAPrhIS3AsnTZAQDA9xlQAAAAAAAAAAAAALxelx0AAHyfAQUAAAAAAAAAAADA63XZAQDA9xlQAAAAAAAAAABAP9bZAQAMaldq89kPACNmQAEAAAAAAAAAAP3YZQcAMLguOwAAeJwBBQAAAAAAAAAAAMB5dNkBAMDjDCgAAAAAAAAAAAAAzqPLDgAAHmdAAQAAAAAAAAAAAHAeu+wAAOBxBhQAAAAAAAAAAAAAZ1Jq67IbAIBvM6AAAAAAAAAAAIAz83gWYNG67AAA4NsMKAAAAAAAAAAAAADOp8sOAAC+zYACAAAAAAAAAAAA4Hz22QEAwLcZUAAAAAAAAAAAAACcz6rUZkQBACNkQAEAAAAAAAAAAABwXgYUADBCBhQAAAAAAAAAAAAA59VlBwAAXzOgAAAAAAAAAACA89tmBwCQygUKABghAwoAAAAAAAAAADi/bXYAAKl22QEAwNcMKAAAAAAAAAAAAADOrNTWZTcAAH9kQAEAAAAAAAAAAABwfvvsAADgjwwoAAAAAAAAAAAAAM7PgAIARsaAAgAAAAAAAAAAAOD8uuwAAOCPDCgAAAAAAAAAAAAAzm9TaltnRwAAvzGgAAAAAAAAAAAAAOjHPjsAAPiNAQUAAAAAAAAAAABAPwwoAGBEDCgAAAAAAAAAAAAA+mFAAQAjYkABAAAAAAAAAADn58EsABG+DwBgVAwoAAAAAAAAAADg/NbZAQCMwi47AAD4jQEFAAAAAAAAAAAAQE9KbV12AwBwz4ACAAAAAAAAAAAAoD/b7AAA4J4BBQAAAAAAAAAAAEB/9tkBAMA9AwoAAAAAAAAAAACA/hhQAMBIGFAAAAAAAAAAAAAA9MeAAgBGwoACAAAAAAAAAAAAoD+rUts6OwIAMKAAAAAAAAAAAAAA6JsrFAAwAgYUAAAAAAAAAAAAAP0yoACAETCgAAAAAAAAAAAAAOjXNjsAADCgAAAAAAAAAAAAAOibCxQAMAIGFAAAAAAAAMD/s3d3N3EkWB+Hz47mHqsCKJOB/UZgMrAzMCvV/bARTE8Eg+9LmnYEiyOYJoJtItimAqiFCPxe0NgYg81HV536eB6phY0Z+q/Vrgav+tcHAACAbgkoAGAABBQAAAAAAAAAAAAA3dorq/ZF9ggAmDsBBQAAAAAAAAAAAED3XKEAgGQCCgAAAAAAAAAAAIDuCSgAIJmAAgAAAAAAAAAAAKB7L7IHAMDcCSgAAAAAAAAAAAAAuneQPQAA5k5AAQAAAAAAAAAAANA9FygAIJmAAgAAAAAAAAAAAKB7r7IHAMDcCSgAAAAAAAAAAAAAelBW7X72BgCYMwEFAAAAAAAAAAAAQD/2swcAwJwJKAAAAAAAAAAAYPc22QMAGKTX2QMAYM4EFAAAAAAAAAAAsHub7AEADNKL7AEAMGcCCgAAAAAAAAAAAIB+HGQPAIA5E1AAAAAAAAAAAAAAAACTJ6AAAAAAAAAAAAAA6Meb7AEAMGcCCgAAAAAAAAAAAICelFX7InsDAMyVgAIAAAAAAAAAAACgP6+zBwDAXAkoAAAAAAAAAAAAAACAyRNQAAAAAAAAAAAAAPTnIHsAAMyVgAIAAAAAAAAAAAAAAJg8AQUAAAAAAAAAAOzeOnsAAIN1kD0AAOZKQAEAAAAAAAAAALt3kT0AAACAbwkoAAAAAAAAAAAAAPrzOnsAAMyVgAIAAAAAAAAAAACgP3vZAwBgrgQUAAAAAAAAAAAAAD0qq3Y/ewMAzJGAAgAAAAAAAAAAAKBf+9kDAGCOBBQAAAAAAAAAALB7F9kDAAAA+JaAAgAAAAAAAAAAdqypi3X2BgAG7SB7AADM0a/ZAwAAAAAAAAAAAABgrsqqfR0RL259+kVEvL7nH7nr6+/6mr1nTtuVy4j4WVx68YOv2Wwf32jqYvWcUcA8CSgAAAAAAAAAAAAA+rWfPYDdKKv2duhwO264/fv9iHjZ/bJB2YuINw/4ureP+aZl1d716dNbv1/HVZxx5+9FGDA/AgoAAAAAAAAAAACAfu1nD+But65B/OjXQ7nuwLduhxo/DDduRRjn8fXSxc2LGN/8uqmLn13TAAZMQAEAAAAAAAAAAADApJVVe7D95c0Q4vpz+zG/qxB872V8+9+DOy9i3IgubgYXNy9brLYfN01dXP85MBACCgAAAAAAAAAA6MZp/ORdjwGYrdfZA6airNoX8fU/z4Ptx+tIYj+EEXTnZnBx82e+369/cSO2ON1+vA4tNtuHixbQMwEFAAAAAAAAAAAAQL/2sgeMxY1A4q6PrxKnwWO8ufXxizsii9X243VssW7q4iKAnRBQAAAAAAAAAAAAAJCmrNrbYcRBCCSYn59FFmdxFVSstp9ehQsW8GgCCgAAAAAAAAAAAICelVV70NTFKntHX8qq3Y+I/fg2ktiPiJdZm2BkroOi68Di94gvccVlXF2s2Gwf67iKK1Z9DoQxEFAAAAAAAAAAAEA31nHHOwgDwJRtr0nsx1UocR1L+PchdGsvrv539s3/1rZxxXnciCri6nLFpqmLTZ8DYSgEFAAAAAAAAAAA0I2L7AEA0JU7Qon9+PoO+cBwvNw+7rpccRZf44p1XIUV6/4nQn8EFAAAAAAAAAAAAAD9ex1X7wQ/aGXVvoirrQfxNZgQSsA0vNo+3l5/4p6wYu1iBVMhoAAAAAAAAAAAAADo34vsAbfduipxsP24lzgJyHFfWHEa34cVrq4xKgIKAAAAAAAAAADoxjp7AADcZxtL3Hy8yV0EjMCb7eP99SfKqj2PG0FFuFbBwAkoAAAAAAAAAACgG96NF4Af6e0CRVm1+/HtVQmxBLArL7ePm9cqLuMqpliFqIKBEVAAAAAAAAAAAAAA9O91F9+0rNoX8W0scRARe108F8A99uLrtYqI+C6qWMVVVCE4pncCCgAAAAAAAAAA6IYXhAHQue11iYP4Gku8SpwDcJ+bUcXvERFl1Z7HjUsVTV2sssYxHwIKAAAAAAAAAADoQFMX67Jqs2cAMDFl1V6HEtcP1yWAsXq5fbyNiNj+7Hwa30YVm6RtTJSAAgAAAAAAAAAAAKB/Lx7yRWXVHsTXWOJ1CCaAabu+UvFbxJcrFav4GlSs05YxCQIKAAAAAAAAAAAAgP69uuuTt4KJN/3NARiklxHxfvuIsmov42tQsRJU8FgCCgAAAAAAAAAA6M5pePErAD9QVu3r+BpMHIQLEwA/shcRb7cPQQWPJqAAAAAAAAAAAAAASFBW7UUIJgCe40dBxUlTF5usYQyTgAIAAAAAAAAAALpzkT0AgEETTwDs1s2g4s+yas/j26DCz+cz90v2AAAAAAAAAAAAmLB19gAAAJixlxHxPiL+ioj/lVW7Lqv2uKzag9xZZHGBAgAAAAAAAAAAAACAOXi1ffxWVu1lbC9TRMSqqYtN4i56IqAAAAAAAAAAAIDurCLi9+wRAADAd/Yi4u32EWXVnsXVz+/Lpi5ckpsoAQUAAAAAAAAAAAAAAHN3+zrFSUScNHVxkjuLXRJQAAAAAAAAAABAd7xzLQAAjM9eRLyPiPdl1UZEfIqvQcVF5jCe55fsAQAAAAAAAAAAMFVeXAUAAJPwNiL+ioj/lVW7Kqv2qKza/eRNPIELFAAAAAAAAAAA0K3ziHiZPQIAANiJN9vHn2XVnkXEMq4uU2wyR/EwLlAAAAAAAAAAAEC3NtkDAACATryKiD8j4r9l1a63lyleZI/ifgIKAAAAAAAAAADo1iZ7AAAA0LnrmOJ/ZdWelFV7KKYYHgEFAAAAAAAAAAB0a5M9AAAA6NXbiPgrrmKKZVm177IHceXX7AEAAAAAAAAAADBxm+wBAABAmvcR8b6s2suIWEbEsqmLde6k+RJQAAAAAAAAAABAtzbZAwAAgHR7EfFbRPxWVu1ZfI0pLlJXzcwv2QMAAAAAAAAAAGDiNtkDAACAQXkVEX9GxP/Kql2WVXuQvGc2BBQAAAAAAAAAANChpi422RsAAIDBeh8Rf5dVuymr9qis2hfZg6ZMQAEAAAAAAAAAAN07yx4AAAAM2stwlaJzv2YPAAAAAAAAAACAGbjIHgAAAIzG+4h4X1btWUQcR8RJUxf+TrEDLlAAAAAAAAAAAED3VtkDAACA0XkVEX9FxKas2kVZtfvJe0ZPQAEAAAAAAAAAAN3zbrEAAMBT7UXE7xHx37Jql2XVvs4eNFYCCgAAAAAAAAAA6N46ewAAADAJ7yPiP2XVrsqqPcgeMzYCCgAAAAAAAAAA6N4mewAAADApbyLi77JqN2XVHmaPGQsBBQAAAAAAAAAAdKypi032BgAAYJJeRsRfQoqHEVAAAAAAAAAAAEA/zrIHAAAAkyWkeAABBQAAAAAAAAAA9OMiewAAADB5QoofEFAAAAAAAAAAAEA/VtkDAACA2RBS3EFAAQAAAAAAAAAA/dhkDwAAAGbnZkhxkD0mm4ACAAAAAAAAAAD6sckeAAAAzNbLiPi7rNrVnEMKAQUAAAAAAAAAAPSgqYtV9gYAAGD23sRVSLEsq3Y/e0zfBBQAAAAAAAAAANCfy+wBAAAAEfE+ItZl1S6yh/RJQAEAAAAAAAAAAP1ZZw8AAADY2ouI38uq3ZRV+y57TB8EFAAAAAAAAAAA0B8BBQAAMDQvI+LfZdWelFW7nz2mSwIKAAAAAAAAAADozyZ7AAAAwD3eRsS6rNqj7CFdEVAAAAAAAAAAAEB/XKAAAACGbC8i/iyrdl1W7evsMbsmoAAAAAAAAAAAgP4IKAAAgDF4FRH/Kat2kT1klwQUAAAAAAAAAADQk6YuLiLiPHsHAADAA/0+pWsUAgoAAAAAAAAAAOjXJnsAAADAI0zmGoWAAgAAAAAAAAAA+rXKHgAAAPAEo79GIaAAAAAAAAAAAIB+bbIHAAAAPNGor1EIKAAAAAAAAAAAoF/r7AEAAADPNMprFAIKAAAAAAAAAADoUVMXAgoAAGAKXkXEqqzao+whDyWgAAAAAAAAAACA/p1lDwAAANiBvYj4s6zaVVm1+9ljfkZAAQAAAAAAAAAA/XOFAgAAmJI3EbEe+jUKAQUAAAAAAAAAAPRPQAEAAEzN4K9RCCgAAAAAAAAAAKB/AgoAAGCqBnuNQkABAAAAAAAAAAA9a+pilb0BAACgQ4O8RiGgAAAAAAAAAACAHGfZAwAAADo2qGsUAgoAAAAAAAAAAMixyR4AAADQg8FcoxBQAAAAAAAAAABAjnX2AAAAgB6lX6MQUAAAAAAAAAAAQI5V9gAAAICepV6jEFAAAAAAAAAAAECCpi5W2RsAAACSXF+jeNfnkwooAAAAAAAAAAAgz1n2AAAAgCR7EfHvsmpPyqp90ccTCigAAAAAAAAAACDPOnsAAABAsrcRsenjGoWAAgAAAAAAAAAA8ggoAAAAerpGIaAAAAAAAAAAAIA8AgoAAICvOr1GIaAAAAAAAAAAAIAkTV2ssjcAAAAMTGfXKAQUAAAAAAAAAACQ6zR7AAAAwADt/BqFgAIAAAAAAAAAAHKtswcAAAAM1E6vUQgoAAAAAAAAAAAg1yp7AAAAwMDt5BqFgAIAAAAAAAAAAHK5QAEAAPBzz75GIaAAAAAAAAAAAIBETV1sIuI8ewcAAMBIPPkahYACAAAAAAAAAADyuUIBAADwcNfXKI4fc41CQAEAAAAAAAAAAPlW2QMAAABG6LeIWJdVe/CQLxZQAAAAAAAAAABAvlX2AAAAgJF6GRF/P+QahYACAAAAAAAAAACSNXWxzt4AAAAwcj+9RiGgAAAAAAAAAACAYTjNHgAAADByP7xGIaAAAAAAAAAAAIBhWGUPAAAAmIg7r1EIKAAAAAAAAAAAYBhW2QMAAAAm5LtrFAIKAAAAAAAAAAAYgKYuVtkbAAAAJujLNQoBBQAAAAAAAAAADMdp9gAAAIAJehkRfwsoAAAAAAAAAABgOFbZAwAAACbqo4ACAAAAAAAAAACGY5U9AAAAYKIWAgoAAAAAAAAAABiIpi5W2RsAAAAm6GNTFxsBBQAAAAAAAAAADMtp9gAAAICJWURECCgAAAAAAAAAAGBYVtkDAAAAJuRjUxebCAEFAAAAAAAAAAAMzSp7AAAAwIQcX/9CQAEAAAAAAAAAAAPS1MUqewMAAMBEnDZ1sb7+jYACAAAAAAAAAACG51P2AAAAgAlY3PyNgAIAAAAAAAAAAIZnlT0AAABg5E5vX/gTUAAAAAAAAAAAwPCssgcAAACM3OL2JwQUAAAAAAAAAAAwME1drCPiMnsHAADASH13fSJCQAEAAAAAAAAAAEN1kj0AAABgpBZ3fVJAAQAAAAAAAAAAw7TKHgAAADBCZ3ddn4gQUAAAAAAAAAAAwFCtsgcAAACM0PF9fyCgAAAAAAAAAACAAWrqYhMRZ9k7AAAARuS8qYvlfX8ooAAAAAAAAAAAgOFaZQ8AAAAYkcWP/lBAAQAAAAAAAAAAw3WSPQAAAGAkfnh9IkJAAQAAAAAAAAAAg9XUxSoiLrN3AAAAjMDiZ18goAAAAAAAAAAAgGFbZQ8AAAAYuJ9en4gQUAAAAAAAAAAAwNCdZA8AAAAYuMVDvkhAAQAAAAAAAAAAw7bKHgAAADBglw+5PhEhoAAAAAAAAAAAgEFr6mITEWfZOwAAAAbq+KFfKKAAAAAAAAAAAIDhO8keAAAAMECXIaAAAAAAAAAAAIBJEVAAAAB877ipi4uHfrGAAgAAAAAAAAAABq6pi3VEnGfvAAAAGJBHXZ+IEFAAAAAAAAAAAMBYrLIHAAAADMijrk9ECCgAAAAAAAAAAGAsTrIHAAAADMSjr09ECCgAAAAAAAAAAGAUmroQUAAAAFx59PWJCAEFAAAAAAAAAACMyafsAQAAAMmedH0iQkABAAAAAAAAAABj4goFAAAwd8unXJ+IEFAAAAAAAAAAAMCYCCgAAIC5e9L1iQgBBQAAAAAAAAAAjMb2XVY/Ze8AAABI8rGpi81T/2EBBQAAAAAAAAAAjIsrFAAAwFwtnvMPCygAAAAAAAAAAGBcVtkDAAAAEjzr+kSEgAIAAAAAAAAAAEZl+4Khs+wdAAAAPVs89xsIKAAAAAAAAAAAYHyW2QMAAAB69OzrExECCgAAAAAAAAAAGKOT7AEAAAA9WuzimwgoAAAAAAAAAABgZLbvvHqWvQMAAKAHO7k+ESGgAAAAAAAAAACAsVpmDwAAAOjBYlffSEABAAAAAAAAAADjdJI9AAAAoGM7uz4RIaAAAAAAAAAAAIBR2r6I6DR7BwAAQIcWu/xmAgoAAAAAAAAAABivZfYAAACAjuz0+kSEgAIAAAAAAAAAAMbsJHsAAABAR5a7/oYCCgAAAAAAAAAAGKmmLi4i4lP2DgAAgB07bepitetvKqAAAAAAAAAAAIBxc4UCAACYmkUX31RAAQAAAAAAAAAA43YSEZfZIwAAAHakk+sTEQIKAAAAAAAAAAAYtaYuLsIVCgAAYDoWXX1jAQUAAAAAAAAAAIyfgAIAAJiCzq5PRAgoAAAAAAAAAABg9Jq6OImIy+wdAAAAz7To8psLKAAAAAAAAAAAYBqW2QMAAACeodPrExECCgAAAAAAAAAAmIpl9gAAAIBnWHT9BAIKAAAAAAAAAACYgKYu1hFxlr0DAADgCTq/PhEhoAAAAAAAAAAAgClZZg8AAAB4gkUfTyKgAAAAAAAAAACA6VhmDwAAAHikXq5PRAgoAAAAAAAAAABgMpq6uIiIT9k7AAAAHmHR1xMJKAAAAAAAAAAAYFqW2QMAAAAeqLfrExECCgAAAAAAAAAAmJSmLk4i4jJ7BwAAwAMs+nwyAQUAAAAAAAAAAEzPMnsAAADAT/R6fSJCQAEAAAAAAAAAAFN0nD0AAADgJxZ9P6GAAgAAAAAAAAAAJqapi01EnGbvAAAAuEfv1yciBBQAAAAAAAAAADBVy+wBAAAA9zjKeFIBBQAAAAAAAAAATFBTF8uIuMzeAQAAcMvHpi7WGU8soAAAAAAAAAAAgOlaZg8AAAC4ZZH1xAIKAAAAAAAAAACYruPsAQAAADd8bOpik/XkAgoAAAAAAAAAAJio7QuTTrN3AAAAbC0yn1xAAQAAAAAAAAAA07bMHgAAABARf2Ren4gQUAAAAAAAAAAAwKQ1dbGMiPPsHQAAwKxdRsRx9ggBBQAAAAAAAAAATN8yewAAADBri6YuLrJHCCgAAAAAAAAAAGD6ltkDAACA2Tpt6iL9+kSEgAIAAAAAAAAAACavqYtNRHzM3gEAAMzSInvANQEFAAAAAAAAAADMwzJ7AAAAMDunTV2sskdcE1AAAAAAAAAAAMAMbF+0dJa9AwAAmJVF9oCbBBQAAAAAAAAAADAfx9kDAACA2RjU9YkIAQUAAAAAAAAAAMxGUxfLiLjM3gEAAMzCYfaA2wQUAAAAAAAAAAAwL65QAAAAXfvY1MUme8RtAgoAAAAAAAAAAJgXAQUAANC1RfaAuwgoAAAAAAAAAABgRpq6uIiIj9k7AACAyfowxOsTEQIKAAAAAAAAAACYo0X2AAAAYJIuY8B/3xBQAAAAAAAAAADAzGzfDfY0ewcAADA5x9urd4MkoAAAAAAAAAAAgHlaZA8AAAAm5TwijrNH/IiAAgAAAAAAAAAAZqipi1VEnGXvAAAAJmMx5OsTEQIKAAAAAAAAAACYs0G/OywAADAaZ01dLLNH/IyAAgAAAAAAAAAAZmr7Aqfz7B0AAMDoHWUPeAgBBQAAAAAAAAAAzNsiewAAADBqp01drLJHPISAAgAAAAAAAAAAZmx7heIyewcAADBah9kDHkpAAQAAAAAAAAAAHGcPAAAARulDUxeb7BEPJaAAAAAAAAAAAACOwxUKAADgcS4jYpE94jEEFAAAAAAAAAAAMHNNXVyEKxQAAMDjLLZ/lxgNAQUAAAAAAAAAABDhCgUAAPBw501djC7CFlAAAAAAAAAAAACuUAAAAI9xmD3gKQQUAAAAAAAAAADANVcoAACAn/nU1MUqe8RTCCgAAAAAAAAAAICIcIUCAAB4kKPsAU8loAAAAAAAAAAAAG5yhQIAALjPH01dbLJHPJWAAgAAAAAAAAAA+MIVCgAA4B7nMfK/KwgoAAAAAAAAAACA21yhAAAAbjvaBtejJaAAAAAAAAAAAAC+4QoFAABwy2lTFyfZI55LQAEAAAAAAAAAANzFFQoAAODaYfaAXRBQAAAAAAAAAAAA33GFAgAA2PqjqYtN9ohdEFAAAAAAAAAAAAD3cYUCAADm7TwmFFYLKAAAAAAAAAAAgDttr1AssncAAABpjrZ/L5gEAQUAAAAAAAAAAHCvpi6O4+pdZwEAgHn51NTFSfaIXRJQAAAAAAAAAAAAP7PIHgAAAPRPRVR9AAAgAElEQVTqMiKOskfsmoACAAAAAAAAAAD4oaYuluEKBQAAzMmiqYtN9ohdE1AAAAAAAAAAAAAPcZg9AAAA6MVZUxfH2SO6IKAAAAAAAAAAAAB+qqmLVUScZu8AAAA6d5g9oCsCCgAAAAAAAAAA4KEW2QMAAIBOfWjqYp09oisCCgAAAAAAAAAA4EG2Vyg+Zu8AAAA6cR4Tj6YFFAAAAAAAAAAAwGMssgcAAACdOGzq4iJ7RJcEFAAAAAAAAAAAwIM1dbGJiD+ydwAAADv1cXtxbtIEFAAAAAAAAAAAwGMdR8Rl9ggAAGAnLiPiKHtEHwQUAAAAAAAAAADAozR1cREzeYEVAADMwOH2Z/zJE1AAAAAAAAAAAACP1tTFMiLOsncAAADP8qmpi5PsEX0RUAAAAAAAAAAAAE/lCgUAAIzXZUQcZo/ok4ACAAAAAAAAAAB4kqYuVhHxMXsHAADwJIdNXVxkj+iTgAIAAAAAAAAAAHiORVy9cy0AADAen5q6OMke0TcBBQAAAAAAAAAA8GRNXWwi4jh7BwAA8GCXEXGYPSKDgAIAAAAAAAAAAHiWpi4WEXGevQMAAHiQw6YuLrJHZBBQAAAAAAAAAAAAu3CYPQAAAPipT01dnGSPyCKgAAAAAAAAAAAAnq2pi1VEfMreAQAA3OsyZh4+CygAAAAAAAAAAIBdOYqrF2UBAADDc9jUxUX2iEwCCgAAAAAAAAAAYCeauthExCJ5BgAA8L0PTV2cZI/IJqAAAAAAAAAAAAB2pqmL44g4y94BAAB8cR5C54gQUAAAAAAAAAAAALt3mD0AAAD44rCpi4vsEUMgoAAAAAAAAAAAAHaqqYt1RHzI3gEAAMQfTV2sskcMhYACAAAAAAAAAADowiIizrNHAADAjJ01dbHIHjEkAgoAAAAAAAAAAGDnmrq4iIjD7B0AADBTlxHxLnvE0AgoAAAAAAAAAACATjR1sYqIj9k7AABgho6authkjxgaAQUAAAAAAAAAANClo7h691sAAKAfn5q6WGaPGCIBBQAAAAAAAAAA0JmmLi4i4jB7BwAAzMR5+Pn7XgIKAAAAAAAAAACgU01dnETEp+wdAAAwA++2ETN3EFAAAAAAAAAAAAB9OIyIy+wRAAAwYX80dbHOHjFkAgoAAAAAAAAAAKBz23fBPczeAQAAE3Xa1MUie8TQCSgAAAAAAAAAAIBeNHVxEhGfsncAAMDEXEbEu+wRYyCgAAAAAAAAAAAA+nQYEefZIwAAYELebS++8RMCCgAAAAAAAAAAoDfbF3YdZu8AAICJ+KOpi1X2iLEQUAAAAAAAAAAAAL3avsDrQ/YOAAAYudOmLhbZI8ZEQAEAAAAAAAAAAGRYRMRZ9ggAABipy4h4lz1ibAQUAAAAAAAAAABA75q6uIiIw+wdAAAwUu+2P1PzCAIKAAAAAAAAAAAgRVMX64j4V/YOAAAYmX81dbHKHjFGAgoAAAAAAAAAACBNUxfHEXGavQMAAEbi0/ZnaJ5AQAEAAAAAAAAAAGR7FxGX2SMAAGDgziPiMHvEmAkoAAAAAAAAAACAVE1dXMRVRAEAANztMiLebX925okEFAAAAAAAAAAAQLqmLlYR8SF7BwAADNRRUxfr7BFj9+sjvnYTEX90tANgblbZA/hiE/79BrArm+wBfLHKHgAAHViGf8cBMD3+v0mA3dhkDwB2p6mLo7JqDyLiVfYWAAAYkA9NXSyzR0zBPz5//py9AQAAAAAAAAAAICIiyqrdj4h1ROwlTwEAgCE4beriIHvEVPySPQAAAAAAAAAAAOBaUxebiDhMngEAAENwHhHvskdMiYACAAAAAAAAAAAYlKYuTiLiQ/YOAABIdBkR75q6uMgeMiX/+Pz5c/YGAAAAAAAAAACA75RVu4qIN9k7AAAgwT+bulhmj5gaFygAAAAAAAAAAIChehdX77wLAABz8kE80Q0XKAAAAAAAAAAAgMEqq/Z1RPwnewcAAPTkU1MX77JHTJULFAAAAAAAAAAAwGA1dbGOiH9m7wAAgB6cRcRh9ogpc4ECAAAAAAAAAAAYvLJqlxHxPnsHAAB05DIiXjd1sckeMmUCCgAAAAAAAAAAYBTKql1HxKvsHQAA0IH/215fo0O/ZA8AAAAAAAAAAAB4oIO4emdeAACYkn+KJ/ohoAAAAAAAAAAAAMbEC8sAAJiSD01dLLNHzIWAAgAAAAAAAAAAGLyyahcRsYmIN7lLAABgZz42dXGUPWJOfs0eAAAAAAAAAAAAcJ+yat9FxHFEvMzeAgAAO3QWEeKJnv3j8+fP2RsAAAAAAAAAAAC+UVbt67gKJ1ycAABgas4j4nVTFxfZQ+bGBQoAAAAAAAAAAGAwyqrdj4hFRLzPXQIAAJ24jIh34okcLlAAAAAAAAAAAADpyqp9ERFH28de8hwAAOjK/zV1sc4eMVcuUAAAAAAAAAAAAKnKqj2MiOMQTvw/e3d01MbhtXH4JON7M1uATAd2B6aD0EHIjArw1wHpQP/7vRAd4A6kDkQH0hagkSrgu1gRMBYggbRnd/U8MzsiRonfXCUz6OcDAEC//SOeyCWgAAAAAAAAAAAAUgyGy4uIGEfEl9wlAABwdP9UZTHOHnHqBBQAAAAAAAAAAECjNuHEdUR8z10CAACNuBFPtIOAAgAAAAAAAAAAaMRguDyPOpz4O3cJAAA05qYqi6vsEdT+uL+/z94AAAAAAAAAAAD02GC4PIuIUQgnAAA4LdOqLC6yR/DIBQoAAAAAAAAAAOAoNuHEj83zOXkOAAA06S4iLrNH8CsBBQAAAAAAAAAAcFDCCQAATtxdRFxUZbHKHsKv/ri/v8/eAAAAAAAAAAAA9MRguLyKiOuI+JK7BAAAUqwj4lw80U4uUAAAAAAAAAAAAB8mnAAAgFiHyxOtJqAAAAAAAAAAAADeTTgBAAAR8RhPzLKH8DIBBQAAAAAAAAAAsDfhBAAA/Ec80RECCgAAAAAAAAAAYGeD4fIiIkYR8TV5CgAAtMWVeKIbBBQAAAAAAAAAAMCbNuHEdUR8z10CAACt8k9VFrfZI9iNgAIAAAAAAAAAAHjRYLi8ijqc+JK7BAAAWuefqizG2SPYnYACAAAAAAAAAAD4jXACAABeJZ7oIAEFAAAAAAAAAADwH+EEAAC8STzRUQIKAAAAAAAAAABAOAEAALsRT3SYgAIAAAAAAAAAAE7UYLg8i4gfm+dz8hwAAGg78UTHCSgAAAAAAAAAAODECCcAAGBv4okeEFAAAAAAAAAAAMCJGAyX5xFxHRF/5y4BAIBOEU/0hIACAAAAAAAAAAB6bjBcXkTEVQgnAABgX+KJHhFQAAAAAAAAAABATw2Gy8uI+BER37O3AABAB4knekZAAQAAAAAAAAAAPTIYLs8i4jIiriPiS+4aAADoLPFEDwkoAAAAAAAAAACgBwbD5XlEXEV9ceJz6hgAAOg28URPCSgAAAAAAAAAAKDDBsPlRdThxN+5SwAAoBfEEz0moAAAAAAAAAAAgA4aDJdXUV+b+Jo8BQAA+kI80XMCCgAAAAAAAAAA6IjBcHke9bWJHxHxOXUMAAD0xzoirqqyuM0ewnEJKAAAAAAAAAAAoOUGw+VF1OHE37lLAACgd9YRcVGVxSx7CMcnoAAAAAAAAAAAgBYaDJdn8Xht4kvuGgAA6CXxxIkRUAAAAAAAAAAAQIsMhstvUUcTlxHxOXkOAAD0lXjiBAkoAAAAAAAAAAAg2ebaxGXU4cTX5DkAANB3dxFxWZXFPHsIzRJQAAAAAAAAAABAEtcmAACgcXdRX55YZQ+heQIKAAAAAAAAAABo0ObaxFXU4cSX3DUAAHBSxBMnTkABAAAAAAAAAAANGAyXl1Ffmvg7ewsAAJygm6osrrJHkEtAAQAAAAAAAAAARzIYLs+jvjRxGa5NAABAFvEEESGgAAAAAAAAAACAgxoMl2cRcbV5vqaOAQAA/qnKYpw9gnYQUAAAAAAAAAAAwAEMhsvLqKOJv5KnAAAANfEEvxBQAAAAAAAAAADAOw2Gy4uoo4nLiPicOgYAAHiwjoiLqixm2UNoFwEFAAAAAAAAAADsYTBcfovHaOJL7hoAAOCZRURciifYRkABAAAAAAAAAABvEE0AAEAn3EV9eWKVPYR2ElAAAAAAAAAAAMAWg+HyPOpg4ioivqaOAQAA3nITET/EE7xGQAEAAAAAAAAAABubSxMXIZoAAIAu+V9VFj+yR9B+AgoAAAAAAAAAAE7aJpq4ivraxJfcNQAAwJ7+qcpinD2CbhBQAAAAAAAAAABwckQTAADQeeuIuKjKYpY9hO4QUAAAAAAAAAAAcBIGw+Vl1MHEZUR8Tp4DAAC8311EXFZlMc8eQrcIKAAAAAAAAAAA6KXBcHkeERdRBxN/pY4BAAAO5WdEXFVlscoeQvcIKAAAAAAAAAAA6I3BcPktHq9MfE2eAwAAHNa/VVlcZ4+guwQUAAAAAAAAAAB01mC4PIvHKxMXEfElcw8AAHAU64j4UZXFOHsI3SagAAAAAAAAAACgUzZXJi6ijia+564BAACObBERl1VZzLKH0H0CCgAAAAAAAAAAWm1zZeLhwsRlRHxOHQQAADRlGnU8scoeQj8IKAAAAAAAAAAAaJ3BcPkQTFxExNfUMQAAQIb/VWXxI3sE/SKgAAAAAAAAAAAg3WC4vIjHYOJ75hYAACDVOiKuqrK4zR5C/wgoAAAAAAAAAABo3GC4/BaPwcRfqWMAAIC2uIs6nphlD6GfBBQAAAAAAAAAABzd5sLE02jic+IcAACgfW4i4kdVFqvsIfSXgAIAAAAAAAAAgIPbBBMPz/fMLQAAQOv9U5XFOHsE/SegAAAAAAAAAADgQwbD5Vk8xhLfQjABAADsZhERl1VZzLKHcBoEFAAAAAAAAAAA7GUwXH6Lx1jiIiK+ZO4BAAA66WdEXFVlscoewukQUAAAAAAAAAAA8KIn1yUeYgnXJQAAgI/6v6osRtkjOD0CCgAAAAAAAAAA/jMYLi/iMZj4Fq5LAAAAh7OIiMuqLGbZQzhNAgoAAAAAAAAAgBO1iSW+PXm+pg4CAAD67CYiflRlscoewukSUAAAAAAAAAAA9NxguDyLX0MJsQQAANCUddThxDh7CAgoAAAAAAAAAAB6ZDBcnkfEeURcxGMs8SVvEQAAcMLuIuKyKot59hCIEFAAAAAAAAAAAHTWYLi8iDqWeHpZ4nPiJAAAgAf/VmVxnT0CnhJQAAAAAAAAAAC03GC4/Ba/hxKuSgAAAG20iIirqiwm2UPgOQEFAAAAAAAAAEBLbAklziPia+IkAACAfdxExI+qLFbZQ2AbAQUAAAAAAAAAQIMGw+VZPMYR5xFxERFnIZQAAAC6ax311Ynb7CHwGgEFAAAAAAAAAMARbK5JnEUdSJzH42WJz2mjAAAADu9n1PGEqxO0noACAAAAAAAAAOCdnkUSTy9LfMlbBQAA0Ih1RFxXZTHKHgK7ElAAAAAAAAAAALxgMFw+jSKePi5JAAAAp2wa9dWJefYQ2IeAAgAAAAAAAAA4WU8CiW2vXxOnAQAAtJGrE3SagAIAAAAAAAAA6K3BcPkQQ5xvHoEEAADA+7g6QecJKAAAAAAAAACATtoSR0REXGxev0XE58ZHAQAA9I+rE/SGgAIAAAAAAAAAaJXBcHkevwcRT3/te5N7AAAATtjPiPjh6gR9IaAAAAAAAAAAAI5uMFyeRX0VIuLXGOLhikSEMAIAAKAt1hFxVZXFbfYQOCQBBQAAAAAAAADwLoPh8mn88NLXoggAAIBuuYn66sQqewgcmoACAAAAAAAAAHgeQzy9FhERcfHk628R8bmhWQAAADRnEfXViUn2EDgWAQUAAAAAAAAA9MhguLx48pfPQ4inkUSE6xAAAADU/q3K4jp7BBybgAIAAAAAAAAAWuLZFYiI3wOIiF+vQUSIIAAAAHi/adRXJ+bZQ6AJAgoAAAAAAAAA+IBnFx8ePA8hIn4PH84i4usRJgEAAMBb1lGHE7fZQ6BJAgoAAAAAAAAAem0wXJ5HxPkL377Y49fPI+LLR/cAAABAsv9FxHVVFqvsIdC0TxERg+FykrwDAAAAAHjdfPPQvEn2gAbM/JAEAGjCYLjcdpXhqbOoLze85DxeDiFccwAAAIDXTSPiR1UWs+whkOWP+/v7GAyX99lDAAAAAADgHabZA3awioi2/jCqrdtWfoAH8LbBcPlWbPCSiz3eu8/v8X3/KQAAAEADFlFfnBhnD4FsAgoAAAAAAIDdLaL9F4HaGsbsaxb1vwtsc5H0+751PWFfLiYAAAAAx/ZvRIxcoobap+wBAAAAAAAAHfJl87TdX9kDAAAAAIBUPyPiR1UW8+wh0CYCCgAAAAAAAAAAAACAfriLOpyYZA+BNhJQAAAAAAAAAAAAAAB02zrqcGKcPQTaTEABAAAAAAAAAAAAANBN64gYRcSoKotV9hhoOwEFAAAAAAAAAAAAAED33ETEdVUW8+wh0BUCCgAAAAAAAAAAAACA7phGxI+qLGbZQ6BrBBQAAAAAAAAAAAAAAO03jfrixCR7CHTVp8FweZY9AgAAAAAAAAAAAACArRZRhxPj7CHQdZ8i4lv2CAAAAAAAAAAAAAAAfiGcgAP7lD0AAAAAAAAAAAAAAID/rCNiVJXFdfYQ6BsBBQAAAAAAAAAAAABAvnVEjKKOJ1bZY6CPBBQAAAAAAAAAAAAAAHmEE9AQAQUAAAAAAAAAAAAAQPOEE9AwAQUAAAAAAAAAAAAAQHOEE5BEQAEAAAAAAAAAAAAAcHzCCUgmoAAAAAAAAAAAAAAAOB7hBLSEgAIAAAAAAAAAAAAA4PAWEXFdlcU4ewhQE1AAAAAAAAAAAAAAAByOcAJaSkABAAAAAAAAAAAAAPBx06jDiUn2EGA7AQUAAAAAAAAAAAAAwPvdRMRYOAHtJ6AAAAAAAAAAAAAAANjPOiLGETGqymKeOwXYlYACAAAAAAAAAAAAAGA3i4gYRX1xYpU9BtiPgAIAAAAAAAAAAAAA4HXTqKOJcfYQ4P0EFAAAAAAAAAAAAAAA291ExKgqi1n2EODjBBQAAAAAAAAAAAAAAI8WETGOOpxYJW8BDkhAAQAAAAAAAAAAAAAQMY06mrjNHgIch4ACAAAAAAAAAAAAADhV63i8NjHPnQIcm4ACAAAAAAAAAAAAADg104gYV2Uxzh4CNEdAAQAAAAAAAAAAAACcAtcm4MQJKAAAAAAAAAAAAACAPnNtAogIAQUAAAAAAAAAAAAA0D+LqK9NjF2bAB4IKAAAAAAAAAAAAACAPlhHxG3U0cQkeQvQQgIKAAAAAAAAAAAAAKDLplFfm7itymKVvAVoMQEFAAAAAAAAAAAAANA1d/EYTcxzpwBdIaAAAAAAAAAAAAAAALpgERG3ETGuymKWPQboHgEFAAAAAAAAAAAAANBW66ijiZFoAvgoAQUAAAAAAAAAAAAA0CYP0cRtVRa32WOA/hBQAAAAAAAAAAAAAADZRBPA0QkoAAAAAAAAAAAAAIAMogmgUQIKAAAAAAAAAAAAAKApi3iMJibJW4ATI6AAAAAAAAAAAAAAAI7pLh6jiVn2GOB0CSgAAAAAAAAAAAAAgEP7GRGTqKOJee4UgNof9/f3MRgu77OHAAAAAAAAAAAAAACdtY7NlYmImFRlsUreA/AbFygAAAAAAAAAAAAAgPe4i000UZXFLHsMwFsEFAAAAAAAAAAAAADALh6uTEyijiZcmQA6RUABAAAAAAAAAAAAALxkGptowpUJoOsEFAAAAAAAAAAAAADAg7t4vDAxyZ0CcFgCCgAAAAAAAAAAAAA4XQ/BxCTqKxOr1DUARySgAAAAAAAAAAAAAIDTIZgATpaAAgAAAAAAAAAAAAD6SzABsCGgAAAAAAAAAAAAAID+mMZjMDETTAA8ElAAAAAAAAAAAAAAQDctYhNKRH1dYpY7B6DdBBQAAAAAAAAAAAAA0H7r2IQS8RhMuC4BsAcBBQAAAAAAAAAAAAC0zzTqUGIWETPXJQA+TkABAAAAAAAAAAAAALnEEgANEFAAAAAAAAAAAAAAQDPWUUcSk4iYh1gCoFEPAcUiIr5kDgEAAAAAAAAAAACAHrmLOpaYRx1MzKqyWGUOAjh1DwHFPAQUAAAAAAAAAAAAALCvu9hck9g8c1clANrp09tvAQAAAAAAAAAAAICTN406lJiHUAKgkwQUAAAAAAAAAAAAAFC7i4hVREw2r7OImFVlscocBcBhCCgAAAAAAAAAAAAAOCXTeIwjHl7nVVnMM0cBcHwCCgAAAAAAAAAAAAD6ZLp5nTx9rcpisuW9AJwQAQUAAAAAAAAAAAAAXXEX9dWI+eZ5uCAhkADgTQIKAAAAAAAAAAAAALI9hBH/BRGb11VErKqymL30NwLArgQUAAAAAAAAAAAAABzaQxAR8Xgt4revq7KYBwA0REABAAAAAAAAAAAAwDZPI4iIX+OHiMcLERGuRADQAQ8BxSwivmcOAQAAAAAAAAAAAHptGhGTF753FhHf9vhnnUXE148O6oF11J8BfcnTwOGtX3cNAoDeewgotv3HEQAAAAAAAAAAAOBQrrI/oD8YLvcNNbLMqrLw2U4AOLBPb78FAAAAAAAAAAAA4EPusuOJiIhNlDDJ3gEA5PgzewAAAAAAAAAAAADQe6PsAQAAAgoAAAAAAAAAAADgmNYRcZs9AgBAQAEAAAAAAAAAAAAc07gqi1X2CAAAAQUAAAAAAAAAAABwTKPsAQAAEQIKAAAAAAAAAAAA4HimVVnMs0cAAEQ8BhSz1BUAAAAAAAAAAABAH42zBwAAPHgIKFapKwAAAAAAAAAAAIC+WVdlMc4eAQDw4M+33wIAAAAAAAAAAACwt3H2AACApwQUAAAAAAAAAAAAwDGMsgcAADwloAAAAAAAAAAAAAAObVqVxTx7BADAUwIKAAAAAAAAAAAA4NDG2QMAAJ4TUAAAAAAAAAAAAACHtK7KYpw9AgDguT8jIqqymCTvAAAAAAAAAAAAAPphnD0AAGAbFygAAAAAAAAAAACAQxplDwAA2EZAAQAAAAAAAAAAABzKtCqLefYIAIBtBBQAAAAAAAAAAADAoYyzBwAAvERAAQAAAAAAAAAAABzCoiqLcfYIAICXCCgAAAAAAAAAAACAQxhnDwAAeM3TgOIubQUAAAAAAAAAAADQdePsAQAAr3kaUKzSVgAAAAAAAAAAAABd9rMqi3n2CACA1/z59lsAAAAAAAAAAAAAXjXOHgAA8BYBBQAAAAAAAAAAAPARi6osbrNHAAC8RUABAAAAAAAAAAAAfMQ4ewAAwC6eBhSrtBUAAAAAAAAAAABAV42yBwAA7OJpQDFLWwEAAAAAAAAAAAB00U1VFv4AZwCgE/58+y0AAAAAAAAAAAAAW42zBwAA7EpAAQAAAAAAAAAAALzHoiqLSfYIAIBdCSgAAAAAAAAAAACA97jOHgAAsA8BBQAAAAAAAAAAALCvdUTcZo8AANjH04BikjUCAAAAAAAAAAAA6JTbqixW2SMAAPbhAgUAAAAAAAAAAACwr1H2AACAfQkoAAAAAAAAAAAAgH1Mq7KYZY8AANiXgAIAAAAAAAAAAADYxzh7AADAezwNKFZpKwAAAAAAAAAAAIAuWFdlMc4eAQDwHv8FFM5pAQAAAAAAAAAAAG8YZw8AAHivP99+CwAAAAAAAAAAAEBERIyyBwAAvJeAAgAAAAAAAAAAANjFz6os5tkjAADeS0ABAAAAAAAAAAAA7GKcPQAA4COeBxR3KSsAAAAAAAAAAACANltUZXGbPQIA4COeBxSrlBUAAAAAAAAAAABAm42yBwAAfNTzgAIAAAAAAAAAAADguXH2AACAjxJQAAAAAAAAAAAAAK+5qcpilT0CAOCjngcU84wRAAAAAAAAAAAAQGuNsgcAAByCgAIAAAAAAAAAAAB4yV1VFrPsEQAAh/A8oAAAAAAAAAAAAAB44PoEANAbAgoAAAAAAAAAAABgm3VVFuPsEQAAh/I8oJhnjAAAAAAAAAAAAABax/UJAKBXBBQAAAAAAAAAAADANuPsAQAAh/Q8oAAAAAAAAAAAAAD4WZXFPHsEAMAhCSgAAAAAAAAAAACA50bZAwAADu15QDHPGAEAAAAAAAAAAAC0xqIqi0n2CACAQ/sloHBuCwAAAAAAAAAAAE7edfYAAIBjeH6BAgAAAAAAAAAAADhd64i4zR4BAHAMAgoAAAAAAAAAAADgwW1VFqvsEQAAx7AtoLhrfAUAAAAAAAAAAADQBtfZAwAAjmVbQKEcBQAAAAAAAAAAgNMzrcpinj0CAOBYtgUUAAAAAAAAAAAAwOkZZQ8AADgmAQUAAAAAAAAAAACwqMriNnsEAMAxbQsoJk2PAAAAAAAAAAAAAFK5PgEA9J4LFAAAAAAAAAAAAHDa1hExzh4BAHBsAgoAAAAAAAAAAAA4bbdVWayyRwAAHNu2gGLe9AgAAAAAAAAAAAAgzSh7AABAEwQUAAAAAAAAAAAAcLqmVVnMskcAADRhW0ABAAAAAAAAAAAAnIZx9gAAgKZsCyhWja8AAAAAAAAAAAAAmraoymKcPQIAoCm/BRROcQEAAAAAAAAAAMBJGGcPAABo0rYLFAAAAAAAAAAAAED/jbIHAAA0SUABAAAAAAAAAAAAp+emKotV9ggAgCa9FFDcNboCAAAAAAAAAAAAaJLrEwDAyXkpoFCVAgAAAAAAAAAAQD9Nq7KYZY8AAGjaSwEFAAAAAAAAAAAA0E/j7AEAABleCiiUpQAAAAAAAAAAANA/i6osxtkjAAAyvBRQrBpdAQAAAAAAAAAAADRhnD0AACDLSwEFAAAAAAAAAAAA0C/riBhljwAAyPJSQDFvcgQAAAAAAAAAAABwdLdVWayyRwAAZBFQAAAAAAAAAAAAwGm4zh4AAJDppYACADgeQccAACAASURBVAAAAAAAAAAA6I9pVRbz7BEAAJlcoAAAAAAAAAAAAID+G2UPAADI9sf9/f3WbwyGy+3fAAAAAAAAAAAAALpkUZXFefYIAIBsL12gAAAAAAAAAAAAAPrB9QkAgHg9oFg0tgIAAAAAAAAAAAA4hnVEjLNHAAC0wWsBxbypEQAAAAAAAAAAAMBRjKuyWGWPAABog9cCCgAAAAAAAAAAAKDbRtkDAADa4rWAYtbYCgAAAAAAAAAAAODQflZlMc8eAQDQFq8FFE52AQAAAAAAAAAAQHe5PgEA8MRrAQUAAAAAAAAAAADQTYuqLCbZIwAA2uS1gGLW2AoAAAAAAAAAAADgkK6zBwAAtM1rAcWqsRUAAAAAAAAAAADAoayrshhnjwAAaJvXAgoAAAAAAAAAAACge0bZAwAA2ujFgKIqi0mDOwAAAAAAAAAAAIDDEFAAAGzhAgUAAAAAAAAAAAD0x01VFqvsEQAAbfRWQLFuZAUAAAAAAAAAAABwCK5PAAC84K2AYtbICgAAAAAAAAAAAOCjplVZ+NwfAMAL3gooAAAAAAAAAAAAgG5wfQIA4BUuUAAAAAAAAAAAAED3LaqyuM0eAQDQZm8FFKtGVgAAAAAAAAAAAAAfcZ09AACg7d4KKAAAAAAAAAAAAIB2W0eE6xMAAG94K6CYNDECAAAAAAAAAAAAeLdRVRar7BEAAG3nAgUAAAAAAAAAAAB02zh7AABAF7wVUMybGAEAAAAAAAAAAAC8y01VFvPsEQAAXfBqQOF/qgAAAAAAAAAAAKDVRtkDAAC64q0LFAAAAAAAAAAAAEA7TauymGWPAADoil0CiunRVwAAAAAAAAAAAAD7cn0CAGAPLlAAAAAAAAAAAABA9yyqsrjNHgEA0CW7BBTzY48AAAAAAAAAAAAA9nKdPQAAoGsEFAAAAAAAAAAAANAt64hwfQIAYE+7BBQAAAAAAAAAAABAe4yqslhljwAA6JpdAorJsUcAAAAAAAAAAAAAOxtnDwAA6CIXKAAAAAAAAAAAAKA7bqqymGePAADool0CitnRVwAAAAAAAAAAAAC7GGUPAADoqjcDiqosVk0MAQAAAAAAAAAAAF41rcrCH4oMAPBOu1ygiIhYH3UFAAAAAAAAAAAA8Jbr7AEAAF22a0ChWAUAAAAAAAAAAIA8i6osJtkjAAC6bNeAAgAAAAAAAAAAAMhznT0AAKDrdg0oJsccAQAAAAAAAAAAALxoXZXFOHsEAEDXuUABAAAAAAAAAAAA7TbKHgAA0Ae7BhSzo64AAAAAAAAAAAAAtlmHgAIA4CB2DShWR10BAAAAAAAAAAAAbHNblYXP8AEAHMCuAcX8mCMAAAAAAAAAAACAra6zBwAA9MVOAUVVFvMj7wAAAAAAAAAAAAB+dePzewAAh7PrBYqIiPXRVgAAAAAAAAAAAADPjbMHAAD0yT4BxexoKwAAAAAAAAAAAICnplVZTLJHAAD0yT4BBQAAAAAAAAAAANCMUfYAAIC+2SegmBxrBAAAAAAAAAAAAPCfRVUWt9kjAAD6xgUKAAAAAAAAAAAAaJfr7AEAAH20T0AxO9oKAAAAAAAAAAAAICJiXZXFOHsEAEAf7RNQrI62AgAAAAAAAAAAAIiIGGUPAADoKxcoAAAAAAAAAAAAoB3WIaAAADianQOKqixcoAAAAAAAAAAAAIDjufVZPQCA49nnAkVExOIoKwAAAAAAAAAAAIDr7AEAAH22b0AxP8YIAAAAAAAAAAAAOHE3VVnMs0cAAPSZgAIAAAAAAAAAAADyjbMHAAD0nYACAAAAAP6fvbs5biPL2jW6ZUFHHAN05cG9JrQHnwscyACakOUBan4GpAekBwkPQA+AY4ACsADfQOhbpWpKIsFM7PxZa14nn5pJEXqxAQAAAABybVstfXYEAMDSGVAAAAAAAAAAAABAri47AABgDQwoAAAAAAAAAAAAIM/B9QkAgNswoAAAAAAAAAAAAIA8XXYAAMBafDqfz+/6Dz5//fa+/wAAAAAAAAAAAAB4zaHV8iU7AgBgLd57gSIi4jB4BQAAAAAAAAAAAKzPJjsAAGBNrhlQ7IeOAAAAAAAAAAAAgJU5RcRDdgQAwJoYUAAAAAAAAAAAAMDtbVotx+wIAIA1MaAAAAAAAAAAAACA29tkBwAArI0BBQAAAAAAAAAAANzWo+sTAAC3Z0ABAAAAAAAAAAAAt9VlBwAArJEBBQAAAAAAAAAAANzOY6tlnx0BALBG7x5Q+IMbAAAAAAAAAAAAXG2THQAAsFbXXKCIiDgMWgEAAAAAAAAAAADLt2217LIjAADW6toBxX7ICAAAAAAAAAAAAFiBLjsAAGDNrh1QWMACAAAAAAAAAADA221bLX12BADAml07oDgOWgEAAAAAAAAAAADL9pAdAACwdi5QAAAAAAAAAAAAwLgOrZaH7AgAgLVzgQIAAAAAAAAAAADG1WUHAADgAgUAAAAAAAAAAACMyfUJAICJuGpA0WpxgQIAAAAAAAAAAAB+b5MdAADAd9deoIiI2A5WAQAAAAAAAAAAAMtzioiH7AgAAL77yIDCFQoAAAAAAAAAAAD4uU2rxb+1AwCYiI8MKHaDVQAAAAAAAAAAAMCynCJikx0BAMBfXKAAAAAAAAAAAACA4T24PgEAMC0uUAAAAAAAAAAAAMDwXJ8AAJiYjwwo9kNFAAAAAAAAAAAAwII8tlr22REAAPzo6gGFP9wBAAAAAAAAAADAq7rsAAAA/ttHLlBERLwMUgEAAAAAAAAAAADL4PoEAMBEfXRAcRykAgAAAAAAAAAAAJZhkx0AAMDrPjqg6IeIAAAAAAAAAAAAgAXYtlp22REAALzOBQoAAAAAAAAAAAAYRpcdAADAz310QGEpCwAAAAAAAAAAAN+vT/TZEQAA/NxHBxT7ISIAAAAAAAAAAABg5rrsAAAAfu3T+Xz+0AOfv3772AMAAAAAAAAAAAAwb4dWy5fsCAAAfu2jFygiIl4GeAMAAAAAAAAAAADmqssOAADg94YYUBwHeAMAAAAAAAAAAADm6NBqeciOAADg94YYUPQDvAEAAAAAAAAAAABz1GUHAADwNkMMKPYDvAEAAAAAAAAAAABz4/oEAMCMGFAAAAAAAAAAAADAdbrsAAAA3m6IAcVugDcAAAAAAAAAAABgTk6uTwAAzMuHBxStluMQIQAAAAAAAAAAADAjm+wAAADeZ4gLFBER24HeAQAAAAAAAAAAgKk7hQEFAMDsDDWg2A/0DgAAAAAAAAAAAEzdptVyzI4AAOB9DCgAAAAAAAAAAADg7VyfAACYqaEGFLuB3gEAAAAAAAAAAIApc30CAGCmhhpQ+MMgAAAAAAAAAAAAS+f6BADAjA0yoGi19EO8AwAAAAAAAAAAABP25PoEAMB8DXWBIiLiMOBbAAAAAAAAAAAAMDVddgAAANcbckCxH/AtAAAAAAAAAAAAmJLHVss+OwIAgOsNOaDoB3wLAAAAAAAAAAAApqTLDgAA4GOGHFAcB3wLAAAAAAAAAAAApsL1CQCABRhyQLEb8C0AAAAAAAAAAACYii47AACAjzOgAAAAAAAAAAAAgJ9zfQIAYCEGG1C0Wo4RcRrqPQAAAAAAAAAAAJiALjsAAIBhDHmBIsIVCgAAAAAAAAAAAJbD9QkAgAUZekCxH/g9AAAAAAAAAAAAyLLJDgAAYDgGFAAAAAAAAAAAAPDftq2WXXYEAADDGXpA0Q/8HgAAAAAAAAAAAGTosgMAABiWCxQAAAAAAAAAAADwo22rpc+OAABgWIMOKFot+yHfAwAAAAAAAAAAgARddgAAAMMb+gJFRMR2hDcBAAAAAAAAAADgFlyfAABYqDEGFPsR3gQAAAAAAAAAAIBb6LIDAAAYhwEFAAAAAAAAAAAAfOf6BADAgo0xoOhHeBMAAAAAAAAAAADG1mUHAAAwHhcoAAAAAAAAAAAAwPUJAIDFG3xA0WrZD/0mAAAAAAAAAAAAjKzLDgAAYFxjXKCIiNiO9C4AAAAAAAAAAAAMzfUJAIAVGGtAsR/pXQAAAAAAAAAAABhalx0AAMD4DCgAAAAAAAAAAABYM9cnAABWYqwBRT/SuwAAAAAAAAAAADCkLjsAAIDbcIECAAAAAAAAAACAtXJ9AgBgRUYZULRa9hFxGuNtAAAAAAAAAAAAGEiXHQAAwO2MdYEiImI34tsAAAAAAAAAAADwEa5PAACsjAEFAAAAAAAAAAAAa9RlBwAAcFtjDij2I74NAAAAAAAAAAAA13J9AgBghVygAAAAAAAAAAAAYG267AAAAG7PgAIAAAAAAAAAAIA1cX0CAGClRhtQtFqOEXEY630AAAAAAAAAAAC4QpcdAABAjjEvUERE7Ed+HwAAAAAAAAAAAN7K9QkAgBUbe0DRj/w+AAAAAAAAAAAAvFWXHQAAQJ6xBxS7kd8HAAAAAAAAAACAt3B9AgBg5cYeUOxHfh8AAAAAAAAAAADeossOAAAg16fz+TzqBz5//TbuBwAAAAAAAAAAAODXtq2Wf2dHAACQa+wLFBERLzf4BgAAAAAAAAAAAPxMlx0AAEC+Wwwodjf4BgAAAAAAAAAAALxm22rpsyMAAMh3iwHF/gbfAAAAAAAAAAAAgNd02QEAAEzDLQYU/Q2+AQAAAAAAAAAAAP/k+gQAAP/fLQYUuxt8AwAAAAAAAAAAAP6pyw4AAGA6Rh9QtFqOEXEY+zsAAAAAAAAAAADwN65PAADwg1tcoIiI2N/oOwAAAAAAAAAAABDh+gQAAP9wqwFFf6PvAAAAAAAAAAAAgOsTAAD8l1sNKHY3+g4AAAAAAAAAAAB02QEAAEyPAQUAAAAAAAAAAABL4voEAACvusmAotWyv8V3AAAAAAAAAAAAWL0uOwAAgGm61QWKiIjtDb8FAAAAAAAAAADA+rg+AQDAT91yQLG74bcAAAAAAAAAAABYny47AACA6TKgAAAAAAAAAAAAYAkeXZ8AAOBXDCgAAAAAAAAAAABYgi47AACAabvZgKLVYkABAAAAAAAAAADAGB5bLfvsCAAApu2WFygiIl5u/D0AAAAAAAAAAACWr8sOAABg+m49oHCFAgAAAAAAAAAAgCG5PgEAwJsYUAAAAAAAAAAAADBnXXYAAADzYEABAAAAAAAAAADAXLk+AQDAm910QNFq6W/5PQAAAAAAAAAAABatyw4AAGA+bn2BIiLiJeGbAAAAAAAAAAAALIvrEwAAvEvGgGKX8E0AAAAAAAAAAACW4xQR99kRAADMiwEFAAAAAAAAAAAAc7NptRyzIwAAmBcDCgAAAAAAAAAAAObkFBGb7AgAAObn5gOKVkt/628CAAAAAAAAAACwGK5PAABwlYwLFBERL0nfBQAAAAAAAAAAYL5cnwAA4GpZA4pd0ncBAAAAAAAAAACYL9cnAAC4mgEFAAAAAAAAAAAAc3AI1ycAAPgAAwoAAAAAAAAAAADmoHN9AgCAj/h0Pp9TPvz567ecDwMAAAAAAAAAADA3h1bLl+wIAADmLesCRUTES+K3AQAAAAAAAAAAmI8uOwAAgPnLHFDsEr8NAAAAAAAAAADAPBxaLQ/ZEQAAzF/mgKJP/DYAAAAAAAAAAADz0GUHAACwDC5QAAAAAAAAAAAAMFVb1ycAABhK2oCi1WJAAQAAAAAAAAAAwK902QEAACxH5gWKiIht8vcBAAAAAAAAAACYpm2rpc+OAABgObIHFK5QAAAAAAAAAAAA8JouOwAAgGUxoAAAAAAAAAAAAGBqXJ8AAGBw2QOKPvn7AAAAAAAAAAAATM99dgAAAMuTOqBotewj4pTZAAAAAAAAAAAAwKQ8tlp22REAACxP9gWKiAh/0AUAAAAAAAAAAOA/uuwAAACWaQoDij47AAAAAAAAAAAAgEl4bLXssyMAAFgmAwoAAAAAAAAAAACm4BSuTwAAMKIpDCh22QEAAAAAAAAAAACk27g+AQDAmNIHFK2WY0QcsjsAAAAAAAAAAABIc4qITXYEAADLlj6guOizAwAAAAAAAAAAAEizufwYLwAAjGYqA4pddgAAAAAAAAAAAAApDuH6BAAAN2BAAQAAAAAAAAAAQKbO9QkAAG7h0/l8zm6IiIjPX79NIwQAAAAAAAAAAIBbObRavmRHAACwDlO5QBERsc0OAAAAAAAAAAAA4Ka67AAAANZjSgOKXXYAAAAAAAAAAAAAN/PSannIjgAAYD2mNKDoswMAAAAAAAAAAAC4mfvsAAAA1mVKAwoXKAAAAAAAAAAAANZh22rpsyMAAFiXyQwoWi37iDhkdwAAAAAAAAAAADC6LjsAAID1mcyA4sIVCgAAAAAAAAAAgGV7dH0CAIAMUxtQ9NkBAAAAAAAAAAAAjKrLDgAAYJ0MKAAAAAAAAAAAALiVx1bLPjsCAIB1mtSAotWyy24AAAAAAAAAAABgFKeIuM+OAABgvSY1oLjYZgcAAAAAAAAAAAAwuE2r5ZgdAQDAek1xQNFnBwAAAAAAAAAAADCoU0RssiMAAFi3KQ4odtkBAAAAAAAAAAAADKpzfQIAgGxTHFD02QEAAAAAAAAAAAAM5tBqcX0CAIB0kxtQXFbGL9kdAAAAAAAAAAAADKLLDgAAgIgJDigudtkBAAAAAAAAAAAAfNhLq+UhOwIAACKmO6DoswMAAAAAAAAAAAD4sPvsAAAA+A8DCgAAAAAAAAAAAMawbbX02REAAPAfkxxQtFr2EXHK7gAAAAAAAAAAAOBqrk8AADApkxxQXPTZAQAAAAAAAAAAAFzlsdWyy44AAIC/M6AAAAAAAAAAAABgaF12AAAA/JMBBQAAAAAAAAAAAEP6o9Wyz44AAIB/muyAwvk2AAAAAAAAAACA2TlFxCY7AgAAXjPZAcXFNjsAAAAAAAAAAACAN9u0Wo7ZEQAA8JqpDyj67AAAAAAAAAAAAADe5NBq6bIjAADgZwwoAAAAAAAAAAAAGEKXHQAAAL/y6Xw+Zzf80uev36YdCAAAAAAAAAAAwLbV8u/sCAAA+JWpX6CIiNhmBwAAAAAAAAAAAPBLXXYAAAD8zhwGFH12AAAAAAAAAAAAAD+1bbX02REAAPA7cxhQ7LIDAAAAAAAAAAAA+Km77AAAAHiLOQwo+uwAAAAAAAAAAAAAXvXYatlnRwAAwFtMfkDRajlGxEt2BwAAAAAAAAAAAD84RcR9dgQAALzV5AcUF312AAAAAAAAAAAAAD/YXH4gFwAAZsGAAgAAAAAAAAAAgPc6RMQmOwIAAN7DgAIAAAAAAAAAAID36lyfAABgbj6dz+fshjf5/PXbLiL+b3YHAAAAAAAAAADAyr20Wv5fdgQAALzXXC5QRLhCAQAAAAAAAAAAMAX32QEAAHANAwoAAAAAAAAAAADeattq6bMjAADgGgYUAAAAAAAAAAAAvNVddgAAAFxrNgOKVssxIl6yOwAAAAAAAAAAAFbqsdWyz44AAIBrzWZAcdFnBwAAAAAAAAAAAKzQKSLusyMAAOAjDCgAAAAAAAAAAAD4nU2r5ZgdAQAAH2FAAQAAAAAAAAAAwK8cImKTHQEAAB81qwHFZcH8kt0BAAAAAAAAAACwIp3rEwAALMGsBhQXfXYAAAAAAAAAAADASmxbLQ/ZEQAAMAQDCgAAAAAAAAAAAH6myw4AAIChGFAAAAAAAAAAAADwmudWS58dAQAAQ5ndgKLVcoyIl+wOAAAAAAAAAACAhbvPDgAAgCHNbkBx0WcHAAAAAAAAAAAALNgfrZZ9dgQAAAxprgOKp+wAAAAAAAAAAACAhTpFxCY7AgAAhjbLAUWrpc9uAAAAAAAAAAAAWKiu1XLMjgAAgKHNckBxsc0OAAAAAAAAAAAAWJhDq8X1CQAAFmnOA4o+OwAAAAAAAAAAAGBh7rIDAABgLAYUAAAAAAAAAAAARERsWy19dgQAAIxltgOKyx/UT9kdAAAAAAAAAAAAC3GXHQAAAGOa7YDios8OAAAAAAAAAAAAWIDHVss+OwIAAMZkQAEAAAAAAAAAALBup4i4z44AAICxGVAAAAAAAAAAAACs26bVcsyOAACAsX06n8/ZDR/y+eu3fUT8n+wOAAAAAAAAAACAGTq0Wr5kRwAAwC3M/QJFhCsUAAAAAAAAAAAA17rPDgAAgFsxoAAAAAAAAAAAAFinbavlKTsCAABuxYACAAAAAAAAAABgnVyfAABgVWY/oGi17CPiJbsDAAAAAAAAAABgRh5bLbvsCAAAuKXZDygu+uwAAAAAAAAAAACAmTiF6xMAAKyQAQUAAAAAAAAAAMC6dK2WY3YEAADc2qfz+ZzdMIjPX78t438EAAAAAAAAAABgPIdWy5fsCAAAyLCUCxQREdvsAAAAAAAAAAAAgIm7yw4AAIAsSxpQPGUHAAAAAAAAAAAATNi21dJnRwAAQJYlDSj67AAAAAAAAAAAAIAJu8sOAACATIsZULRadhFxyu4AAAAAAAAAAACYoD9bLfvsCAAAyLSYAcXFU3YAAAAAAAAAAADAxJwiosuOAACAbEsbUPTZAQAAAAAAAAAAABNz32o5ZkcAAEC2pQ0oXKAAAAAAAAAAAAD4y0ur5SE7AgAApmBRA4rLSvoluwMAAAAAAAAAAGAi7rMDAABgKhY1oLjoswMAAAAAAAAAAAAm4LnV0mdHAADAVCxxQPGUHQAAAAAAAAAAAJDsFK5PAADADxY3oLgspk/ZHQAAAAAAAAAAAIk2rZZ9dgQAAEzJ4gYUF312AAAAAAAAAAAAQJJDRGyyIwAAYGqWOqB4yg4AAAAAAAAAAABIct9qOWZHAADA1Cx1QNFnBwAAAAAAAAAAACTYtlr8AC0AALxikQOKVss+Il6yOwAAAAAAAAAAAG7sPjsAAACmapEDios+OwAAAAAAAAAAAOCG/my17LIjAABgqpY8oHCGDgAAAAAAAAAAWItTRHTZEQAAMGWLHVC0Wvr4/pcCAAAAAAAAAACApbtvtRyzIwAAYMoWO6C46LMDAAAAAAAAAAAARvbSannIjgAAgKlb+oDiKTsAAAAAAAAAAABgZPfZAQAAMAdLH1D02QEAAAAAAAAAAAAjemy19NkRAAAwB4seULRa9hHxkt0BAAAAAAAAAAAwglO4PgEAAG+26AHFxVN2AAAAAAAAAAAAwAi6VssxOwIAAObCgAIAAAAAAAAAAGB+Dq2WTXYEAADMyeIHFK2WXXw/VQcAAAAAAAAAALAUd9kBAAAwN4sfUFy4QgEAAAAAAAAAACzFc6ulz44AAIC5MaAAAAAAAAAAAACYj1NE3GdHAADAHK1lQNFnBwAAAAAAAAAAAAxg02rZZ0cAAMAcfTqfz9kNN/H567eniPif7A4AAAAAAAAAAIArHVotX7IjAABgrtZygSLCFQoAAAAAAAAAAGDe7rIDAABgztY0oHjKDgAAAAAAAAAAALjSc6ulz44AAIA5W82AotWyj4iX7A4AAAAAAAAAAIB3OkXEfXYEAADM3WoGFBd9dgAAAAAAAAAAAMA7bS4/IAsAAHzA2gYUD9kBAAAAAAAAAAAA73BotXTZEQAAsASrGlC0Wnbx/ZwdAAAAAAAAAADAHNxlBwAAwFKsakBx8ZQdAAAAAAAAAAAA8AbPrZY+OwIAAJbCgAIAAAAAAAAAAGB6ThFxnx0BAABLssYBRZ8dAAAAAAAAAAAA8BubVss+OwIAAJbk0/l8zm64uc9fvz1FxP9kdwAAAAAAAAAAALzi0Gr5kh0BAABLs8YLFBERT9kBAAAAAAAAAAAAP3GXHQAAAEu01gFFnx0AAAAAAAAAAADwiudWS58dAQAAS7TKAUWrZR8RL9kdAAAAAAAAAAAAf3OKiPvsCAAAWKpVDiguHrIDAAAAAAAAAAAA/mZz+XFYAABgBGseUDxlBwAAAAAAAAAAAFwcWi1ddgQAACzZagcUl6X2IbsDAAAAAAAAAAAgIu6yAwAAYOlWO6C4cIUCAAAAAAAAAADI9thq6bMjAABg6dY+oHjIDgAAAAAAAAAAAFbtFBH32REAALAGqx5QtFp2EXHI7gAAAAAAAAAAAFara7UcsyMAAGANVj2guOizAwAAAAAAAAAAgFV6abVssiMAAGAtDCginrIDAAAAAAAAAACAVbrPDgAAgDX5dD6fsxvSff767RgR/8ruAAAAAAAAAAAAVuPPVosBBQAA3JALFN+5QgEAAAAAAAAAANzKKSK67AgAAFgbA4rvDCgAAAAAAAAAAIBbuW+1HLMjAABgbT6dz+fshkn4/PXbMSL+ld0BAAAAAAAAAAAs2rbV8u/sCAAAWCMXKP7SZwcAAAAAAAAAAACLd5cdAAAAa2VA8Zen7AAAAAAAAAAAAGDR/mi17LMjAABgrQwo/mJAAQAAAAAAAAAAjOUQEZvsCAAAWDMDiotWyzEinrM7AAAAAAAAAACARbq7/BslAAAgiQHFj1yhAAAAAAAAAAAAhvbcaumzIwAAYO0MKH5kQAEAAAAAAAAAAAzpFBH32REAAIABxQ8uJ/KeszsAAAAAAAAAAIDF6Fot++wIAADAgOI1rlAAAAAAAAAAAABDeGm1bLIjAACA7wwo/psBBQAAAAAAAAAAMIS77AAAAOAvBhT/0Go5RsRzdgcAAAAAAAAAADBrf7ZadtkRAADAXwwoXucKBQAAAAAAAAAAcK1DRHTZEQAAwI8MKF5nQAEAAAAAAAAAAFzrvtVyzI4AAAB+ZEDxistfXp6zOwAAAAAAAAAAgNl5brX4AVcAAJggA4qf85cYAAAAAAAAAADgPU4RcZ8dAQAAvM6A4ucMKAAAAAAAAAAAgPfoWi377AgAAOB1BhQ/0Wo5RsRzdgcAAAAAAAAAADALL62WTXYEAADwcwYUv+YKBQAAAAAAAAAA8BZ32QEAAMCvGVD8mgEFAAAAAAAAAADwO3+2WnbZEQAAwK8ZUPxCq+UYEc/ZHQAAAAAA+Mze2QAAIABJREFUAAAAwGQdIqLLjgAAAH7PgOL3XKEAAAAAAAAAAAB+5v7yQ60AAMDEGVD8ngEFAAAAAAAAAADwmudWi39fBAAAM2FA8RuXdfhzdgcAAAAAAAAAADApp4i4y44AAADezoDibazEAQAAAAAAAACAv+suP84KAADMhAHF2xhQAAAAAAAAAAAA/7FttWyyIwAAgPcxoHiDy1L8ObsDAAAAAAAAAACYhPvsAAAA4P0MKN7uITsAAAAAAAAAAABI90erZZcdAQAAvN+n8/mc3TAbn79+O0bEv7I7AAAAAAAAAACAFIdWy5fsCAAA4DouULzPU3YAAAAAAAAAAACQ5i47AAAAuJ4BxfsYUAAAAAAAAAAAwDr92WrpsyMAAIDrGVC8Q6vlKSJO2R0AAAAAAAAAAMBNnSKiy44AAAA+xoDi/VyhAAAAAAAAAACAdblrtRyzIwAAgI8xoHi/TXYAAAAAAAAAAABwM8+tFj+6CgAAC2BA8U6tll1EHLI7AAAAAAAAAACA0Z0i4i47AgAAGIYBxXUsygEAAAAAAAAAYPm6VssxOwIAABiGAcV1HrIDAAAAAAAAAACAUW1bLZvsCAAAYDgGFFdotewi4iW7AwAAAAAAAAAAGM1ddgAAADAsA4rrPWQHAAAAAAAAAAAAo/ij1bLPjgAAAIZlQHG9p+wAAAAAAAAAAABgcC+tli47AgAAGJ4BxZUuC/NtdgcAAAAAAAAAADCou+yA/2Xv3o7byLI0jG5a0BHHAGg8UJUFYlvQbAsGioABlAegB9T7eQA9oDwgPQA9AI8BCMCCnAeierqqdKMIYOdlLQu+1wTyzw0AAJyGAcXbrLIDAAAAAAAAAACAo7lptayzIwAAgNMwoHib++wAAAAAAAAAAADgKJ4j4jY7AgAAOB0Dijdotewi4i67AwAAAAAAAAAAeLP54X0gAABgpAwo3s4VCgAAAAAAAAAAGLbPrZaH7AgAAOC0DCjeqNVyHxH77A4AAAAAAAAAAOCXPEfEMjsCAAA4PQOK41hlBwAAAAAAAAAAAL/kutWyy44AAABOz4DiOFbZAQAAAAAAAAAAwKt9abXcZ0cAAADnYUBxBK2Wdbyc8gMAAAAAAAAAAIZhHxHz7AgAAOB8DCiO5zY7AAAAAAAAAAAA+GnzVssuOwIAADgfA4rjccoPAAAAAAAAAACG4Uurxfs+AAAwMQYUR9Jq2UTEY3YHAAAAAAAAAADwXfuImGdHAAAA52dAcVyr7AAAAAAAAAAAAOC7rlstu+wIAADg/Awojus+XhbqAAAAAAAAAABA/zy2WlbZEQAAQA4DiiM6LNPvszsAAAAAAAAAAIC/2UfEPDsCAADIY0BxfKvsAAAAAAAAAAAA4G+WrZZNdgQAAJDnouu67IbRmS22m4h4l90BAAAAAAAAAABERMRjq+UyOwIAAMjlAsVprLIDAAAAAAAAAACAiIjYR8Q8OwIAAMhnQHEaq+wAAAAAAAAAAAAgIiKWrZZNdgQAAJDvouu67IZRmi22DxHxIbsDAAAAAAAAAAAm7LHVcpkdAQAA9IMLFKezyg4AAAAAAAAAAIAJ20fEPDsCAADoDwOK07mPl4cwAAAAAAAAAADg/Jatlk12BAAA0B8GFCfSatnFy4gCAAAAAAAAAAA4r8dWy212BAAA0C8GFKflIQwAAAAAAAAAAM5rHxHz7AgAAKB/DChOqNWyjojn7A4AAAAAAAAAAJiQZatlkx0BAAD0jwHF6blCAQAAAAAAAAAA5/HYavG+DgAA8FUGFKe3yg4AAAAAAAAAAIAJ2EfEPDsCAADoLwOKE2u17CLiS3YHAAAAAAAAAACM3LLVssmOAAAA+suA4jxW2QEAAAAAAAAAADBij62W2+wIAACg3wwozqDVch8Rz9kdAAAAAAAAAAAwQvuImGdHAAAA/WdAcT732QEAAAAAAAAAADBCy1bLJjsCAADoPwOK83EiEAAAAAAAAAAAjuux1eK9HAAA4KcYUJzJYeX+mN0BAAAAAAAAAAAjsY+IeXYEAAAwHAYU57XKDgAAAAAAAAAAgJFYHj5qCgAA8FMuuq7LbpiU2WK7i4h/ZHcAAAAAAAAAAMCAPbZaLrMjAACAYXGB4vxW2QEAAAAAAAAAADBg+4iYZ0cAAADDY0BxfrfZAQAAAAAAAAAAMGDLVssmOwIAABiei67rshsmZ7bYriPifXYHAAAAAAAAAAAMzGOr5TI7AgAAGCYXKHK4QgEAAAAAAAAAAK+zj4ir7AgAAGC4DChy3MfLAx0AAAAAAAAAAPBz5q2WXXYEAAAwXAYUCQ4PcvfZHQAAAAAAAAAAMBBfWi3etwEAAN7EgCLPbXYAAAAAAAAAAAAMwD4i5tkRAADA8BlQJGm1rCPiKbsDAAAAAAAAAAB6bt5q2WVHAAAAw2dAkcsVCgAAAAAAAAAA+LYvrZb77AgAAGAcDCgStVpW8XJiEAAAAAAAAAAA+LPniJhnRwAAAONhQJFvlR0AAAAAAAAAAAA9NG+17LIjAACA8TCgyHebHQAAAAAAAAAAAD3zudXykB0BAACMiwFFslbLJiIeszsAAAAAAAAAAKAnniNimR0BAACMjwFFP6yyAwAAAAAAAAAAoCeuWi277AgAAGB8DCh6oNWyioh9dgcAAAAAAAAAACS7abWssyMAAIBxMqDoj9vsAAAAAAAAAAAASPTUallmRwAAAONlQNEfq+wAAAAAAAAAAABINM8OAAAAxs2AoidaLZuI+JLdAQAAAAAAAAAACT61WtbZEQAAwLgZUPTLKjsAAAAAAAAAAADO7LHVcpsdAQAAjJ8BRY+0Wu4j4jm7AwAAAAAAAAAAzmQfEfPsCAAAYBoMKPrHmh4AAAAAAAAAgKm4brVssiMAAIBpMKDon1V2AAAAAAAAAAAAnMGXVssqOwIAAJgOA4qeabXsIuIuuwMAAAAAAAAAAE5oHxHz7AgAAGBaDCj66TY7AAAAAAAAAAAATujq8KFRAACAszGg6KFWyzoinrI7AAAAAAAAAADgBD63Wh6yIwAAgOkxoOgvVygAAAAAAAAAABib54hYZkcAAADTdNF1XXYD3zBbbHcR8Y/sDgAAAAAAAAAAOJLfWy3r7AgAAGCaXKDoN1coAAAAAAAAAAAYixvjCQAAIJMBRb+tsgMAAAAAAAAAAOAInloty+wIAABg2gwoeqzVsomIu+wOAAAAAAAAAAB4g31EXGVHAAAAGFD03yo7AAAAAAAAAAAA3uD68CFRAACAVBdd12U38AOzxXYdEe+zOwAAAAAAAAAA4JW+tFpcnwAAAHrBBYphuM0OAAAAAAAAAACAV9pHxDw7AgAA4A8uUAzEbLHdRcQ/sjsAAAAAAAAAAOAn/bPV8pAdAQAA8AcXKIbDFQoAAAAAAAAAAIbis/EEAADQNwYUw7HKDgAAAAAAAAAAgJ/w1Gq5zo4AAAD4KwOKgWi1bCLiLrsDAAAAAAAAAAB+YJ4dAAAA8DUGFMOyyg4AAAAAAAAAAIDv+NRqWWdHAAAAfM1F13XZDbzCbLF9iIgP2R0AAAAAAAAAAPAXj62Wy+wIAACAb3GBYnhW2QEAAAAAAAAAAPAX+4i4yo4AAAD4HhcoBmi22G4i4l12BwAAAAAAAAAAHPy71XKfHQEAAPA9LlAM0yo7AAAAAAAAAAAADj4bTwAAAENgQDFMt/Fy9hAAAAAAAAAAADI9RcQyOwIAAOBnGFAMUKtlFxFW+wAAAAAAAAAAZJsf3mUBAADoPQOK4VpmBwAAAAAAAAAAMGmfWi3r7AgAAICfZUAxUK2WTUR8ye4AAAAAAAAAAGCSHlstt9kRAAAAr2FAMWweQgEAAAAAAAAAOLd9RFxlRwAAALyWAcWAtVoeIuIpuwMAAAAAAAAAgEm5arXssiMAAABey4Bi+FyhAAAAAAAAAADgXD4fPvoJAAAwOBdd12U38EazxXYTEe+yOwAAAAAAAAAAGLWnVstv2REAAAC/ygWKcVhlBwAAAAAAAAAAMGr7iJhnRwAAALyFAcU43MbLQyoAAAAAAAAAAJzCstWyzo4AAAB4CwOKEWi17MIVCgAAAAAAAAAATuNLq+U2OwIAAOCtDCjGw0MqAAAAAAAAAADH9hwR8+wIAACAYzCgGIlWyyYi7rI7AAAAAAAAAAAYlXmrZZcdAQAAcAwGFOPiCgUAAAAAAAAAAMdy02p5yI4AAAA4louu67IbOKLZYvsQER+yOwAAAAAAAAAAGLTHVstldgQAAMAxuUAxPsvsAAAAAAAAAAAABm0fEfPsCAAAgGMzoBiZw9nE5+wOAAAAAAAAAAAGa95q2WRHAAAAHJsBxTgtswMAAAAAAAAAABikz62W++wIAACAU7joui67gROYLbabiHiX3QEAAAAAAAAAwGA8tVp+y44AAAA4FRcoxus2OwAAAAAAAAAAgMHYR8Q8OwIAAOCUDCjGaxUvD7YAAAAAAAAAAPAj162WdXYEAADAKRlQjFSrZReuUAAAAAAAAAAA8GN3rZZVdgQAAMCpGVCM2224QgEAAAAAAAAAwLc9RcR1dgQAAMA5GFCM2OEKxX12BwAAAAAAAAAAvTU/vGMCAAAwegYU47fMDgAAAAAAAAAAoJc+tVrW2REAAADnYkAxcq2WTUTcZXcAAAAAAAAAANArX1ott9kRAAAA52RAMQ3L7AAAAAAAAAAAAHrjOSLm2REAAADnZkAxAYcrFF+yOwAAAAAAAAAA6IWrVssuOwIAAODcDCimw8lFAAAAAAAAAAA+tVrW2REAAAAZLrquy27gTGaL7UNEfMjuAAAAAAAAAAAgxZdWy1V2BAAAQBYXKKZlmR0AAAAAAAAAAECK54iYZ0cAAABkMqCYkFbLQ0Q8ZncAAAAAAAAAAHB281bLLjsCAAAgkwHF9KyyAwAAAAAAAAAAOKubw4c3AQAAJu2i67rsBs5stthuIuJddgcAAAAAAAAAACf32Gq5zI4AAADoAxcopmmZHQAAAAAAAAAAwMntI+IqOwIAAKAvXKCYKFcoAAAAAAAAAABG75+tlofsCAAAgL5wgWK6ltkBAAAAAAAAAACczI3xBAAAwJ+5QDFhrlAAAAAAAAAAAIzSY6vlMjsCAACgb1ygmLZldgAAAAAAAAAAAEf1HBFX2REAAAB95ALFxLlCAQAAAAAAAAAwKr+3WtbZEQAAAH3kAgWr7AAAAAAAAAAAAI7ik/EEAADAtxlQcBsR++wIAAAAAAAAAADe5Eur5TY7AgAAoM8MKCau1bKLlxEFAAAAAAAAAADD9BwR8+wIAACAvjOgIMIVCgAAAAAAAACAIbs6fEQTAACA7zCgwBUKAAAAAAAAAIDh+tRqWWdHAAAADIEBBX9whQIAAAAAAAAAYFjuWi0+mgkAAPCTDCiICFcoAAAAAAAAAAAG5ikirrMjAAAAhsSAgv/mCgUAAAAAAAAAQP/tI2J++GAmAAAAP8mAgv9whQIAAAAAAAAAYBCuWy3r7AgAAIChMaDgr1yhAAAAAAAAAADor7tWyyo7AgAAYIgMKPgTVygAAAAAAAAAAHrrqdUyz44AAAAYKgMKvsYVCgAAAAAAAACAftlHxFV2BAAAwJAZUPA3rlAAAAAAAAAAAPTOvNWyyY4AAAAYMgMKvsUVCgAAAAAAAACAfvjcarnPjgAAABg6Awq+yhUKAAAAAAAAAIBeeGy1XGdHAAAAjIEBBd/jCgUAAAAAAAAAQJ59RFxlRwAAAIyFAQXf5AoFAAAAAAAAAECqy8P7GwAAAByBAQU/4goFAAAAAAAAAMD5fWq1rLMjAAAAxsSAgu86fMVgmd0BAAAAAAAAADAhd62W2+wIAACAsTGg4IcOD+TP2R0AAAAAAAAAABPwFBHX2REAAABjZEDBz1pmBwAAAAAAAAAAjNw+Iuatll12CAAAwBhddF2X3cBAzBbbTUS8y+4AAAAAAAAAABipf7da7rMjAAAAxsoFCl5jmR0AAAAAAAAAADBSn40nAAAATssFCl7FFQoAAAAAAAAAgKN7bLVcZkcAAACMnQsUvNYyOwAAAAAAAAAAYET2EXGVHQEAADAFLlDwarPFdh0R77M7AAAAAAAAAABG4PdWyzo7AgAAYApcoOBXXGcHAAAAAAAAAACMwEfjCQAAgPMxoODVWi0PEfGY3QEAAAAAAAAAMGB3rZZVdgQAAMCUGFDwq5bZAQAAAAAAAAAAA/UUEdfZEQAAAFNz0XVddgMDNVtsHyLiQ3YHAAAAAAAAAMCA7CPit1bLJjsEAABgalyg4C2W2QEAAAAAAAAAAANzZTwBAACQw4CCX9ZqeYiIu+wOAAAAAAAAAICB+HR43wIAAIAEBhS81TI7AAAAAAAAAABgAL60Wm6zIwAAAKbMgII3OZyUdIUCAAAAAAAAAODbniJinh0BAAAwdQYUHMMyIvbZEQAAAAAAAAAAPbSPiHmrZZcdAgAAMHUGFLzZ4QqFE5MAAAAAAAAAAH83b7WssyMAAAAwoOB4bsMVCgAAAAAAAACA/3bTarnPjgAAAOCFAQVHcTgz6QoFAAAAAAAAAMCLL62WZXYEAAAA/8+AgmO6jYjn7AgAAAAAAAAAgGRPETHPjgAAAODPDCg4msMVimV2BwAAAAAAAABAon1EzA/vUQAAANAjF13XZTcwMrPFdhMR77I7AAAAAAAAAAAS/LvVcp8dAQAAwN+5QMEpzLMDAAAAAAAAAAAS3BhPAAAA9JcLFJzEbLF9iIgP2R0AAAAAAAAAAGfypdVylR0BAADAt7lAwaksswMAAAAAAAAAAM7kKSLm2REAAAB8nwEFJ9FqeYiIL9kdAAAAAAAAAAAnto+Ieatllx0CAADA9xlQcErX2QEAAAAAAAAAACc2b7WssyMAAAD4MQMKTqbVsomIz9kdAAAAAAAAAAAn8qnVcp8dAQAAwM8xoODUlvFyqhIAAAAAAAAAYEzuWi232REAAAD8PAMKTqrVsosIPxYAAAAAAAAAAGPyFBHX2REAAAC8zkXXddkNTMBssd1ExLvsDgAAAAAAAACAN9pHxG+tlk12CAAAAK/jAgXnsswOAAAAAAAAAAA4gkvjCQAAgGEyoOAsWi2reDlfCQAAAAAAAAAwVB9bLevsCAAAAH6NAQXndJ0dAAAAAAAAAADwi+4OH5AEAABgoC66rstuYEJmi+19RPwruwMAAAAAAAAA4BUeWy2X2REAAAC8jQsUnJsrFAAAAAAAAADAkDxHxFV2BAAAAG9nQMFZtVo2EfE5uwMAAAAAAAAA4CfsI+Kq1bLLDgEAAODtDCjIsIyXHxgAAAAAAAAAAPps3mpZZ0cAAABwHAYUnN3hqwzL7A4AAAAAAAAAgO+4abXcZ0cAAABwPBdd12U3MFGzxXYTEe+yOwAAAAAAAAAA/uKu1TLPjgAAAOC4XKAg03V2AAAAAAAAAADAXzyFdxoAAABGyQUKUs0W24eI+JDdAQAAAAAAAAAQEfuI+J9Wyy47BAAAgONzgYJsvtgAAAAAAAAAAPTBPiIujScAAADGy4CCVK2WdUTcZXcAAAAAAAAAAJN3fXiPAQAAgJEyoKAPruPlKw4AAAAAAAAAABk+t1pW2REAAACclgEF6Q6nL5fZHQAAAAAAAADAJH1ptVxnRwAAAHB6BhT0QqvlNiKeszsAAAAAAAAAgEl5ioh5dgQAAADnYUBBn8yzAwAAAAAAAACAydhHxFWrZZcdAgAAwHkYUNAbrZaHiHjM7gAAAAAAAAAAJuGy1bLJjgAAAOB8DCjom3l2AAAAAAAAAAAweh9bLevsCAAAAM7LgIJeOXzZ4Sa7AwAAAAAAAAAYrZtWyyo7AgAAgPMzoKCPbiNinx0BAAAAAAAAAIzOXatlmR0BAABADgMKeqfVsouI6+wOAAAAAAAAAGBUnsL7CAAAAJN20XVddgN81WyxfYiID9kdAAAAAAAAAMDg7SPifw4fdQQAAGCiXKCgz5bZAQAAAAAAAADA4O0j4tJ4AgAAAAMKeqvV8hARd9kdAAAAAAAAAMCgXbda1tkRAAAA5DOgoO+u4+VLEAAAAAAAAAAAr/Wp1bLKjgAAAKAfDCjotcP5zGV2BwAAAAAAAAAwOHetltvsCAAAAPrjouu67Ab4odliu46I99kdAAAAAAAAAMAgPLZaLrMjAAAA6BcXKBiK6+wAAAAAAAAAAGAQniLiKjsCAACA/jGgYBBaLQ8RcZfdAQAAAAAAAAD02j4i5q2WXXYIAAAA/WNAwZBcx8sPHQAAAAAAAAAAX3PZallnRwAAANBPBhQMxuHrEMvsDgAAAAAAAACglz4aTwAAAPA9F13XZTfAq8wW23VEvM/uAAAAAAAAAAB646bVssyOAAAAoN9coGCIrrMDAAAAAAAAAIDeuDOeAAAA4Ge4QMEgzRbbVUT8b3YHAAAAAAAAAJDqqdXyW3YEAAAAw+ACBUN1HRH77AgAAAAAAAAAIM1TRFxmRwAAADAcBhQMUqtlFxHL7A4AAAAAAAAAIMU+IuaH9wcAAADgp1x0XZfdAL9sttiuI+J9dgcAAAAAAAAAcFa/t1rW2REAAAAMiwsUDN11dgAAAAAAAAAAcFYfjScAAAD4FQYUDFqr5SEiPmd3AAAAAAAAAABn8anVssqOAAAAYJgMKBiDZUTssyMAAAAAAAAAgJO6a7XcZkcAAAAwXAYUDF6rZRcR19kdAAAAAAAAAMDJPLZa5tkRAAAADJsBBaNwOM/5mN0BAAAAAAAAABzdU0RcZUcAAAAwfAYUjMk8OwAAAAAAAAAAOKp9RFy2WnbZIQAAAAyfAQWj0WrZRMRNdgcAAAAAAAAAcBTGEwAAABzVRdd12Q1wVLPFdhMR77I7AAAAAAAAAIA3+Wer5SE7AgAAgPFwgYIxmmcHAAAAAAAAAABv8tF4AgAAgGMzoGB0Dj+g3GV3AAAAAAAAAAC/5KbVssqOAAAAYHwMKBir64jYZ0cAAAAAAAAAAK9y12pZZkcAAAAwTgYUjFKrZRcvIwoAAAAAAAAAYBgeWy3z7AgAAADGy4CC0Tqc83zM7gAAAAAAAAAAfugpIq6yIwAAABg3AwrGbp4dAAAAAAAAAAB81z4iLlstu+wQAAAAxs2AglFrtWwi4ia7AwAAAAAAAAD4KuMJAAAAzuai67rsBji52WK7joj32R0AAAAAAAAAwJ/83mpZZ0cAAAAwDS5QMBXX2QEAAAAAAAAAwJ98NJ4AAADgnAwomIRWy0NEfM7uAAAAAAAAAAAi4mU8scqOAAAAYFoMKJiSZUQ8Z0cAAAAAAAAAwMTdGU8AAACQwYCCyWi17CLiOrsDAAAAAAAAACbsrtUyz44AAABgmi66rstugLOaLbb3EfGv7A4AAAAAAAAAmJinVstv2REAAABMlwsUTNE8IvbZEQAAAAAAAAAwIU8RcZkdAQAAwLQZUDA5rZZdvIwoAAAAAAAAAIDT20fE5eH/egAAAEhjQMEktVruI+IxuwMAAAAAAAAARs54AgAAgN4woGDK5vHyQw0AAAAAAAAAcHx/jCfW2SEAAAAQYUDBhLVaNhGxTM4AAAAAAAAAgLG6Np4AAACgTy66rstugFSzxfYhIj5kdwAAAAAAAADAiHxstayyIwAAAOC/uUABEfN4ORsKAAAAAAAAALzdjfEEAAAAfWRAweS1WjYRsUzOAAAAAAAAAIAxuGu1LLMjAAAA4Gsuuq7LboBemC2264h4n90BAAAAAAAAAAN112qZZ0cAAADAt7hAAf9vnh0AAAAAAAAAAAP1ZDwBAABA3xlQwEGrZR0RN9kdAAAAAAAAADAwTxFxmR0BAAAAP3LRdV12A/TKbLFdR8T77A4AAAAAAAAAGICniLhsteyyQwAAAOBHXKCAv5tnBwAAAAAAAADAAOwjYm48AQAAwFAYUMBftFrWEXGT3QEAAAAAAAAAPbaPl8sT6+wQAAAA+FkXXddlN0AvzRbbdUS8z+4AAAAAAAAAgB763XgCAACAoXGBAr5tnh0AAAAAAAAAAD300XgCAACAITKggG84/Nhzk90BAAAAAAAAAD3ysdWyyo4AAACAX3HRdV12A/TabLFdR8T77A4AAAAAAAAASPap1XKbHQEAAAC/ygUK+LF5ROyzIwAAAAAAAAAg0Z3xBAAAAENnQAE/0GpZR8QyuwMAAAAAAAAAkty1WubZEQAAAPBWF13XZTfAIMwW24eI+JDdAQAAAAAAAABnZDwBAADAaLhAAT9vHhH77AgAAAAAAAAAOJOniLjOjgAAAIBjMaCAn9Rq2UTEMjkDAAAAAAAAAM7hKSIuWy277BAAAAA4louu67IbYFBmi+1DRHzI7gAAAAAAAACAEzGeAAAAYJRcoIDXm0fEPjsCAAAAAAAAAE5gH8YTAAAAjJQBBbxSq2UTLyMKAAAAAAAAABgT4wkAAABGzYACfkGr5T4ivmR3AAAAAAAAAMCR/DGeWGeHAAAAwKkYUMCvm8fLD0gAAAAAAAAAMGTGEwAAAEyCAQX8osPJ0qvsDgAAAAAAAAB4oyvjCQAAAKbAgALeoNXyEBGfszsAAAAAAAAA4Bd9PPz3DQAAAKNnQAFvt4yI5+wIAAAAAAAAAHilj62WVXYEAAAAnIsBBbxRq2UXEVfZHQAAAAAAAADwCsYTAAAATI4BBRxBq2UdETfZHQAAAAAAAADwE26MJwAAAJiii67rshtgNGaL7Toi3md3AAAAAAAAAMA33LVa5tkRAAAAkMEFCjiuq4jYZ0cAAAAAAAAAwFcYTwAAADBpBhRwRK2WTURcZ3cAAAAAAAAAwF8YTwAAADB5F13XZTfA6MwW2/uI+Fd2BwAAAAAAAACE8QQAAABEhAsUcCrziNhnRwAAAAAAAAAweY/GEwAAAPDCgAJOoNWyi4ir7A4AAAAAAAAAJu0p/HcNAAAA/2FAASfSanmIiM/ZHQAAAAAAAABM0lOVuw3TAAAgAElEQVREXB4+AAgAAABExEXXddkNMGqzxXYdEe+zOwAAAAAAAACYDOMJAAAA+AoXKOD05hGxz44AAAAAAAAAYBKMJwAAAOAbDCjgxFot64hYZncAAAAAAAAAMHrGEwAAAPAdF13XZTfAJMwW2/uI+Fd2BwAAAAAAAACjtI+I31otm+wQAAAA6CsXKOB85hHxnB0BAAAAAAAAwOjs4+XyxCY7BAAAAPrMgALO5HAidZ7dAQAAAAAAAMCo/DGeWGeHAAAAQN8ZUMAZtVoeIuImuwMAAAAAAACAUTCeAAAAgFe46LouuwEmZ7bYriPifXYHAAAAAAAAwP+xdzfHcaPpmoYfKWZPBQxA0QNxLKgcC0rHAiUjsC+WBUVZcKg9Ior0gGVBkxYM6QEFAxBMC3IWmX2mq7v0RzH5ApnXZcG9BuL5XmbLeAIAAAC+kwsUUONdNh+zAAAAAAAAAOB7GU8AAADAExhQQIGhbx6SLIszAAAAAAAAAJgf4wkAAAB4IgMKKDL0zXWSj9UdAAAAAAAAAMyG8QQAAAD8AAMKqHWe5L46AgAAAAAAAIBZODOeAAAAgKczoIBCQ988Jllm80oIAAAAAAAAAHzO6dA3l9URAAAAMGcGFFBs+zrIWXUHAAAAAAAAAJNlPAEAAADPwIACJmD7oeuqugMAAAAAAACAyTGeAAAAgGdiQAHTcZbkvjoCAAAAAAAAgMkwngAAAIBn9Gq9Xlc3AFttN54k+b/VHQAAAAAAAACUM54AAACAZ+YCBUzI0Dd3SX6r7gAAAAAAAACglPEEAAAA7IALFDBBbTdeJ/mlugMAAAAAAACAF2c8AQAAADviAgVM0zLJp+oIAAAAAAAAAF6U8QQAAADskAEFTNDQN49J3lV3AAAAAAAAAPBijCcAAABgxwwoYKKGvrlL8lt1BwAAAAAAAAA7ZzwBAAAAL+DVer2ubgC+oO3GyyTvqzsAAAAAAAAA2AnjCQAAAHghLlDA9J0lua+OAAAAAAAAAODZGU8AAADACzKggIkb+uYxyTLJqjgFAAAAAAAAgOdjPAEAAAAvzIACZmDom7tsLlEAAAAAAAAAMH/GEwAAAFDAgAJmYvvx7Kq6AwAAAAAAAIAfYjwBAAAARQwoYF7OktxXRwAAAAAAAADwJMYTAAAAUOjVer2ubgC+Q9uNx0nukhwVpwAAAAAAAADw7YwnAAAAoJgLFDAzQ988JFkWZwAAAAAAAADw7YwnAAAAYAIMKGCGhr65TvKxugMAAAAAAACArzKeAAAAgIl4tV6vqxuAJ2q78SbJz9UdAAAAAAAAAPwt4wkAAACYEBcoYN7eJVlVRwAAAAAAAADwH4wnAAAAYGIMKGDGhr55TLKo7gAAAAAAAADgL4wnAAAAYIIMKGDmhr65S/JbdQcAAAAAAAAASYwnAAAAYLJerdfr6gbgGbTdeJnkfXUHAAAAAAAAwAEzngAAAIAJc4EC9sdZkvvqCAAAAAAAAIADZTwBAAAAE+cCBeyRthuPk9wlOSpOAQAAAAAAADgkxhMAAAAwAy5QwB4Z+uYhybI4AwAAAAAAAOBQrJL8l/EEAAAAzIMBBeyZoW+uk3yo7gAAAAAAAADYc6ski+0/WgAAAGAGXq3X6+oGYAfabrxO8kt1BwAAAAAAAMAe+ud44q46BAAAAPh2LlDA/lomua+OAAAAAAAAANgzxhMAAAAwUwYUsKeGvnnMZkSxKk4BAAAAAAAA2BfGEwAAADBjBhSwx7Yf7ZbVHQAAAAAAAAB7wHgCAAAAZs6AAvbc0DfXST5UdwAAAAAAAADMmPEEAAAA7IFX6/W6ugF4AW03Xif5pboDAAAAAAAAYGaMJwAAAGBPuEABh2OZ5L46AgAAAAAAAGBG7pOcGE8AAADAfnCBAg5I240nSW6SHBWnAAAAAAAAAEzdfTaXJx6rQwAAAIDn4QIFHJDtqyjvqjsAAAAAAAAAJs54AgAAAPaQAQUcmKFvbpL8Vt0BAAAAAAAAMFHGEwAAALCnXq3X6+oGoEDbjZdJ3ld3AAAAAAAAAEyI8QQAAADsMRco4HCdZfPxDwAAAAAAAIDkzxhPAAAAwF5zgQIOWNuNb5I8JDkqTgEAAAAAAACodDX0zbI6AgAAANgtFyjggG1fTlkkWRWnAAAAAAAAAFQxngAAAIADYUABB27om7skZ9UdAAAAAAAAAAWMJwAAAOCAGFAAGfrmMsnH6g4AAAAAAACAF2Q8AQAAAAfm1Xq9rm4AJqLtxuskv1R3AAAAAAAAAOzY6fahOQAAAOCAuEAB/KtlkvvqCAAAAAAAAIAdMp4AAACAA+UCBfAXbTceJ7lLclScAgAAAAAAAPDcjCcAAADggLlAAfzF0DcPSRbFGQAAAAAAAADPzXgCAAAADpwBBfAfhr65S3Ja3QEAAAAAAADwDFZJ/rfxBAAAAGBAAfyt7cfDD9UdAAAAAAAAAD9glWSxfUQOAAAAOHCv1ut1dQMwYW03XiZ5X90BAAAAAAAA8J2MJwAAAIC/cIEC+JqzJPfVEQAAAAAAAADf4T7GEwAAAMC/cYEC+Kq2G98kuUvyU3ULAAAAAAAAwFf8czzxWB0CAAAATIsLFMBXbT8svsvmxC0AAAAAAADAVBlPAAAAAJ9lQAF8k+1p22V1BwAAAAAAAMBn/BnjCQAAAOALXq3X6+oGYEbablwm+aO6AwAAAAAAAOBfXA19s6yOAAAAAKbNBQrguwx9c5nkqroDAAAAAAAAYMt4AgAAAPgmBhTAd9t+fPyzugMAAAAAAAA4eB+MJwAAAIBvZUABPNUyyX11BAAAAAAAAHCwToe+Oa+OAAAAAObj1Xq9rm4AZqrtxjdJ7pL8VN0CAAAAAAAAHJTToW8uqyMAAACAeXGBAniyoW8ek7xLsqpuAQAAAAAAAA7CKsn/MZ4AAAAAnsIFCuCHtd24SPKP6g4AAAAAAABgr62SLIa+uasOAQAAAObJBQrghw19c5PktLoDAAAAAAAA2FufYjwBAAAA/CADCuBZbE/kfqjuAAAAAAAAAPbOfZIT4wkAAADgR71ar9fVDcAeabvxMsn76g4AAAAAAABgL9xnc3nisToEAAAAmD8XKIBnNfTNMsltdQcAAAAAAAAwe1cxngAAAACe0f+qDgD20rskN0neFncAAAAAAAAA83S1fbwNAAAA4Nm4QAE8u+0LMIskn4pTAAAAAAAAgPn5YDwBAAAA7MKr9Xpd3QDsqbYbT7K5RHFUnAIAAAAAAADMw+nQN5fVEQAAAMB+coEC2Jmhb+6yuUSxKk4BAAAAAAAApm0V4wkAAABgx1ygAHau7cZlkj+qOwAAAAAAAIBJWiVZbB9oAwAAANgZFyiAndu+EnNa3QEAAAAAAABMzqcYTwAAAAAvxIACeBHbEcXH6g4AAAAAAABgMu6TnBhPAAAAAC/FgAJ4MUPfnCW5qu4AAAAAAAAAyt1mc3nisToEAAAAOByv1ut1dQNwYNpuvE7yS3UHAAAAAAAAUOJq6JtldQQAAABweFygACossznHCwAAAAAAAByWj8YTAAAAQBUXKIASbTe+SXKT5G1xCgAAAAAAAPAyToe+uayOAAAAAA6XAQVQZjuieEhyVJwCAAAAAAAA7M4qyXLom+vqEAAAAOCwva4OAA7X0DePSRbZfDAFAAAAAAAA9s8qycJ4AgAAAJgCAwqg1NA3dzGiAAAAAAAAgH10n8144q46BAAAACBJXq3X6+oGgLTduEjyj+oOAAAAAAAA4Fn8czzxWB0CAAAA8E8uUACTMPTNTZLT6g4AAAAAAADgh13FeAIAAACYIBcogElpu3GZ5I/qDgAAAAAAAOBJroa+WVZHAAAAAPwdFyiASRn65jLJh+oOAAAAAAAA4LudGk8AAAAAU+YCBTBJbTdeJnlf3QEAAAAAAAB81SrJcuib6+oQAAAAgC8xoAAmy4gCAAAAAAAAJm+VZDH0zV11CAAAAMDXvK4OAPic7Xnfq+oOAAAAAAAA4G/dJzkxngAAAADmwoACmLqzbD68AgAAAAAAANNxm83liYfqEAAAAIBv9Wq9Xlc3AHxR241vktwkeVucAgAAAAAAACRX22vyAAAAALPiAgUweUPfPCZZxCUKAAAAAAAAqPab8QQAAAAwVwYUwCwYUQAAAAAAAECpVZLToW8uqkMAAAAAnurVer2ubgD4Zm03Hie5S3JUnAIAAAAAAACHYpVkMfTNXXUIAAAAwI9wgQKYlaFvHrK5RLGqLQEAAAAAAICDcJ/kxHgCAAAA2AcGFMDsbD/OLmJEAQAAAAAAALt0m83liYfqEAAAAIDn8Gq9Xlc3ADxJ240nSW6SHBWnAAAAAAAAwL65GvpmWR0BAAAA8JxcoABmyyUKAAAAAAAA2InfjCcAAACAfeQCBTB7bTcukvyjugMAAAAAAABmbpVkOfTNdXUIAAAAwC64QAHM3tA3N0lOqzsAAAAAAABgxlZJFsYTAAAAwD4zoAD2wtA3lzGiAAAAAAAAgKe4T3I89M1ddQgAAADALhlQAHvDiAIAAAAAAAC+21U2lyceq0MAAAAAdu3Ver2ubgB4Vm03LpP8Ud0BAAAAAAAAE/dh6Jvz6ggAAACAl2JAAewlIwoAAAAAAAD4otPthXcAAACAg2FAAewtIwoAAAAAAAD4D6ski6Fv7qpDAAAAAF7a6+oAgF3ZvphzWt0BAAAAAAAAE3Gf5MR4AgAAADhUBhTAXtuOKH6r7gAAAAAAAIBif2ZzeeKhOgQAAACgyqv1el3dALBzbTdeJnlf3QEAAAAAAAAFPg59c1YdAQAAAFDNBQrgIAx9s0xyVd0BAAAAAAAAL2iV5NR4AgAAAGDDBQrgoLhEAQAAAAAAwIFYJVkMfXNXHQIAAAAwFS5QAAfFJQoAAAAAAAAOwH2SY+MJAAAAgL8yoAAOjhEFAAAAAAAAe+wqm8sTj9UhAAAAAFPzar1eVzcAlGi78TLJ++oOAAAAAAAAeCa/DX1zUR0BAAAAMFUGFMBBM6IAAAAAAABgD6ySLIe+ua4OAQAAAJiy19UBAJWGvllmc8YYAAAAAAAA5ug+ycJ4AgAAAODrXKAAiEsUAAAAAAAAzNJtkndD3zxWhwAAAADMgQEFwJYRBQAAAAAAADPyceibs+oIAAAAgDl5XR0AMBVD3yyTXFV3AAAAAAAAwBeskpwaTwAAAAB8PxcoAP6NSxQAAAAAAABM1CrJYuibu+oQAAAAgDlygQLg37hEAQAAAAAAwATdJzk2ngAAAAB4OhcoAD6j7cazJP9d3QEAAAAAAMDBu9o+AgYAAADADzCgAPiCthuXSf6o7gAAAAAAAOBgnQ59c1kdAQAAALAPDCgAvsKIAgAAAAAAgAKrJIuhb+6qQwAAAAD2xevqAICp277oc1rdAQAAAAAAwMG4T3JsPAEAAADwvFygAPhGLlEAAAAAAADwAq6GvllWRwAAAADsIxcoAL6RSxQAAAAAAADs2KnxBAAAAMDuuEAB8J1cogAAAAAAAOCZrZIshr65qw4BAAAA2GcuUAB8J5coAAAAAAAAeEb3SY6NJwAAAAB2zwUKgCdqu3GR5DrJUXEKAAAAAAAA83Q19M2yOgIAAADgULhAAfBEQ9/cJFlkc1IZAAAAAAAAvtUqyanxBAAAAMDLcoEC4Ae13XiS5CYuUQAAAAAAAPB1n5K8G/rmrjoEAAAA4NC4QAHwg7YftxdxiQIAAAAAAIAvu01yYjwBAAAAUMMFCoBn4hIFAAAAAAAAX/Bh6Jvz6ggAAACAQ2ZAAfCM2m58k82I4m1xCgAAAAAAANOwSrIc+ua6OgQAAADg0BlQADwzIwoAAAAAAAC27pO8G/rmoToEAAAAgOR1dQDAvhn65jHJIpsP4gAAAAAAABymqyQL4wkAAACA6XCBAmBHtpcorpP8XN0CAAAAAADAizod+uayOgIAAACAvzKgANixthsvk7yv7gAAAAAAAGDnPiV5N/TNXXUIAAAAAP/pdXUAwL4b+maZzYlmAAAAAAAA9tdtkhPjCQAAAIDpcoEC4IW4RAEAAAAAALC3Pgx9c14dAQAAAMCXGVAAvKC2G5dJ/qjuAAAAAAAA4Fmskrwb+uamOgQAAACAr3tdHQBwSIa+uUxyWt0BAAAAAADAD7tPcmI8AQAAADAfLlAAFNheorhIclScAgAAAAAAwPf7OPTNWXUEAAAAAN/HgAKgSNuNJ0luYkQBAAAAAAAwF6sky6FvrqtDAAAAAPh+r6sDAA7V0Dd3SRbZfGgHAAAAAABg2u6TLIwnAAAAAObLgAKg0L+MKO6LUwAAAAAAAPi8q2zGE3fVIQAAAAA83av1el3dAHDw2m58k+QmydviFAAAAAAAAP6/VZKzoW8uq0MAAAAA+HEuUABMwNA3j9lcorgtTgEAAAAAAGDjPpurE5fVIQAAAAA8DxcoACam7cbLJO+rOwAAAAAAAA7YVTaXJx6rQwAAAAB4PgYUABNkRAEAAAAAAFBilc1w4rI6BAAAAIDnZ0ABMFFtNy6T/FHdAQAAAAAAcCDukyyHvrmrDgEAAABgN15XBwDw97YvG51WdwAAAAAAAByAqyQL4wkAAACA/eYCBcDEtd14kuQmyVFxCgAAAAAAwL5ZJTnbPmwFAAAAwJ4zoACYASMKAAAAAACAZ3efZOnqBAAAAMDheF0dAMDXbT/cH2fzIR8AAAAAAIAfc5VkYTwBAAAAcFhcoACYkbYb32RzieJtcQoAAAAAAMAcrZKcDX1zWR0CAAAAwMszoACYobYbL5O8r+4AAAAAAACYkfsk74a+eagOAQAAAKCGAQXATLXdeJHk1+oOAAAAAACAGfg49M1ZdQQAAAAAtQwoAGas7cZlkj+qOwAAAAAAACZqlWQ59M11dQgAAAAA9QwoAGau7cZFkuskR8UpAAAAAAAAU3KbzXjioToEAAAAgGkwoADYA203niS5iREFAAAAAABAknwY+ua8OgIAAACAaTGgANgTbTe+yWZE8bY4BQAAAAAAoMqnbK5O3FSHAAAAADA9r6sDAHgeQ988Jlkk+bM4BQAAAAAAoMKfSU6MJwAAAAD4HBcoAPZQ242XSd5XdwAAAAAAALyAVZLzoW8uqkMAAAAAmDYDCoA91XbjMskf1R0AAAAAAAA7dJ9kOfTNXXUIAAAAANP3ujoAgN0Y+uYyyX9l8+oSAAAAAADAvvmYZGE8AQAAAMC3coECYM+13XiS5CbJUXEKAAAAAADAc1hlc3XiujoEAAAAgHkxoAA4AG03vslmRPG2OAUAAAAAAOBH3CZ5N/TNY3UIAAAAAPNjQAFwILYjiosk76tbAAAAAAAAnuC3oW8uqiMAAAAAmC8DCoAD03bjeZLfqzsAAAAAAAC+0X2S5dA3d9UhAAAAAMzb6+oAAF7W0DfnSU6rOwAAAAAAAL7BxyQL4wkAAAAAnoMLFAAHqu3GkyQ3SY6KUwAAAAAAAP7dKpurE9fVIQAAAADsDxcoAA7U9qWmk2zOXgMAAAAAAEzFbZJj4wkAAAAAnpsLFAAHru3GN0kuk/xSnAIAAAAAABy2VZLzoW8uqkMAAAAA2E8GFAAkSdpuPE/ye3UHAAAAAABwkO6TLLcXtAEAAABgJwwoAPgfbTcuk1wkOSpOAQAAAAAADsfHoW/OqiMAAAAA2H8GFAD8RduNJ0luYkQBAAAAAADs1qdsrk7cVIcAAAAAcBheVwcAMC3b09jH2ZzKBgAAAAAA2IU/k5wYTwAAAADwklygAOCz2m68TPK+ugMAAAAAANgbq2yuTlxXhwAAAABweFygAOCzhr5ZJvmtugMAAAAAANgLt0mOjScAAAAAqOICBQBf1XbjIsl1kqPiFAAAAAAAYH5WSc6HvrmoDgEAAADgsBlQAPBN2m48zmZE8bY4BQAAAAAAmI/7JO+GvnmoDgEAAAAAAwoAvlnbjW+SXCR5X90CAAAAAABM3oehb86rIwAAAADgnwwoAPhubTeeJfnv6g4AAAAAAGCS7pMsh765qw4BAAAAgH9lQAHAk7TduEhyneSoOAUAAAAAAJiOj0PfnFVHAAAAAMDfMaAA4MnabjzOZkTxtjgFAAAAAACo9SmbqxM31SEAAAAA8DmvqwMAmK+hbx6SLJJc1ZYAAAAAAACFPiY5MZ4AAAAAYOpcoADgWbTdeJbkv6s7AAAAAACAF+PqBAAAAACzYkABwLNpu3GR5DrJUXEKAAAAAACwW39mM554rA4BAAAAgG9lQAHAs2q78TibEcXb4hQAAAAAAOD5rbIZTlxXhwAAAADA9zKgAGAn2m68TPK+ugMAAAAAAHg2rk4AAAAAMGsGFADsTNuNyyQXSY6KUwAAAAAAgKdzdQIAAACAvWBAAcBOtd14kuQ6yU/VLQAAAAAAwHdzdQIAAACAvWFAAcDOtd34Jsllkl+KUwAAAAAAgG/j6gQAAAAAe8eAAoAX03bjeZLfqzsAAAAAAIAvcnUCAAAAgL1kQAHAi2q7cZHkOslRcQoAAAAAAPBXrk4AAAAAsNcMKAB4cW03vklyk+RtcQoAAAAAALDh6gQAAAAAe8+AAoAybTdeJPm1ugMAAAAAAA6YqxMAAAAAHAwDCgBKtd34LsllkqPiFAAAAAAAODSuTgAAAABwUAwoACjXduNxkuskb4tTAAAAAADgEHxKcubqBAAAAACHxoACgMlou/Eiya/VHQAAAAAAsMc+Jjl3dQIAAACAQ2RAAcCktN34LsllkqPiFAAAAAAA2CefkiyHvrmpDgEAAACAKq+rAwDgX23PhZ8kua9uAQAAAACAPfExyYnxBAAAAACHzgUKACar7caLJL9WdwAAAAAAwEzdJzkznAAAAACADQMKACat7cZ3SS6THBWnAAAAAADAnHwY+ua8OgIAAAAApsSAAoDJa7vxOMl1krfFKQAAAAAAMHW32VyduKsOAQAAAICpMaAAYDbabrxI8mt1BwAAAAAATNAqyfnQNxfVIQAAAAAwVQYUAMxK243vklwmOSpOAQAAAACAqbhNshz65qE6BAAAAACmzIACgNlpu/FNkuskP1e3AAAAAABAoVU2w4nr6hAAAAAAmAMDCgBmq+3G8yS/V3cAAAAAAECBqyRnQ988VocAAAAAwFwYUAAwa203LpJcJvmptgQAAAAAAF7Ep2yuTtxUhwAAAADA3LyuDgCAH7H9QXSS5M/iFAAAAAAA2LUPSU6MJwAAAADgaVygAGBvtN14luQ8yVFxCgAAAAAAPKfbJGdD39xVhwAAAADAnBlQALBX2m48SXKZ5G1xCgAAAAAA/KhVkvOhby6qQwAAAABgHxhQALCX2m68SPJrdQcAAAAAADzRn9lcnXioDgEAAACAfWFAAcDeartxkeQ6yVFxCgAAAAAAfKtP2QwnrqtDAAAAAGDfvK4OAIBdGfrmJslxNq90AQAAAADA1H1IcmI8AQAAAAC74QIFAAeh7cazJOdxjQIAAAAAgOm5zebqxF11CAAAAADsMwMKAA5G240nSS6TvC1OAQAAAACAJFklOR/65qI6BAAAAAAOgQEFAAen7cbzJL9XdwAAAAAAcNCusrk68VgdAgAAAACHwoACgIPUduMim2sUP9WWAAAAAABwYD4lWQ59c1MdAgAAAACHxoACgIPVduObJBdJ3le3AAAAAACw91ZJLoa+Oa8OAQAAAIBDZUABwMFru/FdNtcojopTAAAAAADYT7fZXJ14qA4BAAAAgENmQAEA+Z9rFJdJfilOAQAAAABgf3xKcjb0zXV1CAAAAABgQAEAf9F241mS87hGAQAAAADAj/mQ5GLom8fqEAAAAABgw4ACAP5N243H2Vyj+Lm2BAAAAACAGbpNshz65qE6BAAAAAD4KwMKAPiMthvPk/xe3QEAAAAAwCx8SnI29M11dQgAAAAA8PcMKADgC9puPMnmGsXb4hQAAAAAAKbrQ5KLoW8eq0MAAAAAgM8zoACAb+AaBQAAAAAAf+M2yXLom4fqEAAAAADg6wwoAOAbuUYBAAAAAMDWpyRnQ99cV4cAAAAAAN/OgAIAvpNrFAAAAAAAB+1Dkouhbx6rQwAAAACA72NAAQBPsL1GcZ3kp+oWAAAAAABexG2S5dA3D9UhAAAAAMDTGFAAwBO13fgmyXmSX4tTAAAAAADYnU9Jzoa+ua4OAQAAAAB+jAEFAPygthsXSS7jGgUAAAAAwD5ZJbkY+ua8OgQAAAAAeB6vqwMAYO6GvrlJcpLkY3EKAAAAAADP488kJ8YTAAAAALBfXKAAgGfUduNJNtco3hanAAAAAADw/e6TnG0fzgEAAAAA9owBBQDsQNuN50l+r+4AAAAAAOCbrJKcD31zUR0CAAAAAOyOAQUA7IhrFAAAAAAAs/Axm/HEY3UIAAAAALBbBhQAsGOuUQAAAAAATNJtkrOhb+6qQwAAAACAl2FAAQAvYHuN4iLJz9UtAAAAAAAH7lM2w4nr6hAAAAAA4GUZUADAC2q78SzJeZKj4hQAAAAAgEOzSnIx9M15dQgAAAAAUMOAAgBeWNuNx0ku4xoFAAAAAMBLucrm6sRjdQgAAAAAUMeAAgCKtN24THIR1ygAAAAAAHblNpvhxF11CAAAAABQz4ACAAq13fgmm2sUvxSnAAAAAADsk0/ZDCeuq0MAAAAAgOkwoACACWi7cZHNkOKn2hIAAAAAgFlbJbkY+ua8OgQAAAAAmJ7X1QEAQDL0zU2SkyQfi1MAAAAAAObqKsmx8QQAAAAA8DkuUADAxLTdeJLNNYq3xSkAAAAAAHNwm2Q59M1DdQgAAAAAMG0GFAAwUW03niU5T3JUnAIAAAAAMEWfshlO3FSHAAAAAADzYEABABPWduNxkoskvxSnAAAAAABMxSrJ2dA3l9UhAAAAAMC8GFAAwAy03fgumyHFT9UtAAAAAABFVtl8J70Y+uaxOgYAAAAAmB8DCgCYiaaRYJwAABbySURBVLYb3yQ5T/JrcQoAAAAAwEu7SnI+9M1DdQgAAAAAMF8GFAAwM203nmTzytrP1S0AAAAAADt2m+Rs6Ju76hAAAAAAYP4MKABgptpuPMvmIsVRcQoAAAAAwHO7z2Y4cVMdAgAAAADsDwMKAJixthvfZHON4n11CwAAAADAM/iU5Hzom8vqEAAAAABg/xhQAMAeaLtxkeQyyU+1JQAAAAAAT7LK5rGYi6FvHqtjAAAAAID9ZEABAHuk7cbzJGdJjopTAAAAAAC+1YcYTgAAAAAAL8CAAgD2TNuNx9m81PZLcQoAAAAAwJdcJTkf+uahOgQAAAAAOAwGFACwp/5fe3dw1MbWtmv4yQCVAmiUAWSAMthkYAY9P2TwOwQC0EDOAGcgMoAMJAXQBRmcwRKfgG1vGxBaavV1VXW1wNj1zKnbb9N20yTzJKd1lwAAAAAAvHKX5Ho9G9/XHgIAAAAADIuAAgCOXNN235NcJzmpPAUAAAAAGLa7lIsTi9pDAAAAAIBhElAAwAA0bTdJcpPkn8pTAAAAAIDhWaWEE/PaQwAAAACAYRNQAMCANG03TTJPclp3CQAAAAAwAMIJAAAAAOCgCCgAYICatrtO8j3JSeUpAAAAAMDxeUq5iHuzno0fa48BAAAAAHgmoACAgWrabpTyS8xvtbcAAAAAAEdBOAEAAAAAHDQBBQAMXNN205RrFBd1lwAAAAAAPfYjybVwAgAAAAA4ZAIKACBJ0rTdVcr/DndSeQoAAAAA0B8/knxfz8bL2kMAAAAAAP5EQAEA/E/TdqMk10n+r/YWAAAAAOCgCScAAAAAgN4RUAAA/9K03STlGsU/lacAAAAAAIflLiWcWNQeAgAAAADwXgIKAOC3mrabpoQUZ5WnAAAAAAB1CScAAAAAgN4TUAAAf9S03VVKSHFSeQoAAAAAsF/CCQAAAADgaAgoAIC/0rTdKMl1kv+rvQUAAAAA+HKrJFfCCQAAAADgmAgoAIB3adpuknKN4p/KUwAAAACA3VulXJyY1x4CAAAAALBrAgoA4EOatpsm+Z7kou4SAAAAAGAHhBMAAAAAwNETUAAAn9K03VVKSHFadwkAAAAA8AHCCQAAAABgMAQUAMCnNW03SnK9eU4qzwEAAAAA/kw4AQAAAAAMjoACANiZTUhxk+Rb7S0AAAAAwC8JJwAAAACAwRJQAAA717TdJMk8yUXdJQAAAADAhnACAAAAABg8AQUA8GWatpsm+R4hBQAAAADUIpwAAAAAANgQUAAAX65pu6uUkOK07hIAAAAAGAzhBAAAAADAGwIKAGBvmra7TgkpTipPAQAAAIBjJZwAAAAAAPgNAQUAsFdN242SXG8eIQUAAAAA7IZwAgAAAADgDwQUAEAVTdtNUq5RfKu7BAAAAAB6TTgBAAAAAPCXBBQAQFVCCgAAAAD4EOEEAAAAAMA7CSgAgIPQtN00JaS4qLsEAAAAAA7aQ5Ib4QQAAAAAwPsJKACAgyKkAAAAAIBfuku5OLGoPQQAAAAAoK8EFADAQWra7iolpDituwQAAAAAqhJOAAAAAADsiIACADhoQgoAAAAABko4AQAAAACwYwIKAKAXmra7TgkpTipPAQAAAICv9CPJzXo2vq89BAAAAADg2AgoAIDeaNpulOR68wgpAAAAADgmP1IuTixrDwEAAAAAOFYCCgCgd4QUAAAAAByJpyTzlIsTy7pTAAAAAACOn4ACAOgtIQUAAAAAPfWU5CYlnHisPQYAAAAAYCgEFABA721Ciu9J/l/lKQAAAADwX1Yp4cRcOAEAAAAAsH8CCgDgaDRtN0kJKb7VXQIAAAAAr6ySfF/PxvPaQwAAAAAAhkxAAQAcHSEFAAAAAAfiLsnNeja+rT0EAAAAAAABBQBwxIQUAAAAAFRyl3JxYlF7CAAAAAAAWwIKAODoCSkAAAAA2JMfKeHEsvYQAAAAAAD+TUABAAyGkAIAAACAL/CU5CbJXDgBAAAAAHDYBBQAwOAIKQAAAADYgVWSeZKb9Wz8WHkLAAAAAAB/QUABAAyWkAIAAACAD1gl+b6ejee1hwAAAAAA8D4CCgBg8DYhxVWS6yQnVccAAAAAcKjuUsKJRe0hAAAAAAB8jIACAGCjabtRSkQhpAAAAADg2Y+UcGJZewgAAAAAAJ8joAAAeENIAQAAADB4T0luksyFEwAAAAAAx0NAAQDwG0IKAAAAgMFZJfme5HY9Gz9W3gIAAAAAwI4JKAAA/kLTdlcpvzw/rbsEAAAAgC9wl+RmPRvf1h4CAAAAAMDXEVAAALyDkAIAAADgqPxI8n09Gy9rDwEAAAAA4OsJKAAAPmATUlwluai7BAAAAIB3ekpyk3Jx4rH2GAAAAAAA9kdAAQDwCU3bTVMuUggpAAAAAA7bQ0o0Ma89BAAAAACAOgQUAAA7sAkprpJ8q7sEAAAAgDd+JJmvZ+NF7SEAAAAAANQloAAA2KGm7SYpFymEFAAAAAD1PCW5SQknlpW3AAAAAABwIAQUAABfoGm7UZLrzXNSeQ4AAADAUKySfF/PxvPaQwAAAAAAODwCCgCAL7QJKa5SQorTumsAAAAAjtaPlGsTi9pDAAAAAAA4XAIKAIA9adruKiWkOKs8BQAAAOAYPCW5SQknlpW3AAAAAADQAwIKAIA9a9pumuR7kou6SwAAAAB66SHJzXo2ntceAgAAAABAvwgoAAAqadpukhJSfKu7BAAAAKAXfqSEE/e1hwAAAAAA0E8CCgCAyjYhxVWS6yQnVccAAAAAHJZVkpsk8/Vs/Fh7DAAAAAAA/SagAAA4EE3bjZJcplylOK27BgAAAKCqnynRxG3tIQAAAAAAHA8BBQDAAWra7jLlIsVF7S0AAAAAe/KUZJ7kZj0bL+tOAQAAAADgGAkoAAAOWNN25ykhxbfaWwAAAAC+yF3KtYl57SEAAAAAABw3AQUAQA80bTdKCSmukpzWXQMAAADwaU9JblOuTdzXHgMAAAAAwDAIKAAAeqZpu6uUmOKs8hQAAACA93pIcpPkdj0bP9YeAwAAAADAsAgoAAB6qmm7acpFim91lwAAAAD8J9cmAAAAAAA4CAIKAICea9pukhJSXCc5qToGAAAAYMu1CQAAAAAADoqAAgDgiDRtd5USUpxVngIAAAAMk2sTAAAAAAAcLAEFAMARatruPCWk+FZ7CwAAADAIrk0AAAAAAHDwBBQAAEesabtRSkhxleS07hoAAADgyLg2AQAAAABArwgoAAAGomm7y5SY4qL2FgAAAKDX7pLM17PxvPYQAAAAAAB4DwEFAMDANG03yfYqxUnVMQAAAEBfPCWZp1ybWNadAgAAAAAAHyOgAAAYsKbtrlJiirPKUwAAAIDD9DPl2sRt7SEAAAAAAPBZAgoAANK03XlKSHEZVykAAABg6FZJbpLcujYBAAAAAMAxEVAAAPA/TduNUiIKVykAAABgWJ6S3Ca5Wc/G97XHAAAAAADAVxBQAADwS65SAAAAwCDcJZmnXJt4rLwFAAAAAAC+lIACAID/5CoFAAAAHJ1VSjQxX8/Gy7pTAAAAAABgfwQUAAD8NVcpAAAAoLeektymRBOLylsAAAAAAKAKAQUAAO/mKgUAAAD0xl3KtYnb9Wz8WHkLAAAAAABUJaAAAOBTNlcprjaPqxQAAABQ3yrJTUo0say8BQAAAAAADoaAAgCAnWna7iolpLiouwQAAAAG5ynJbZKb9Wx8X3sMAAAAAAAcIgEFAAA717TdJNurFKc1twAAAMCR+5lkvp6Nb2sPAQAAAACAQyegAADgSzVtd5nkMsm32lsAAADgSDwkuUlyu56NH2uPAQAAAACAvhBQAACwF03bjVJCiuskZ5XnAAAAQN+sso0mlpW3AAAAAABALwkoAADYu6btJikhxWWS07prAAAA4GCtktwmma9n4/vaYwAAAAAAoO8EFAAAVNW03WVKSPGt9hYAAAA4AE8p0cTteja+rT0GAAAAAACOiYACAICD0LTdKCWkuE5yVnkOAAAA7NvPlEsTogkAAAAAAPgiAgoAAA5O03aTJFeb57TmFgAAAPhCP7O9NvFYewwAAAAAABw7AQUAAAetabvzlKsUl0lOKs8BAACAz3pIchPRBAAAAAAA7J2AAgCA3mja7jLlKsU/lacAAADAezwkmadEE8u6UwAAAAAAYLgEFAAA9E7TdqOUixTXSc4qzwEAAIBfEU0AAAAAAMCBEVAAANBrTdtNUmKKq4gpAAAAqEs0AQAAAAAAB0xAAQDA0Wja7jwlpLhMclp3DQAAAAMhmgAAAAAAgJ4QUAAAcJRexBRXSU6qjgEAAODYiCYAAAAAAKCHBBQAABy9pu0uU65SXEZMAQAAwMeIJgAAAAAAoOcEFAAADIqYAgAAgHcQTQAAAAAAwBERUAAAMFhiCgAAAH5BNAEAAAAAAEdKQAEAwOA1bTfKNqT4p/IcAAAA9u9nkkVEEwAAAAAAcNQEFAAA8IKYAgAAYDB+JrlNiSYea48BAAAAAAC+noACAAB+401MMU1yUnUQAAAAn/GUEkwsIpoAAAAAAIBBElAAAMBfatruOaa4jJgCAACgD1bZBhO3lbcAAAAAAACVCSgAAOADxBQAAAAHa5VyaWK+no3va48BAAAAAAAOh4ACAAA+6UVMMU1yWncNAADAID0kmadcmljWnQIAAAAAABwqAQUAAOxQ03bnSa5SggoxBQAAwNf5mXJp4nY9Gz/WHgMAAAAAABw+AQUAAHyRTUwxTQkqzqqOAQAA6L9VkkVKMHFbeQsAAAAAANBDAgoAANiDpu0mKVcppkn+qToGAACgPx6yvTJxX3sMAAAAAADQbwIKAADYs6btRtnGFJdJTqoOAgAAOCw/U6KJxXo2XlbeAgAAAAAAHBEBBQAAVNa03cuY4rTuGgAAgL1bZRtM3NYeAwAAAAAAHC8BBQAAHJCm7c5TYoqrJGdVxwAAAHydu2yjifvaYwAAAAAAgGEQUAAAwIFq2m6UcpXi+ULFSdVBAAAAH7dKssg2mnisOwcAAAAAABgiAQUAAPRE03bPIcVlktO6awAAAP7IlQkAAAAAAOCgCCgAAKCHmrabZHud4qLuGgAAgCSuTAAAAAAAAAdOQAEAAD3XtN0o28sU07hOAQAA7I8rEwAAAAAAQG8IKAAA4Mg0bXeebVDhOgUAALBLDylXJhbr2fi28hYAAAAAAIB3EVAAAMARc50CAAD4pKeUYOL5ysSy6hoAAAAAAIBPEFAAAMCANG03yTam+KfqGAAA4FDdZRtM3NceAwAAAAAAsCsCCgAAGLCm7abZBhVnVccAAAC1PKRcmVisZ+PbylsAAAAAAAC+jIACAABIkjRtN8o2ppgmOa25BwAA+DKrbIKJJLfr2fix6hoAAAAAAIA9EVAAAAC/1LTdebYxxTTJScU5AADAxz1lE0ukXJlYVl0DAAAAAABQiYACAAD4K03bTbONKS5qbgEAAP7TczCxSAkm7quuAQAAAAAAOBACCgAA4N2athvl9XWKs4pzAACA5GcEEwAAAAAAAP9JQAEAAHzam6DiMslpzT0AADAAd9kGE4u6UwAAAAAAAPpBQAEAAOxc03aTvL5QIagAAIDPEUwAAAAAAAB8koACAAD4coIKAAB4l6eUWOI+ggkAAAAAAICdEVAAAAB7J6gAAIBXnoOJRUowcV91DQAAAAAAwJESUAAAANW9CCrON++zinMAAOCrrbINJu4FEwAAAAAAAPshoAAAAA5O03ajvL5QIagAAKDPHrKJJVIuTCyrrgEAAAAAABgoAQUAANALTdtNsw0qLmpuAQCAP7jL62Dise4cAAAAAAAAEgEFAADQU03bnef1lYqTinMAABiuVTahRJL79Wy8qLoGAAAAAACA3xJQAAAAR6Fpu0lKSPEcVpxVnAMAwPF6yOvrEsuqawAAAAAAAPhrAgoAAOAoNW03yjammG4+u1IBAMB7POV1LLGougYAAAAAAIBPEVAAAACD0bTdebZRxXlcqQAA4LW7lFjCdQkAAAAAAIAjJKAAAAAGy5UKAIBBW2V7XeLedQkAAAAAAIDjJ6AAAAB4oWm7SbYxxXmSi5p7AADYiadsrkpsnvv1bPxYcxAAAAAAAAD7J6AAAAD4g6btnq9UPEcVZ1UHAQDwJ3d5fV1iWXUNAAAAAAAAB0FAAQAA8AFN203zOqo4rbkHAGDA7rIJJVJiifvKewAAAAAAADhQAgoAAIAdaNpulBJSTCOqAAD4KmIJAAAAAAAAPkxAAQAA8EVEFQAAnyKWAAAAAAAAYKcEFAAAAHv0JqqYbD6fVZwEAFDbU0oksdi8l2IJAAAAAAAAvoKAAgAA4AA0bTdNiSkmm/dFzT0AAF9kle1ViUVKLLGsOQgAAAAAAIDhEFAAAAAcqKbtXgYV0837pOIkAID3uEuyzCaYWM/Gi6prAAAAAAAAGDwBBQAAQI80bTfKNqiYbB7XKgCAmlYpocQiJZZYrmfj+5qDAAAAAAAA4FcEFAAAAEfgF9cqJklO6y0CAI7QUzbXJLK5LOGqBAAAAAAAAH0ioAAAADhiTdtNsw0rnp+TipMAgH64S4kklimXJZbr2XhZbw4AAAAAAAB8noACAABgYJq2G2UbU0wirACAIRNKAAAAAAAAMBgCCgAAAJL8NqyYJDmttwoA2BGhBAAAAAAAAIMnoAAAAOCPmrabpsQUkyTTJKMkZ9UGAQC/8pTkfvM8RigBAAAAAAAArwgoAAAA+LCm7c5TYopptoHFeZKTaqMA4Pg95EUgsXnu17PxY71JAAAAAAAAcPgEFAAAAOxc03ajlJBikm1UMYmrFQDwt1bZhBFxTQIAAAAAAAB2QkABAADAXjVtN8k2qni+XjGKuAKA4XlKCSSWeRFLrGfjRb1JAAAAAAAAcLwEFAAAAByMX8QVz++LeqsA4FOeL0k8PyIJAAAAAAAAqERAAQAAQC80bfcyqDhPCS2en9NauwAgyUOSxySLzdeLlEjivtYgAAAAAAAA4N8EFAAAAByFpu3eXq14+T6pOA2A/nt7ReL5uV/Pxo+VNgEAAAAAAADvJKAAAABgEAQWAPyH3wUSy/VsvKwzCQAAAAAAANg1AQUAAAAkadpukuTl8zKyOKs0C4DduNu875M8vngLJAAAAAAAAGBABBQAAADwl5q2m24+PocVk2xjC5EFQB0P2cQQm+c5kMh6Nl7UGgUAAAAAAAAcHgEFAAAA7FDTdm/jiiSZbt7nSU72Pgqgv95ejhBHAAAAAAAAAB8moAAAAIA9a9pulBJTJNtrFsk2tJgkOd3vKoC9eg4jlpsnSRbP31vPxssAAAAAAAAA7JiAAgAAAA7Yi4sWL6OLSbbXLSYRWwCH4SHlQkSyjSH+dzEiyf16Nn58+5cAAAAAAAAA9kVAAQAAAEfiRWyRvL5s8fbzyZ6nAf20yvY6xMsQYvni+65FAAAAAAAAAL0hoAAAAICBatpuku0li5cXLpJk+uLzJK5cQN89ZRtAZPP5+RrEMoIIAAAAAAAAYAAEFAAAAMC7NG03ffHlJNsII3l97eL5axcvYHcesg0fktchxMsrEYkYAgAAAAAAAOAVAQUAAACwN03bvQ0sJnkdYCSvr19k8/NnXzYK9meV7aWHZ4s3X78MIhIRBAAAAAAAAMDOCCgAAACA3mnabpRy3eKt6S++N8m/I41EmMF/e3vp4dnbwCH59+WHJHlcz8ZvvwcAAAAAAABARQIKAAAAgDeatpvk19HFs+kf/onfBR6/c/GOnx2C38ULv7L4w58v8++rD89EDgAAAAAAAAADIqAAAAAAOAJ/EX3sy3I9Gy9rjwAAAAAAAACAt/4/xaA+Cnpbyv8AAAAASUVORK5CYII=;" parent="7xT7HhOt73u-JdGWIpGx-5" vertex="1">
                    <mxGeometry x="10" y="10" width="38" height="30" as="geometry"/>
                </mxCell>
                <mxCell id="12" value="" style="edgeStyle=orthogonalEdgeStyle;html=1;" edge="1" parent="1" source="7xT7HhOt73u-JdGWIpGx-7" target="LZZi7EF7rNqIdGtY6sRh-3">
                    <mxGeometry relative="1" as="geometry">
                        <Array as="points">
                            <mxPoint x="-1145" y="760"/>
                            <mxPoint x="-1145" y="760"/>
                        </Array>
                    </mxGeometry>
                </mxCell>
                <mxCell id="7xT7HhOt73u-JdGWIpGx-7" value="cdk deploy" style="rounded=0;whiteSpace=wrap;html=1;" parent="1" vertex="1">
                    <mxGeometry x="-1178.75" y="780" width="67.5" height="30" as="geometry"/>
                </mxCell>
                <mxCell id="7xT7HhOt73u-JdGWIpGx-11" value="" style="edgeStyle=orthogonalEdgeStyle;rounded=0;orthogonalLoop=1;jettySize=auto;html=1;endArrow=none;startFill=0;" parent="1" source="w4eTLS4btezZDecIvXJ8-6" target="w4eTLS4btezZDecIvXJ8-8" edge="1">
                    <mxGeometry relative="1" as="geometry">
                        <mxPoint x="-1160" y="870" as="sourcePoint"/>
                        <mxPoint x="-1160" y="840" as="targetPoint"/>
                        <Array as="points">
                            <mxPoint x="-910" y="895"/>
                            <mxPoint x="-910" y="895"/>
                        </Array>
                    </mxGeometry>
                </mxCell>
                <mxCell id="7xT7HhOt73u-JdGWIpGx-12" value="" style="edgeStyle=orthogonalEdgeStyle;rounded=0;orthogonalLoop=1;jettySize=auto;html=1;endArrow=none;startFill=0;" parent="1" source="7xT7HhOt73u-JdGWIpGx-20" target="w4eTLS4btezZDecIvXJ8-6" edge="1">
                    <mxGeometry relative="1" as="geometry">
                        <mxPoint x="-1140" y="890" as="sourcePoint"/>
                        <mxPoint x="-1020" y="890" as="targetPoint"/>
                        <Array as="points"/>
                    </mxGeometry>
                </mxCell>
                <mxCell id="w4eTLS4btezZDecIvXJ8-6" value="Docker Image&lt;div&gt;Build&lt;/div&gt;" style="rounded=0;whiteSpace=wrap;html=1;" parent="1" vertex="1">
                    <mxGeometry x="-1060" y="880" width="85" height="30" as="geometry"/>
                </mxCell>
                <mxCell id="7xT7HhOt73u-JdGWIpGx-26" value="" style="edgeStyle=orthogonalEdgeStyle;rounded=0;orthogonalLoop=1;jettySize=auto;html=1;" parent="1" source="LZZi7EF7rNqIdGtY6sRh-2" target="7xT7HhOt73u-JdGWIpGx-25" edge="1">
                    <mxGeometry relative="1" as="geometry">
                        <mxPoint x="-1360" y="890" as="sourcePoint"/>
                        <mxPoint x="-1260" y="890" as="targetPoint"/>
                        <Array as="points">
                            <mxPoint x="-1280" y="890"/>
                        </Array>
                    </mxGeometry>
                </mxCell>
                <mxCell id="7xT7HhOt73u-JdGWIpGx-27" value="" style="edgeStyle=orthogonalEdgeStyle;rounded=0;orthogonalLoop=1;jettySize=auto;html=1;" parent="1" source="7xT7HhOt73u-JdGWIpGx-25" target="7xT7HhOt73u-JdGWIpGx-20" edge="1">
                    <mxGeometry relative="1" as="geometry">
                        <Array as="points">
                            <mxPoint x="-1230" y="890"/>
                            <mxPoint x="-1230" y="890"/>
                        </Array>
                    </mxGeometry>
                </mxCell>
                <mxCell id="7xT7HhOt73u-JdGWIpGx-25" value="main branch&lt;div&gt;pushed&lt;/div&gt;" style="rounded=0;whiteSpace=wrap;html=1;" parent="1" vertex="1">
                    <mxGeometry x="-1330" y="875" width="90" height="30" as="geometry"/>
                </mxCell>
                <mxCell id="7xT7HhOt73u-JdGWIpGx-28" value="" style="group" parent="1" connectable="0" vertex="1">
                    <mxGeometry x="-1210" y="835" width="130" height="120" as="geometry"/>
                </mxCell>
                <mxCell id="7xT7HhOt73u-JdGWIpGx-20" value="&amp;nbsp; &amp;nbsp; &amp;nbsp; &amp;nbsp; &amp;nbsp; GitHub Actions" style="rounded=0;whiteSpace=wrap;html=1;fillColor=none;align=left;verticalAlign=top;" parent="7xT7HhOt73u-JdGWIpGx-28" vertex="1">
                    <mxGeometry width="130" height="120" as="geometry"/>
                </mxCell>
                <mxCell id="7xT7HhOt73u-JdGWIpGx-1" value="" style="shape=image;verticalLabelPosition=bottom;labelBackgroundColor=default;verticalAlign=top;aspect=fixed;imageAspect=0;image=data:image/png,iVBORw0KGgoAAAANSUhEUgAAAgAAAAIACAMAAADDpiTIAAADAFBMVEVMaXEeiP8fiP8Ziv8gh/8eif8eif8gif8gh/8VpP8djP8XiP8ah/8eiP8Ai/8kkP8gh/9MaXEgh/8eiP8ggf8biP8eh/8eiP8eiP8fif8fh/8giP8fif8fh/8giP8fiP8eh/8eh/8giP8eiP8eh/8eh/8fiP8gif8giP8gif8giP8eiP8fiP8fif8giP8iif8eif8dh/8eiP8eiP8fif8cj/8eiP8fiP8giP8eh/8eiP8fiP8eif8eif8eh/8fiP8giP8giP8eiP8eh/8ciP8fh/8Ugf8eiP8eh/8eiP8cif8gif8eif8eh/8gif8eiP8eif8eiP8eh/8eif8eiP8cj/8eh/8Sgf8eh/8eiP8eif8gif8gj/8gif8eif8eiP8eif8ei/8ah/8eif8eiP8eif8eiP8eif8giP8gif8gif8cif8Uif98vf8eh/8diP8gh/8eif8gif8fiP8gif8gh/8eif8eif8eiP8eif94uP8eh/8ci/8gh/8eh/8eh/8gif8eif8cif8gi/95uv8gh/8ah/8eh/8eh/8gif8giP8gif8chf8gh/96uv8eh/94uP94uP94uP8eh/8eh/8eif8gh/8eif94uP8eif8gh/8gh/8gh/8ci/94uf93xP96uv94uP8eh/94uf8eif8chf8gif8ch/8gif94uP8gif8gh/8gh/93uf94t/95u/94u/90u/8eh/8gif94uf94uf94uf93uf8eh/94uP8eh/8gif8gif94uf8eif94uP8gif8eh/8eif94uf8eif94uf8gif94uf94uP94uf93uf94uf94uP8ch/94uP94t/94uP94uP8eh/93uf94uP93u/8gi/8eh/94uf94uf94uf94vf94uP94uf94uf95uf8gif8gif94t/8eh/94uf94t/94uf94t/93uP8eif94uf94uf94uf94t/92t/95uP94uf94uf8gh/94uP+B1f96vf93uP95uP92uf96uf94uf90tf9mzf8gif94uf8eif/0vNazAAAA/XRSTlMAUhgUQFb9qasCHgocKgQFqQD3aggWLjpLXpbZ3LHRt/P9ua1U74+wYPOZfCi/cA4yT5JyvAhiw4m8NkiWnvWzoMlC+zTkDGTVpizv7RDgjfecx4TNEoQO7aPVzxBY5XfrIBLFXMta9cHn8RoMC91GWKvHZunh435BRP3FIus4evnfPjAw8SZubKFoJiyRD3Ry8Pfb51TLterX+el2JMAIH+YiK2wagSSH8/uB12DfGSgUMDiDVUdNSqTPblDhPKp+h4ucetand4+xP2W5PLzMxom1OXsjPos1bK0SUe2fW054lJvPmZfZHHRo2375JkK1ySDUBhY8WW5EfBgEXagLGgAAAAlwSFlzAAALEwAACxMBAJqcGAAAIABJREFUeNrtfQlMVcf+/wA26WURHquAAheNGkBQECgQUYtSjEGiVQE1blGDGhEliFxcEhU31IoLMUCsS4w2VNtnN419GtL8avtqq10MrbVWbX02rXZ51tfX9++5+Qc37vKdc+acMzPnHJzPz9efr+/eme+d7+fMmfmuCDFE5nqftuditvRPrIjruzBBCp09Ydqk4YPKk0pqo6MikEBPxtCs9IpWSQ4J87ek9ioVK9XjEHB206jpEikq+6/NE5tBj0HmsJgiST1m9s/yE4tneSwO+0zSjvrkILGEFkZaVo5d0om4tsViIa2JdwdJdFBRHS5W02rwu1Ej0UNZySGxpFZCVLlEGzk+YlktgvCsyRILTGibIRbX/CieWiYxQ9K/xQKb/OlvGy+xREtJsVhk88I2eIXEGotmiSuBWbGuSOKBmnk2sdYmxMZ4iRem54rlNhvSYiSeWBYoltxUqGqV+CLhjHgPmAdHEiX+mL9NLLxJsDVfMgS1YulN8fbvJxmFbHESMB4fL5SMw6JhQgEGo12b5voOf3ZiSW1q9Lu9+iwIu/FcUkh8c6g247BQgZEIUH33X10/Yta7Kb2hwQLrwrbH16iNIFku4saMw6FYVbqqHBGt7MwpPPXc6AI1o+4ZKhRhEJY2qNjzk+b5km8seR2TVFBgnlCFIUglflCLao+qv1xk5RCPf0wYhfjDNoI0jqNjvcYpIjbXE54IPssUCuF9+68gC+ZLj9I1jf+saWTuIV+hEq6YEkeilrEZAfqnOpVN5CMWNiGe8CU5/sdmBdOZ7Y2RBG+CmUeFWrjh3wQh3/P3UjyZBZUrHwhXRwrFcMJGZd9vaxXlOVOUzxwNwiDAB4F7lFRRUFJIf9oFik6H1Y1CORzgV6mY0pnCZOLS7UrvgZniJMgepUqRn63sDHORo5WMzeI2yBqZ8xV0EJPGcvoshayTojShIqawKbj/ZtexvoAuV4gRCRZKYgmFpM9s9oVdbFPljQL9hJIYotYMQXp18rfQEqEmZlgqf/qL4iRGhLxx+F2hKEZYLJv4mTiX30kkWe5C2OAvVMVm2ZtlT/9cZcmTiyCcLg6CTHBMZs3tbZyFGSp3H9wulMUAvWRO3y17uYtzSM4hlSfURf/ktRq/3vnrDBDITyZUZPwRoTDaBwCZk3erMY7YQhkH4WgRJUgZMgkgZauMEmokXqgOoTK6Zy78AaDBuECMTBnnkAgOoAq8C7BljYFipeFD0+LES4AiNuHvf30MFcx3JlayDKE2ejeABOwyRxss2kasdTJfdByghhCs/ttJh8hNbW9P7cOg+PsafB0hoThKqMOucX8y5bclPtlCZibSDhddgJWuTqiOCnpjgwAnEMR+2gZ7muxq2uiG7WBz1Cp7C+XRQDL2ESMo19fnVej1nE6z4Gv4qzj51grlUUAg1vGWqvjdUtzpYfUCihIG4YpUhYooYQqYiNP/SMWvRspEkCdS9Npn4SaZKNSnG3Nwi7tCsXq/j2zZn9Ab9IQch5tExIboxiicBWiM0jevK+VxxFEz12ZOEDWkeG8ALyp98yRBAvH2AEpinhRbAOcTQI3SF9MqCQggjT1FSc4YU0Sq9TxEFGgNvR1JWvebjsU2DWMSDhUdRnRhKkZt8UpfjCav9hnG9CaQLJSox8aCCb1smaPwRZuaroHLqWQTY2KWW0WIsA6EafUBDVBX7rOdgqxDMWNnCTVqR1/MCVCxb1OOyoKvsRTCSpPgoacJNWpGndYggED1VZ8n6vYQRWBGfkMoUiuexWwAitFWWzXU/dZfVigdHniUUCTlR2qr4jdDNJV+j9fpu8HsO6Gi46xGrMUUgVA+V2tsIJiQqi+SExMZcEaoUhsqNUdbam4B0rxej8CNmJKFQpWasB6TdhXOkABSQaeeus+YV48IC6BpBSQJs4EzSMgoUKMjlG8bPGSbUKYWwMa8hDStBFiwlrAt0DjtXWDgDmbNQpn0LGvfIa0EGIDmDCFjQJlm691S8Q5g/QZYp5kAzyCE5s0mo0DFHG1C21o1Ri8KeGEyHAiGdBEAFY8iY0BosjYnzkBwtByhTtWYi2nPo5MACJ0lbDVWpKlH/Bj4bhEgFKoWGP96im4CoOD2FiIG2DVVnd0NjiU6jKpGfziOE+knAEJHyRoOSTN91MtdK4JD6QC+tb9EhQDKRZ+f5B6oLv+9CnY3C4WqRBC8K0dQIgDyG0fGgIbNat0DcDXpuUKl6lCty6quTACEehFGjc3fpk5y2IV1XahUHeDbWidFAqDMY2StQVs6VLkHonTcXgSeAL6r9aFJAIS2zSfbBCp7qbEFgQbnCqFSVZgCa6JUDwEGAB8MSyCjwCgV4f2JYMEYoVNVWAmqYTKiuwN0VXlaRsaA2eSdiOB6BqKjmCqk6uvFQE4AhE6tIKPAENI0v7Pg132EUtVghD57mhoCoIASssNgfhvZjRA+BLQLpaoBmGZjD2BCAIQip5NtAqMXE80OJiUMEkpVA/AhqkS6CDBA7pWTTxYosJJk9ueELVAv4ADrRMRoB0AIHSHLJi4gqS0EGrEKhFZV4GNw9dMZEgChZxYSUWCz8uzrRKkIvYCTuzcxJQBKS7eTOImVwwQWaw9lEngIuDvAUnZngIfIJUkoWaEcJZBgxqrGlsIWcOkPsSYAQrMIAoeV30TgpaJWqJUciTqPUZpeAQ/gn6j8ElDsULFMVAvSCTAg9FUeBECoqlUxSkRpiA7oWyFCreQAXfVD+BAApSUpHAbtSmH+Z6BvDRdqJQd4iurHiQAInX1VngFTtVxipgu16lRgOTcCoOBk2cNgkcLXfTRVNhRQUGCMzu8PUCNBo2wWmcJ9BCxtkyDUqlOBnfx2gAf7uEyr0sHyX4XbyGQKvepTYDJfAiC/LVgCKAQmRIJf8hV61afAVM4EQGglrt7wZwrGBPBLQUKv+hSYxZ0AKPNFOItskvzX5gpnAAsCVOn8/gAtkqTUa7kGiPxAnSjQ6U2htQMgtFELATJFVKBOgLfwMP4ECD8GvwLq5b8GFzg8JfRKjAadpZYovQLycNljCkZJuM2J6CNJjjKdcbVUdgDfZ+leAz8WeiXGTF1ZAXQIkCqTNKSQJQKnB+YKvRKjSGeRBf2vgNw4OVPwv+W/vFTYAXQCPHqP47cDlMqHByrdAvcKS6BOjGThDibfAQYoBAgrtayDY1qFWslRrrPmsq4dwF+p3Yj9iMIIN8Aax0Kt5Bio05+qZweoVQwKVMzyGiFSg3TiJXDhIzgQYB1BFUHFjrPZ0LeyhVrJUaXzIq31FTB3C0FigPJtZLbOgCaBj3W6AzUSoHoRgf7HKnaAmSGJ/HCdgG2pHWwJkDKaqH5olLINQUsUkYCyBvuzPAOEd5DVCCDwSCwQ4QBsTIFFDAlwirBqIElYUrvoGaAbsB8mnBUBFvcnLCJPFNQBDtYglKoGcLeIlboIgD0D2FIJi8XVkJnzyzSEEAiQ3APbmewA8n4fF0wk6wC5TW9WgwCuVnQFgx2gNMZOpv6+awgn3yzpjGcSQMgGFm0qsFEnQNVCwrc/eQsZ+PxyVihVFZbrukqREsCfsHOElKOiwg94BLCLvCB1iJH0VNkgI0BwLWEjwT1qGovDRwCRG6wSsEs9Rw8BPA+BKwm7R0kxpWok36yzwpnAA8DG4JYZ1HaAueWE6o87qU5yuMbMAqFSlQDjQqVqSgSwVRM2DWpQ21E+Ai48PEdoVCVgx+wQHQRweQUE1RM+/u+rDuQ7A9eWEwpVi8GwRhZTIEBAJ6H6a/JoXV9E2zjV8IV1kqH/FbB0Jpn6W46Fqxf7CDzWu0KhqgH385mslwCLBxE+/vUbtUgNtwspEFYAWksprdJFAFsGod9ntcYO8pW6rq8CLoAT7MgcQrgzwBtFhI//xLlUhd4k1EntYarRToDSGEL1x2qO3knXc3QVcAcmRitaKwG2tBLq/4Zmkf3gxiMiIlwTcjGPJ8FX8yXtyNHR2eFF7XFkAt6o0XylatWs/pkDdAgcAJ8w7RFClzTfAQQ5gpO16n9gqR6B4YQmNVWuBVzRiNGSciffcdrUHxepS97g2ZLe8mYCbsiGFzRe8YsZWtSfcEanuNUYk4JQpFZg/AHKtTaCNOg/RG8BBxvmzNIpFKkVmRiznXLvhVi16q/UX8MrDDP0UaFIzcC57RSP6rPUqb9larhuWeeO1/rCEsBiMS5DV6mLsJ8qS0BFCgVZR2EGF+UB9QAXt6X4Xl1Lrv7ZVPJ210ja7VYCWETitKb4zBKfAsqnUJEUl14kssL1Aee9V0wSiiJTf1EUHTlTMeO3ChXqw3qNxTpxSdruyL/Rm46YEQ2ScATz3QIWKebbK/cAjaeWs/8ZZgYRDMpuC1B8CWQq5H3tGUBNSKzlMUsoUDfexy2uUvtGFBwio/6CgYXURBxTgDMv2YT+dGMOVofKN+yt2O/OX09PwhnY8jKiSQgNbMcGbipb7yObYb8P1Wx9bJyxqApCBX64EzZRP+Z5k7zV3zGFpnxnsNvMGKE8tkcsaS2RMWmgW/3H6WfSqEp3Em9iEqqjBLxVj7AV25pZ3yXG5jfEDtleTbttwxHsASD/iNAcJdTh3XhRBouWFqurpKAAGUZiV3lRiqGChePTjEcLtdHDYnxC10wjO7HY+uHtDClCbRRRLZPGk2acWBPxYoni4HSRjV/q0Yal3sr4m+KEDZAu/GWyerNnGCPTVBlLs3gB0MYwmdV+1YhzgG2izqLiAuqwXa6Wyyru4gTHywUZCnUxQLPMipfx7suaJudrLhO9AVggUK6yWz7f4NuIaXJdZUSbaDb4WK6udwHPDLxDK3R2lRHQBNmUP3tnb15ynJLtLjZSKIoZ3pev68XJ+zJQPsU4QOiJ3dG7WXbty/I4yBAoL8NMUQ2CJfz2yDf162BugKuTby45fqNQElNEKiT91fuznV+hymzoGqEi1k9ggUKux9pgdpM/Xyk/eUEfoSDm8FFq8tR3Kau3fz+Fme2iGAwPRCtm/AxiYYnLrFVMOa8WyuGCMOWkv1rqk+ZVKk66VqjGPAyY2VZKcUKbD0GHCeEB5AeSKmANnbQq9GZWExQbsG8VauGINqLk/y00YsCLa4naC0ULpXDFYLL6D/F6s/PGpJP1FhRZgLyRR9j0sSxpnWbroH/yq2ST5K8TCuGONbNJqwDt6dASoTdl83LSCcpOCnUYgMXzySuBxcZcV+WkW9OeraLI5CqhDEMQXC6pQMuQG+uJXga+WSFlagYeWSpUYRS2qiwIW1Z+Zqmct6g0anBnnMoxRRkoIzG0RkNZ6MkhL85blxvZ6O87IxyhtIjAxm1jzvaZNSJ7tfqxJgwVSjAUxfGSkRind/uP3Htj1JD50yr3LJKk/LIVsXGT4ks2L7VOp2FX+cv6zk8MSTp2pg/frJjNxqk/QY/1J21pbSJ+/yoKCTP51UJW/hVDJr7ELVL/6CSD9D9a84M6ZUEMwVEjIbHdpJWmyeQPjV97lo88bUaoP1Sr8ydgnorX1up008UYqZJfSpzHQ6aN/DeBIdpiz3r3GZegcqa+7SZqOaFB/tYOfw6CZfBVf5m2IuCBU7U1tMteYA71a5V/OIdQKf8Qfuq3T9SSkG7L61egecrWDsPzDXXJP/alQuYCrovjpP9YTZWpUit1Tjso11D965W/oYN9Ev/gCRzUv3CzFtEG9KVhdTBuF6Ai/0Tmh5neg/syVn/NVi1R55GUDqmhU43JO6Mlvz2JfTGX6N0M1V/5ghaRfLfQk6DVgMhjmvLPZt9Cx1Y1jZH6i+ZpCS2xVS+iKsVyzpdC2vLXczAU++QwUH/zu5pk2ZhNXZJknvpnIH9nOHuxG7fTpW3oKG39BYKTQ1lsRdxckGzkj+WRQRtQPZ2awNNSNZ5d/FndTDmVoWQmP5+TzBvlDRRkrcjQHPG1ZrXECoN4XAcYyh/CKYzqbIeufaAhZJ6OQrSDJYaYvJj54jGVv5LbaywiWl2IX/ebduDzuiYuYWuRaGVtGGQsv8QzlT434311hsy4Eh+dbWUy2Ycq7WW5ZBzk55xMX0x4N4wbtemsfsdFab3EHgyNKlzkf4EvAxTcha1x8emb8ihdUKZM5uKWYpaQykn+VBMQIK5XF07S9VRFFKkJ+IgvWXtm8IC8XterqjNqR2SrcbkzqknJTf4XjSdAAovrM6k/oijdp9H764W5YctIV3Eqsrb8yca/AugfpouJXJINSXuLZQYJCiM7s8xC1pZ/q+EEyKBuPiVIKg191kfZreybSvAmtvtYXP69RhNgEO15lin+6BVhpOallCRlXayxtvxSncEEyKfsm3pO8cU5WE1V64gOJXt2mb+15U9YbywBKNsjXlAy4Km+vE9JV3KuFVtbfl79NXAEoPoOGCMfOBvaocWJ0zhcfgWHW1z+0TZDCdBCMWA5bazsL12mdbc+FcvHHGCQ/B3GWgLD6M0ha0AvO6XjaC7bpKAg19ry2583lAB9qU2xSTaYT5+1sU7Op7mi0Nryz44wkgDULiKRLTIkf1Hvi85XLjqvv8Xlz7YZSYB+lGaQe9G9S2F8ufDsaIvLn2okASg1epVpJRxKZ5ORuVCV+Vlb/gRfIwlA5Sa4EX+DaqB1SJPR0SiLy19uJAEkGgFq+BCK1duo/YhU/G9YY3H5o4wkQLb+4bPwz08QxV+BX8HY3taW/1WbgQTQX+x5Shknbw2+bdVai8u/yUgCLEzTOfoxbtGv2PqoCcXWlr8hzUAC6D2DpCVwi321Yc11tRaXP9lIAkj6rJHY4+1A+j8kE1cHY3yAteUvCzeSAK16LqIBuAcojkVHa6zF7obF5c8wkgDSZB2/NRkzZj6bCmm4o/TscGvL3xpsJAGkJO0bQBnn5JeRdA2qppE/zFACaE9azmLpooEQgYmz2m1x+WuMJYDmCFtMHG0ou1gnnON2ncXlv24oAaQCbT6PRhaWGYW7VBxFj4CJ5H/WWAJI+ZoM0iWsA00ARGF+QKG15ZdmGEsAKV+L3Ws1oziTo9Xpg0bGhMGm+FH0zjFmkn+rwQSQ7OojK/bCIw3Re1t+EkEzHdqXFsPe20nI2vLPN5oAGt58mFSaPH3iutnm0skfIfUHN3PJn2I4AaQQlRZV+EoTR/WmXOH9iRRae6i55J9qPAGkWFXFOOvgQXSV+A/2cphsJ7WmxKudy2TyN5uAAFKCmuIlcMR7K21LWRSp5tR6hMwmf6kJCCBJk8gzFivpe9GgZ6Pe+2NjqfjvrS4/GwJIUtJcsmFT6EcZ9gNH9K5X2UnDpWE6+UtMQgBpPJlzMgw+RlBfPyBiKhL8XKW62Uwn/2SzEECSdpNkQyRRDm4JxgXMxHh/djeFl6jp5LcXm4YAkhRXnak0LBxNHUn7+QFdcx0ULvDmk3+YiQggSQ3pkRpu0bPprx8UtVhH4ek1n/y1piJAV+ptkg/exTKHqiPdhl8/6HCUWaA71dGE8r9vNgJ0+Yknp8+Dq8YPAz+/mf76Sc+Q7t+qrvAmlH86TwJ8pqIjSkP9iLY+uUGBbuHra8GPasylGSTnp4ROI1PBj6oJbzWh/Pk8CRASzKIqdij95we2zPhITGCw/P48CSCTqaIdcdSfHykffKyD2BDAYPnr+BIAxVBfwBBQgFMDs/dINcPbx2hYP9zdjg0BDJZ/M2cCoBdpLyBUBPtsd/OafnNUr1+VKkO+xeU/xpsAqCqf7gJ6RxXZau2ux8nr6t6fBdhw5UQmBDBY/iTuBEApdJ+kOkWb11Y664cLq7G2/CH8CYBK+9FcwFzl27Z7Dkx/TfsnQmg7EwIYLH+8AQRA6KUCegvoeY0Onun9mcEUnh+cIcDi8o82hABo3WxqC+gZmJkBfShL5/npAWYxIYDB8scaQwA0d6Kd0gLOILF42hfofn5w3nyLy99qEAEQiiqis4AeMwdgPvZwBZ/V/vwgNI8JAQyWP9QwAiBbKo12w5JHmn6jzNOh6/lh1d7VYPnzjSMAQr7LKCygR9fRN7Af9NH3/LB6BRgs/0IjCYDQ0Pd1L6CHNyMS/0l5Z+Qzij+qjQkBDJY/1lgCIHQoKZTqNcpX2ygFBOUKuFwDecs/2WgCkLQ6UmVIWchq/dBALoYgzvJXGE8AhDKfGal9AT3DGju1DEJUn+d9JgQwWP5+ZiBAVwfNrByNhgHPjAL/AjbPD0JsmjwbLP84kxCgq4Bmn04tfdS9QuBj2Dw/CCUwIYDB8g80DwG6EL6yPbFV3a/3qq2QWc9m/SKY6N9o+cPMRYAHmLIyNSl7POnP9652ltasav2eIRTrYzYEMFj+OhMS4LHXOMK/MfKNdb26MRH8Cd5NsNLmM1g/TMnNBb3IYUb5A81LAG/Aca1AS2zyZ6iAvFwh6IdrsVlbfkauAEYEWAWuAVQTJ6CZ+vqhMt3udBPKP91SBEBgOCEYV022ggV7yeeGbbRJFpc/xFoEqCBxpzxEYTa987OMK6ja4vLXWosAcC88uNpgeD3N/RMXE5xrcfmXWosAcKXtHKRpBdWtnx9oqLT3trb8BcHWIsAhcCXsEVpWUM37Exeqp7ZWqOnkz0bWIgCm424bzq44hNbzgxBccTvZ4vK3W40AcK3tItzHg4dQen5wkVrrLS5/L6sR4HmVvwO3gmqfH4yHZo/F5Q+1WY0ANtgjh09vCU6k8fyguS0UrADmk384shoBcNW28VU2eidSeH7Qc/C0fSwu/2brEaBKUm3QGqndf/IYM+AHd1G4teWHTVDmJkAm7Ca2y1Q68XyG1D8/mOI+UDlGS8nPsGkQMwLg4mWWyb143cLsWtV7wOdiolaHWlz+PlYkwEnMvUi2HfHS7vv3KA1da0fAU8ZZXP5WZEUCYCwaSgkOVTldH2qI0VKWFZess9ni8ndakwCbMT9nltIXU97QGP0yHTPjDIvLH2RNAhSHcv49uGbP5RaX/zNkTQLgWi9KsZlMfkoUJl/BnmJt+VV6sk1EAN8WzC+ayOKXpOGi1J+1uPxDkFUJgM+ceJfBL8FWt02xuPwrrUsAX1zyVEIk9R9Si1u/fhaXfzmyLgHQd7hftTCC8u/AF4heb3H586xMAH/sz5oeQPVnREkMNgBTyJ+NrEwA/MYmJdL0cPuX4abJP2Jt+Qu2WZsAmBZeEt3atxGx2FnaLC5/OrI4AXrhg+X696Y0x6Ea7BxFNmvLP7vQ6gRAW2Tyrem8RyOx+6dkH2pt+TGZCJYiwFyZ9PHJNOIc6mSq2sdYXP75yPoEkO3gU/OG7uFvyAzfN8Da8kuRPYEAspVUCjL0jT1DrjdES6S15WcYCciVAJnT5H5kvJ6muLl7OKyfYfIPQj2DAOiobO+ZVs0HnRkxsvXK4i0u/4TCnkIApeLN9Zq2aluWfJGqsWnWlr8lEvUYAuBt6o+wvVT1kJEKKbmhQ60tP5cDADcCKPbxKpuqLoTybH+lnPzrFpd/FOpRBEhTbDrRMoo40sq2d7liSY5Ui8ufaOtZBEBHCEorTzrjRzDSyc6ZykMlWVz++kzUwwiAIonaUMZXzZUfJflVkmH6WVz+uFLU4wiAlkpkiEsfAEdbbAvrX0Y2REWAteXvG4F6IAHQOvIazgsrJs4aFhU5JyITpfk2Dl0X3R4ynfzbjFoscpO/Zg7qkQRAQ6n0nlLEIFbnJ07yT+P4/PMlAIpczWH9ytmdn7nIX1GIeiwBUONM5usXw3K1OMg/DqEeTAAUMZnt8hWksl0u1vJLJahnEwCFj2O5fA11rNeLrfwqC9pakQAIrbUzW77dqzisGEP5F+aip4AAaFg+q+NTGpclYyZ/vR96KgiA5ixnsXz5GbzM52zklzpt6CkhAEIvLKK+fDn+HFeNgfzjfRB6egiAfEfSXb7V0XyXjbb8UnkEeqoIgNAzYyku3wj+b0+q8seuQ+hpIwAKv0HLspodZMTK0ZM/oa03egoJgFBEEo3lqxlg1NrRkV8atRihp5MACG37TO/qtYYZuXr65U8YaKj6jSYAQo0Dx+tYvoqqYGOXT6f8e26UGiy/4QRAKLw6TuPDkx6ETADN8kvLq00gvvEEQAiN2a7ez5qTFYDMAi3y17SvMoXspiAAQra8cjU93ydn+CJTQaX8ZUlRZpHcJAToSsGbV15JtPPn1B5FJgSp/NL0jl4mEts8BHhwsfLprG+RWbsJ48LW25B5oSS/NHvcvAhziWwuAnSh98Y+qTE5K9ydrg2T32+fl1uKLABQfqm1vrw9OsrXfOKajwCPURjh37h+zbrcbat8ZyAL4rH8kY2BfoXmFdO8BBAQBBAQBBAQBBAQBBAQBBAQBBAQBBAQBBAQBBAQBBAQBBAQBBAQBBAQBBAQBBAQBBAQBBAQBBAQBBDoGQQI8AvcuH7Nx5GBAdZc2SV//+HnDZ//5/APS0wtZjmnYtsqcChvU3riBLeY6tjl/Z/bWrfKGpq//PZ/b1444XTBvtuXrnz645+XzSjtRIgAQ4ySprjP1CGhMnkVlZ+1rTGz7r9+5839Thmc+PX85yYTGaxxMN8QUXySiGrp5+esXWdK7f9x7baTAK988sU/TSR1OliyhrsYtl7flalIrmyICTKX8m2/XGtykqPpX4fNIvkxaH1nchYiqHOF6vTqSdGZplH/hg8OOtXit+Mvm0L2l8AHjKsIC+olTUhISjHFEh7/zeHUglduvW4C6eGeiOHc5vfvaNVRYqWf4YnWlz/9Rpv6u+D41fjTwHVwYXm9YVf1l3Si+RkjV+/nD5068dtbBhMgF1xWPmVLp5TQqLJWaVilnb/fclLATx8ZSgBfcFFvcJg5OLVMooMiQ2wDv59vctLBPUNtA6DdZQT7eU/VUCy1OnEu93V75x9Oenjva+MIABpf6lnP6vc+3VrLZVv5Vo7Zca3rDEft/5xNPxpW+Qasdbma9d1jvEQbzY0cF+2Xgw/0//A/FP7pcDh/+9kgAnSCy8l0Nf2HMGkYMZjXkr1889Fz63hX0PrUAAAU7ElEQVS8C3T/Q+vfnY5dx40hQDS4miwr8OYlSGwQwsc2ePj2o2ff0b0LuP03Tf/e4XSeNsRxfBJcy0HsJrzBrulS30gOC3Z1l9Pl+Xd5nGX/neznH//npw1GMEDiawzewrTt2mbmy/XBoy3bXYMABWT/G8wHh/MrAwgwHVxJRg3MIpolthjIdrHu//bo5AZpUM1DD5Gj6x8f8CfAdnAh1zKZ62iNxBpMW8ce3vf45Can0O6DHf6h93z/P/nOLe4EGABb11hMlcKj+XIIuxv1hqYnmlPSP8lnYHKc420RmAKvI4Pz1NDxEg8MYtWB5/NXXJ5UZf3LPvTgDvDwz4d/cWbANLiNIfV5osivfwsrJs4aFhU5JyITpfk2Dl0XPTWkmbxf5xA218G3d7k+3LL6P7j/vfNXP99w4P4StOO1nzf88u2b5y7eVdwBHv+L/ZxDRZ6TuEQF1RFqMC7GZwo4QFBYyGyyIUYyMf67varx+/q9m1dhy/7hr87tg3cIT178ypcAveBVpNyIeyiR/uPnFcuOsi05lqgNI4P93+2wjtsBLnwr79Y5fOe29zvA+05wmi8D4K15C9U5Ahcqq61+K0n/xzElMw24DV5ugu98rrr77av7JCfJDw4q3xdvciUA7JkroFncPk0x4rsghDgMyVY1XZEBlCMadpzAaKz7r+eIA33/9sf3MveFh7vAeZ4E8GF+o7ZVKOgrNEld7+c8pQGlLJor9NclJ2DAf7J9Ox13bx1Qd6Dc724x8N4Fjhv/DpDotTScqKCtZwPVnymVDgNnKS7QOdDa1/2PKz+oHvLP225HCu8L4n84EmAcvITptMZ/QV5V0zS10OqdKt/DfSG9KKGd3RryMuE6HRpDun7f2eRqM/S+SnKMEsqDl7CF0ikgRS7dT1qtOZjH7ztZx+JwagbAu06ZHaDpR62Gm/u3XLTvvQt8wnELwCTmJFEZPLxIVk16umitlDUMtNFZnCUnHJgd4IHVRs+D+s99+B3AwfMgOBVeQftQ1gcAe60+y3eE3GGwgI5L80NX/5/Hg+q48zddY9/fj3Modw3+JTcCHMJ16KQwdpVc72/9eb7tMsOvoNFu7COH50m9W0/79Gf2vIlzFzuczn/s4MaAeMwSbtI9coSMB2AajSaKeTInDArvsB92ub+nXXeAe/cpyP/2Xbw7iZ9v+HlcHrZuFYXIWP7otNMbir8N2PX7NC/gT+qX6MTwfdmEdyzwyyKfjPOtsrlgPLj805I9ZSx2Dt2lLt7C3tUdv/5OSf6fD+IiSpwXuRHgGdwS6su8y6xhuT0/hm8RK4PgkoPd4dseCqK4Pd+/jQkUc/AzCNp244y0ujKFO9k//w8YgPUPzU7TNfBNbMznFZryv3YQF1O4j9s5EHtYj9VRpi2FvZXmIYKw5wBd5swN2IBOylaaw7hzAEe/IHYbHaV9TGwGYBztoJ1c3F3A7q9j1Cu449k92kE7X97FxRYf4EUAH+zTGq11yI3YXE5ffjvYd9rHfB0T0evcd5+6/G85MQaB97htAVijWsFSjSOW455KFnXeknDSayfbOYxOHL8wkP8WJpz07mu8CJBSgPXWa3LXoUCcryaZhfiZRbRPAZdxu/IdFvK/fA+OEeJ4CtiOr8un6SqAcwIwKkS6qgHj1PTTOOBpzLlsPxv5L78Ch4ze/TsvAhTig+1aD6kf7ghmrLGsynngTjHPad4AwLB+Zo76tzBRgp9y2wKG4c12e9RXDEjGDHWdmfzLMAUFSzWN9iYml+cdZvKfg/PIdvHzCclUbVut2qxew8UC4HboCKVpzTwI5Po4HSzjNA7chU+d/OqI+cpEWTWoPAnWYcZhWd4T4xvO1jLW29DTz/hefgeOOb/EjQByvhspP0/VUJhAw+0sxQ/eA086R6cRyEUbTPO3fz8IZ50f4MeA7XIxVqkqBirGjOHHVPxqeNJ29SN9fRcMAbnLNlTzR6B+jMPpfJMfAZBszkUieXhAGHMfIIRwuPJwjfqR/gvn+TIO0Xh5H7gDnOBIgEDZYOvVxEZBuBKY/d+Mxa+F5X5e9UD7wSsZc8v8He/KIV1/+4UjA5bKB/GnkzkHC9nElyjCL5/OxrMDTun/kLX8970zxrr+wrVuSK08A2YSbQIY38zHzKWPAefdrXaYq7AfkH26zi3vGjNdFaV5EkAujO/hY0yQMwb7gV5lL3wQLLPa2Mb3QP3fZi//Ye+k8a7/u8+TALYcpV4dGYrR/A2GVSGPA2eep3KUfWA1Fx6pGt+DxqBvuW4BAUVKube7o+UpEAUfAX05CN8mUah/vgFO4efhmT0PeqCucSUAiqhU7tOQJVeL6Qb4nQou1xjQCT1B4yXQbTvez0P+H8AQtBN8CYACCdp41VRnqjwCvIA9u1cPLI+PLx/4whRFyU6ujQnJGTRxKt4sCb/A1N0/r3kbY7jZ5PeDQagHODOgkaSXU0LSG6pexJiTWJWLzSBngJxUabXdW1PDd5hWshkUDgHfg48hn9icneDc3yLeDCBr6FKUAdl2beA2DPejjJrv/qlJ2IzU3mfck4EL0sHIgqH6gwJsd53G3AG68CW4A3zKmwBoG2FLn4LmkuueDvdtxNYYW4f3URFTpnaKd53h2VD+rw28gahqiH0YtALwssa8Ah0DP+ROABSpoqlTXElW1AwlM9AC4L7Rn7jKWyR4LKkCPjmSfPvB4FvwJM5rF/4VYt9t/gRAq2IlVWitSErO2Bo9oM/KUaQ1h3KI04Y2YurMVpFeBJV/75Kv/9+By4c3fPmff54Gs3V/4LTu8EXQAAKgtHiaNXxbvScYhftsiecn5+KSDEO9z6F1qgNRlnx04YRbS08oWXMfr2X/E5zfmJ5C7RQJ4B2XU43/sGfrSnwlEO/sv0Dwc8OwP/Kvnd+4ax8OBuYWl3MAnP+qIQRAeYuoEcDLGBcgU+HHw3sjF6nU4SW0uopBOy55NnGDdwB+KTpgMPJ5YwiAAuNoEcDrcC/rdnQL5LTJnUZCvcwL04jeKo/w8kWHexM33A7wBbc1vwfN/4FBBECZSZQI4GXikb1lFCm/1bGJRoPUeAOuebVyw+wA/No8X4GCEa4hw1CVT4UAnlHFH7tVeD+J0JhEXCBnutuWPwWhaNc7YbOnwGBMQH/4x70DVOmEdwB+pTtvQl0lrhhHANQ4mgYBPBMLXHqHh/Z5+K8WuHw8w+WjLsG+cY/SvV3zzo54jPycioS020rNfp78e3493T6FZNiPjEQGBQLMwR/sn7zwXbyIId2fdG1x/qSqsEtVo70eI6+Fpp8O/rD/wJVZoB3gMrfV/h8kw/eGEgAdqtBNAE+nQffBrqzb8tD98dEuRkCoWsU8fLj6JnKH8B0oChsu2sYtRxPthIwRJ5DB8NHb8g1/BnSx09dDdiOXM2B3g+Aj+PYQg6Hpx4O/6hy+SJ/nH36dfI5DLUleQYYjrIwqAcDzWb/uRKTufzkM8uqG44vYLCC3BX/iUG4ByN0W+y3YYcx4AqAZnXoI4Gmx695RpnX/y25/f2X3v8yFcnxcmh4fI7EwlsE3LmL9O/jl6H4E7UZNyAwIHKWdAJ4Bgcu7/6dtgKpdLMf+kFOvBF/QNpU8O+gmSQfIh3+4lWrpOgN4xyP+A5kD/umhGgngGcATAlzRJsE+YZdRHje2Xx+KrziQrGhZeoI/sG1gvf7GzxtzB+osfA+ZBcXtNVTsANEu/9uyB/lGxcMx0QPxXoGFua7nkUISO0A9bAjepdjY9fEfjnYASI5LyETIC9FAAE9LoFvP2taYBYOTynBHBreX+vz2623xssE+oCUwHm90IWv+ys8S+C/IMHkBmQppgwepNRB7mmuQbLSBWxZhhOzAVUS+gGXwD1lykKS9c9cffr6ADyHD5DlkNoQPG6eqG7SXNzCX/IVRQuo2egCwSeFEzM/40ukkOwfw8wb+n/sm9PC/vIfMiF4diQtJCeAd6def+MNzZbabPghvYXBBLe43vLVL2QjU9Q9+/VxB18QdZFYU1720ZToBAbycdmgOdgdpXUxi3PP0GTzCRtLgwUf44YKyHdDp4Fe7/2fQNfEHMjciq6b2mx8rl07S4P2lNZgrZYJ3SbIOzKjLw70+OozoEuJmetsnfwF48IebJeaqp2viwd82IAsBjssFSg3CusqHOpdvgePRgW7jcCCjfH3y198+f2fnj39c/eXLwwfuu1liuv/GyxDwJthPeomVCABXGQkDPpkLxAXOhAvTJgPpRp9Bas2GJl+hRv4/oe3A+SOn1bvkBDrJ/sNK+kdzJeKLmL+Xn3kkrpiDz2yi6l8B4OQ5auTfAe0ADk4xOb/fhd5Cn1iKAGghuTsGvesW8VkkU0o+oN21B519y2IV24+6XugHoR3gGz5r9zZ4EL1pLQLEqzqHPR/zyAa4p0ShHGlp9GePD38ZuI7jxyiUi/0Q2gE4GYM/BQ+iH1mLAB1k4bvdmLEqN/cQWVHniKCo9Udk/nfQDCQdVXcOA++CfK7iJ8BGVT9biwAD6NTq0gI4O3ysypsYaA7gUqtrg0eRyEfN5K2lf+QHNwvJ5TB1CaEZUv4U6ADNATy6OX8AGiFOW4wALrF9rhjIfmIbbIsarPYqBvkDHRyyc2z7QDPUcasR4AZpgjBtYJKIAlUOcx40CnJIEP4T9kj9YDUCRMJ6iGY+8Ui4ppnaYQ67hOO4qIP9g/gr6JM+gSyHmYSuW8qAi9OotAI8OIu7ZQs+/vN/rOU/7G2CotyomBcwKaXDGE/7Plk0kjJuurtjH6uFdZb+aaBLAddoJGpYCWtiPttZ/e103gDdOWMeymDsEz7g8ApIs+gbwDXC3w3rjNh31moY6rbbffyJQv7JVP5bYL8IjsFIFJFswBawsYBejeLzXpVC2W8BP7uHoT2Z/zUrEsDXLlEwytOwPqjzBD7G3x2eobkP/wtLp/AlB9CnjHqvel7ABP2On8tsxmhM1NACTaNdcQ/MexIYxK5t1HEgKZhngULK2ItRxyhWE87ABKS1hmsa7h24agi7yu079jnAaNR9S6xJADSTOIyXDp7FzDdL43j/AKuGsOsdewXMTTGuPphupGIUMv4Ik+lwVQfHB2gc8EewaojT0cTGLvsRJh69yaobAArH1QEcbWMwWwouabVW64i/H4R3AOdvLOR/fRcmO+UOsizacBHix+jPlbkb19QgTfOYO4GggAccYFC7/eWfMNHor+ywLgHCcYkf9gW0p7IlMiCbex9P1/sg9XO5DZOcwoRs/LAWmyVyivJMI3AT5etpVnzeAdaQczidb1OW/xouL3XX11YmQCE2cTA/iupEHVimzdIz7JKDTngHcO76nKr8n0Kn/weznUeWRhVWMeODKE6zCd/crLeuga86cHUEmw5TlP+/uMx054m/rE0ATA/pLqxeT++wacfO0kvn0BcgzTz42zf0gsTPY+vSMPY9ccAcfEWhhF6U5ojBJ6Qu0zv2D7twtYQdr9BSzr+waamGFghmfg6UWqpoTNBbplxNfoTu4XdiS8c671LJ2P7rnMO7ItSjP7vuW58ASK4N7RkK58whMuPPoiD/907PBKHuV8FX+odfst/pxO0AVj8BPkSQXFm5UQE6R4+UayXRTMNid/muR4qg6zH9ml4z7YbbDs/Bu/9c/KsnEABtlSsb0neorrFT5dg1fjEV+Y/jdwCH8yd9R8Gdu+DBH140XkM9A/3lGNDSpv0xjUiUrUmzlJL856AL+mMO3D2vXf77Fzzjjt22gLd7iP5RoXwn6maNm4BNoXh1Jy35Xz4BmeiecOCixk3A9tU3TjAE9NGfD1CPQW6BrKbsW7Qc1qOmKdSkouey23AXLhv1WHXXtBzWP7/nwJDq4f+7aOs5BEBZCgXE8juLVY64XqmnZVkgRfm/hQvHPVHdrk/VWuw3/OrSFAKKO2j6AfUkHFOqIbcouVDFcI3L7EqUGkNV/jchP52r7pr+p+Y+8PM597hv79jDV75EPQvKxYVXp5I67lPKlYsS1lGW/zRkCXIvILOT1HH/+mmZyqSPGPZnD9M/Cq5XVlpof59g5ZN/arPySHYf2vL/fgl4B3hc4O5eufq78sl/50VsJcInHHBcRT0OxZUk5WQbkvbKRY0HhQ0nqkrLIPfg69tOzAPr+vemW2/JnQYO//iJfH/iRxz4EfVA+E8grCk8LWYAUFKyMDcshLRnUTIL+V874ZBrMdjdf/bezbeAgj5Lvvzq3DdOpf7EDwf5H+qRiChSUVq8b3zJ2jODB+T1ul5VnVE7IrtVxXeT2ch//55ci0HXe4HT6fzpwgdffHX8rbf/+c4fH+28c+3SvieticFeBG4DfoF6KKZQ60Mth4IFrOTfcRE+sLnfCh8xwOnZkd7hBCsOeL1QHN+iHou0Zvb6z69jJ/+SS/jWUu6WAQfUkd6FHvgT4K5fUA9GQA5r/c8eylL+Jb8qXN88OtF7XxcxG8CTr+/bgHo20tnqf/ccxvLfkW8x57oDuP0dLjfhGQHoPHEA9XQMLmCo//hC5vL/2UTSY8grvs+76APwWcevS1DPx7oyVuq3r+Uh/4F7TrI2U1DzP/mvfIGeCqwqYqP/1XV85F/ynsJLAHjMSXrTNf2JnhIEt7cw0P/kxdx+wDv7CDvNQSZD3De+fw09PQiaRF3/U3nKf/+KcqthKJdA5htvoqcKtk0JVNVfcYjzDzje5CRvPO+Usf4+/LP/dfS0wT+Envpbq/jLf+A0sfodSm+Bfd+ipxG5lOyCBQMLDZH/y4symz7ufAj9Tx8sQU8nbFU1FEy/Mf6G/YA/Tsgf7wjOh45dty6jpxfhbXv0qX98+1wj5X/5/EEVuwDwt6Y3v0ZPN2zD4u2a1T/hTKbR8v/t6gWHml3APff7q5eRADrUqck2mFC+1ByB05c/bVL5Cnjwj1dO//mXUP4jy5BP/1CVVt+c6ADzyP/71St3CawCLlRwfHJ8idC7K9JeGKLi1t/mazb5d3z0iRNnC/LaAvaff01o3BtHspJeVVZ+Tfr1AHPK/9pHt26D50E3i8DBm++IZx+P4j5Th2ALS00YnrR5o7nl//qdN/cfxJ35T3xy66vXhY6VETC0qra8ormocuEiSSrb3ZwYEjN169KjlpF/yYY/7pzef/HeiYNNTkfT7YsXzt369Me3dbf+/P/wmao/+swjEAAAAABJRU5ErkJggg==;" parent="7xT7HhOt73u-JdGWIpGx-28" vertex="1">
                    <mxGeometry width="32" height="32" as="geometry"/>
                </mxCell>
                <mxCell id="7xT7HhOt73u-JdGWIpGx-2" value="AWS CDK" style="sketch=0;points=[[0,0,0],[0.25,0,0],[0.5,0,0],[0.75,0,0],[1,0,0],[0,1,0],[0.25,1,0],[0.5,1,0],[0.75,1,0],[1,1,0],[0,0.25,0],[0,0.5,0],[0,0.75,0],[1,0.25,0],[1,0.5,0],[1,0.75,0]];outlineConnect=0;fontColor=#232F3E;fillColor=#C925D1;strokeColor=#ffffff;dashed=0;verticalLabelPosition=bottom;verticalAlign=top;align=center;html=1;fontSize=12;fontStyle=0;aspect=fixed;shape=mxgraph.aws4.resourceIcon;resIcon=mxgraph.aws4.cloud_development_kit;" parent="7xT7HhOt73u-JdGWIpGx-28" vertex="1">
                    <mxGeometry x="35" y="29.99545454545455" width="60" height="60" as="geometry"/>
                </mxCell>
                <mxCell id="LZZi7EF7rNqIdGtY6sRh-4" value="Region (ap-northeast-1)" style="points=[[0,0],[0.25,0],[0.5,0],[0.75,0],[1,0],[1,0.25],[1,0.5],[1,0.75],[1,1],[0.75,1],[0.5,1],[0.25,1],[0,1],[0,0.75],[0,0.5],[0,0.25]];outlineConnect=0;gradientColor=none;html=1;whiteSpace=wrap;fontSize=12;fontStyle=0;container=0;pointerEvents=0;collapsible=0;recursiveResize=0;shape=mxgraph.aws4.group;grIcon=mxgraph.aws4.group_region;strokeColor=#00A4A6;fillColor=none;verticalAlign=top;align=left;spacingLeft=30;fontColor=#147EBA;dashed=1;" parent="1" vertex="1">
                    <mxGeometry x="-1380" y="190" width="500" height="540" as="geometry"/>
                </mxCell>
                <mxCell id="aFB0EKd-YDEnXD3zQQBE-10" value="" style="edgeStyle=orthogonalEdgeStyle;rounded=0;orthogonalLoop=1;jettySize=auto;html=1;endArrow=none;startFill=0;" parent="1" source="LZZi7EF7rNqIdGtY6sRh-6" target="LZZi7EF7rNqIdGtY6sRh-8" edge="1">
                    <mxGeometry relative="1" as="geometry"/>
                </mxCell>
                <mxCell id="LZZi7EF7rNqIdGtY6sRh-8" value="Amazon ECR" style="sketch=0;points=[[0,0,0],[0.25,0,0],[0.5,0,0],[0.75,0,0],[1,0,0],[0,1,0],[0.25,1,0],[0.5,1,0],[0.75,1,0],[1,1,0],[0,0.25,0],[0,0.5,0],[0,0.75,0],[1,0.25,0],[1,0.5,0],[1,0.75,0]];outlineConnect=0;fontColor=#232F3E;fillColor=#ED7100;strokeColor=#ffffff;dashed=0;verticalLabelPosition=bottom;verticalAlign=top;align=center;html=1;fontSize=12;fontStyle=0;aspect=fixed;shape=mxgraph.aws4.resourceIcon;resIcon=mxgraph.aws4.ecr;" parent="1" vertex="1">
                    <mxGeometry x="-1350" y="630" width="60" height="60" as="geometry"/>
                </mxCell>
                <mxCell id="aFB0EKd-YDEnXD3zQQBE-15" value="" style="edgeStyle=orthogonalEdgeStyle;rounded=0;orthogonalLoop=1;jettySize=auto;html=1;" parent="1" source="aFB0EKd-YDEnXD3zQQBE-5" target="aFB0EKd-YDEnXD3zQQBE-14" edge="1">
                    <mxGeometry relative="1" as="geometry"/>
                </mxCell>
                <mxCell id="aFB0EKd-YDEnXD3zQQBE-5" value="Amazon SNS&lt;div&gt;Success Topic&lt;/div&gt;" style="sketch=0;points=[[0,0,0],[0.25,0,0],[0.5,0,0],[0.75,0,0],[1,0,0],[0,1,0],[0.25,1,0],[0.5,1,0],[0.75,1,0],[1,1,0],[0,0.25,0],[0,0.5,0],[0,0.75,0],[1,0.25,0],[1,0.5,0],[1,0.75,0]];outlineConnect=0;fontColor=#232F3E;fillColor=#E7157B;strokeColor=#ffffff;dashed=0;verticalLabelPosition=bottom;verticalAlign=top;align=center;html=1;fontSize=12;fontStyle=0;aspect=fixed;shape=mxgraph.aws4.resourceIcon;resIcon=mxgraph.aws4.sns;" parent="1" vertex="1">
                    <mxGeometry x="-1110" y="380" width="60" height="60" as="geometry"/>
                </mxCell>
                <mxCell id="aFB0EKd-YDEnXD3zQQBE-13" value="" style="edgeStyle=orthogonalEdgeStyle;rounded=0;orthogonalLoop=1;jettySize=auto;html=1;" parent="1" source="LZZi7EF7rNqIdGtY6sRh-6" target="aFB0EKd-YDEnXD3zQQBE-5" edge="1">
                    <mxGeometry relative="1" as="geometry">
                        <mxPoint x="-2550" y="682" as="sourcePoint"/>
                        <mxPoint x="-1077" y="460" as="targetPoint"/>
                        <Array as="points">
                            <mxPoint x="-1200" y="360"/>
                            <mxPoint x="-1200" y="410"/>
                        </Array>
                    </mxGeometry>
                </mxCell>
                <mxCell id="15" value="運用状況サマリ送信" style="edgeLabel;html=1;align=center;verticalAlign=middle;resizable=0;points=[];labelBackgroundColor=#FFE6CC;" vertex="1" connectable="0" parent="aFB0EKd-YDEnXD3zQQBE-13">
                    <mxGeometry x="0.2793" y="-2" relative="1" as="geometry">
                        <mxPoint x="-1" y="-32" as="offset"/>
                    </mxGeometry>
                </mxCell>
                <mxCell id="aFB0EKd-YDEnXD3zQQBE-14" value="AWS Lambda&lt;div&gt;LINE通知&lt;/div&gt;" style="sketch=0;points=[[0,0,0],[0.25,0,0],[0.5,0,0],[0.75,0,0],[1,0,0],[0,1,0],[0.25,1,0],[0.5,1,0],[0.75,1,0],[1,1,0],[0,0.25,0],[0,0.5,0],[0,0.75,0],[1,0.25,0],[1,0.5,0],[1,0.75,0]];outlineConnect=0;fontColor=#232F3E;fillColor=#ED7100;strokeColor=#ffffff;dashed=0;verticalLabelPosition=bottom;verticalAlign=top;align=center;html=1;fontSize=12;fontStyle=0;aspect=fixed;shape=mxgraph.aws4.resourceIcon;resIcon=mxgraph.aws4.lambda;" parent="1" vertex="1">
                    <mxGeometry x="-970" y="440" width="60" height="60" as="geometry"/>
                </mxCell>
                <mxCell id="3" value="Amazon SNS&lt;div&gt;Failure Topic&lt;/div&gt;" style="sketch=0;points=[[0,0,0],[0.25,0,0],[0.5,0,0],[0.75,0,0],[1,0,0],[0,1,0],[0.25,1,0],[0.5,1,0],[0.75,1,0],[1,1,0],[0,0.25,0],[0,0.5,0],[0,0.75,0],[1,0.25,0],[1,0.5,0],[1,0.75,0]];outlineConnect=0;fontColor=#232F3E;fillColor=#E7157B;strokeColor=#ffffff;dashed=0;verticalLabelPosition=bottom;verticalAlign=top;align=center;html=1;fontSize=12;fontStyle=0;aspect=fixed;shape=mxgraph.aws4.resourceIcon;resIcon=mxgraph.aws4.sns;" vertex="1" parent="1">
                    <mxGeometry x="-1110" y="500" width="60" height="60" as="geometry"/>
                </mxCell>
                <mxCell id="4" value="" style="group" vertex="1" connectable="0" parent="1">
                    <mxGeometry x="-1360" y="290" width="70" height="87.4" as="geometry"/>
                </mxCell>
                <mxCell id="LZZi7EF7rNqIdGtY6sRh-6" value="AWS Lambda&lt;div&gt;Webスクレイピング&lt;/div&gt;" style="sketch=0;points=[[0,0,0],[0.25,0,0],[0.5,0,0],[0.75,0,0],[1,0,0],[0,1,0],[0.25,1,0],[0.5,1,0],[0.75,1,0],[1,1,0],[0,0.25,0],[0,0.5,0],[0,0.75,0],[1,0.25,0],[1,0.5,0],[1,0.75,0]];outlineConnect=0;fontColor=#232F3E;fillColor=#ED7100;strokeColor=#ffffff;dashed=0;verticalLabelPosition=bottom;verticalAlign=top;align=center;html=1;fontSize=12;fontStyle=0;aspect=fixed;shape=mxgraph.aws4.resourceIcon;resIcon=mxgraph.aws4.lambda;" parent="4" vertex="1">
                    <mxGeometry x="10" y="27.400000000000006" width="60" height="60" as="geometry"/>
                </mxCell>
                <mxCell id="aFB0EKd-YDEnXD3zQQBE-4" value="" style="sketch=0;outlineConnect=0;fontColor=#232F3E;gradientColor=none;fillColor=#E7157B;strokeColor=none;dashed=0;verticalLabelPosition=bottom;verticalAlign=top;align=center;html=1;fontSize=12;fontStyle=0;aspect=fixed;pointerEvents=1;shape=mxgraph.aws4.event_time_based;" parent="4" vertex="1">
                    <mxGeometry width="27.4" height="27.4" as="geometry"/>
                </mxCell>
                <mxCell id="7" value="" style="edgeStyle=orthogonalEdgeStyle;rounded=0;orthogonalLoop=1;jettySize=auto;html=1;" edge="1" parent="1" source="3" target="aFB0EKd-YDEnXD3zQQBE-14">
                    <mxGeometry relative="1" as="geometry">
                        <mxPoint x="-1040" y="420" as="sourcePoint"/>
                        <mxPoint x="-960" y="480" as="targetPoint"/>
                        <Array as="points">
                            <mxPoint x="-1010" y="530"/>
                            <mxPoint x="-1010" y="470"/>
                        </Array>
                    </mxGeometry>
                </mxCell>
                <mxCell id="LZZi7EF7rNqIdGtY6sRh-9" value="Parameter Store&lt;div&gt;ログイン情報&lt;/div&gt;" style="sketch=0;outlineConnect=0;fontColor=#232F3E;gradientColor=none;fillColor=#E7157B;strokeColor=none;dashed=0;verticalLabelPosition=bottom;verticalAlign=top;align=center;html=1;fontSize=12;fontStyle=0;aspect=fixed;pointerEvents=1;shape=mxgraph.aws4.parameter_store;" parent="1" vertex="1">
                    <mxGeometry x="-1080" y="210" width="60" height="62.4" as="geometry"/>
                </mxCell>
                <mxCell id="9" value="" style="edgeStyle=none;html=1;" edge="1" parent="1" source="8" target="3">
                    <mxGeometry relative="1" as="geometry"/>
                </mxCell>
                <mxCell id="8" value="CluodWatch Alarm" style="sketch=0;points=[[0,0,0],[0.25,0,0],[0.5,0,0],[0.75,0,0],[1,0,0],[0,1,0],[0.25,1,0],[0.5,1,0],[0.75,1,0],[1,1,0],[0,0.25,0],[0,0.5,0],[0,0.75,0],[1,0.25,0],[1,0.5,0],[1,0.75,0]];points=[[0,0,0],[0.25,0,0],[0.5,0,0],[0.75,0,0],[1,0,0],[0,1,0],[0.25,1,0],[0.5,1,0],[0.75,1,0],[1,1,0],[0,0.25,0],[0,0.5,0],[0,0.75,0],[1,0.25,0],[1,0.5,0],[1,0.75,0]];outlineConnect=0;fontColor=#232F3E;fillColor=#E7157B;strokeColor=#ffffff;dashed=0;verticalLabelPosition=bottom;verticalAlign=top;align=center;html=1;fontSize=12;fontStyle=0;aspect=fixed;shape=mxgraph.aws4.resourceIcon;resIcon=mxgraph.aws4.cloudwatch_2;" vertex="1" parent="1">
                    <mxGeometry x="-1110" y="630" width="60" height="60" as="geometry"/>
                </mxCell>
                <mxCell id="11" value="" style="edgeStyle=none;html=1;endArrow=none;endFill=0;" edge="1" parent="1" source="10" target="8">
                    <mxGeometry relative="1" as="geometry"/>
                </mxCell>
                <mxCell id="10" value="CloudWatch Logs" style="sketch=0;outlineConnect=0;fontColor=#232F3E;gradientColor=none;fillColor=#E7157B;strokeColor=none;dashed=0;verticalLabelPosition=bottom;verticalAlign=top;align=center;html=1;fontSize=12;fontStyle=0;aspect=fixed;pointerEvents=1;shape=mxgraph.aws4.cloudwatch_logs;" vertex="1" parent="1">
                    <mxGeometry x="-980" y="638.8900000000001" width="60" height="44.62" as="geometry"/>
                </mxCell>
                <mxCell id="18" value="S3 Bucket&lt;div&gt;エラーHTML保存&lt;/div&gt;" style="sketch=0;outlineConnect=0;fontColor=#232F3E;gradientColor=none;fillColor=#7AA116;strokeColor=none;dashed=0;verticalLabelPosition=bottom;verticalAlign=top;align=center;html=1;fontSize=12;fontStyle=0;aspect=fixed;pointerEvents=1;shape=mxgraph.aws4.bucket;" vertex="1" parent="1">
                    <mxGeometry x="-1190" y="210" width="60" height="62.4" as="geometry"/>
                </mxCell>
                <mxCell id="D2ULtiYg1ZxOyZ_3_VRA-19" value="" style="group" vertex="1" connectable="0" parent="1">
                    <mxGeometry x="-1350" y="960" width="130" height="70" as="geometry"/>
                </mxCell>
                <mxCell id="D2ULtiYg1ZxOyZ_3_VRA-25" value="" style="edgeStyle=none;html=1;" edge="1" parent="D2ULtiYg1ZxOyZ_3_VRA-19" source="zmLexbAc6m4l8YgrIwPa-18" target="D2ULtiYg1ZxOyZ_3_VRA-18">
                    <mxGeometry relative="1" as="geometry"/>
                </mxCell>
                <mxCell id="D2ULtiYg1ZxOyZ_3_VRA-26" value="" style="edgeStyle=none;html=1;" edge="1" parent="D2ULtiYg1ZxOyZ_3_VRA-19" source="zmLexbAc6m4l8YgrIwPa-18" target="D2ULtiYg1ZxOyZ_3_VRA-18">
                    <mxGeometry relative="1" as="geometry"/>
                </mxCell>
                <mxCell id="D2ULtiYg1ZxOyZ_3_VRA-27" value="" style="edgeStyle=none;html=1;" edge="1" parent="D2ULtiYg1ZxOyZ_3_VRA-19" source="zmLexbAc6m4l8YgrIwPa-18" target="D2ULtiYg1ZxOyZ_3_VRA-18">
                    <mxGeometry relative="1" as="geometry"/>
                </mxCell>
                <mxCell id="zmLexbAc6m4l8YgrIwPa-18" value="" style="whiteSpace=wrap;html=1;shape=mxgraph.basic.document" vertex="1" parent="D2ULtiYg1ZxOyZ_3_VRA-19">
                    <mxGeometry x="45" width="40" height="50" as="geometry"/>
                </mxCell>
                <mxCell id="D2ULtiYg1ZxOyZ_3_VRA-18" value="docker-compose.yml" style="text;html=1;align=center;verticalAlign=middle;whiteSpace=wrap;rounded=0;" vertex="1" parent="D2ULtiYg1ZxOyZ_3_VRA-19">
                    <mxGeometry y="50" width="130" height="20" as="geometry"/>
                </mxCell>
                <mxCell id="D2ULtiYg1ZxOyZ_3_VRA-22" value="" style="edgeStyle=orthogonalEdgeStyle;rounded=0;orthogonalLoop=1;jettySize=auto;html=1;" edge="1" parent="1" source="LZZi7EF7rNqIdGtY6sRh-1" target="zmLexbAc6m4l8YgrIwPa-18">
                    <mxGeometry relative="1" as="geometry">
                        <mxPoint x="-1291.25" y="970" as="sourcePoint"/>
                        <mxPoint x="-1111.25" y="1020" as="targetPoint"/>
                        <Array as="points">
                            <mxPoint x="-1470" y="985"/>
                        </Array>
                    </mxGeometry>
                </mxCell>
                <mxCell id="D2ULtiYg1ZxOyZ_3_VRA-24" value="ローカルでの動作確認用" style="edgeLabel;html=1;align=center;verticalAlign=middle;resizable=0;points=[];labelBackgroundColor=#FFE6CC;" vertex="1" connectable="0" parent="D2ULtiYg1ZxOyZ_3_VRA-22">
                    <mxGeometry x="0.4567" y="-4" relative="1" as="geometry">
                        <mxPoint x="-22" y="-4" as="offset"/>
                    </mxGeometry>
                </mxCell>
                <mxCell id="D2ULtiYg1ZxOyZ_3_VRA-28" value="" style="edgeStyle=orthogonalEdgeStyle;rounded=0;orthogonalLoop=1;jettySize=auto;html=1;" edge="1" parent="1" source="zmLexbAc6m4l8YgrIwPa-18" target="w4eTLS4btezZDecIvXJ8-8">
                    <mxGeometry relative="1" as="geometry">
                        <Array as="points"/>
                        <mxPoint x="-1290" y="1045" as="sourcePoint"/>
                        <mxPoint x="-955" y="980" as="targetPoint"/>
                    </mxGeometry>
                </mxCell>
                <mxCell id="L7ejBFy01Sh79D0SDyT6-18" value="docker build &amp;amp; start" style="edgeLabel;html=1;align=center;verticalAlign=middle;resizable=0;points=[];labelBackgroundColor=#FFE6CC;" vertex="1" connectable="0" parent="D2ULtiYg1ZxOyZ_3_VRA-28">
                    <mxGeometry x="-0.249" y="1" relative="1" as="geometry">
                        <mxPoint as="offset"/>
                    </mxGeometry>
                </mxCell>
            </root>
        </mxGraphModel>
    </diagram>
</mxfile>